<?xml version="1.0" encoding="UTF-8" standalone="no"?><svg xmlns="http://www.w3.org/2000/svg" xmlns:xlink="http://www.w3.org/1999/xlink" contentScriptType="application/ecmascript" contentStyleType="text/css" height="764px" preserveAspectRatio="none" style="width:826px;height:764px;" version="1.1" viewBox="0 0 826 764" width="826px" zoomAndPan="magnify"><defs><filter height="300%" id="f1x91yyri3yda0" width="300%" x="-1" y="-1"><feGaussianBlur result="blurOut" stdDeviation="2.0"/><feColorMatrix in="blurOut" result="blurOut2" type="matrix" values="0 0 0 0 0 0 0 0 0 0 0 0 0 0 0 0 0 0 .4 0"/><feOffset dx="4.0" dy="4.0" in="blurOut2" result="blurOut3"/><feBlend in="SourceGraphic" in2="blurOut3" mode="normal"/></filter></defs><g><!--entity financial--><rect fill="#F8F8F8" filter="url(#f1x91yyri3yda0)" height="37.6094" style="stroke: #383838; stroke-width: 1.5;" width="106" x="301.5" y="8"/><text fill="#000000" font-family="sans-serif" font-size="14" lengthAdjust="spacingAndGlyphs" textLength="86" x="311.5" y="32.5332">financial Gain</text><!--entity stalk--><rect fill="#F8F8F8" filter="url(#f1x91yyri3yda0)" height="37.6094" style="stroke: #383838; stroke-width: 1.5;" width="49" x="530" y="8"/><text fill="#000000" font-family="sans-serif" font-size="14" lengthAdjust="spacingAndGlyphs" textLength="29" x="540" y="32.5332">stalk</text><!--entity steal--><rect fill="#F8F8F8" filter="url(#f1x91yyri3yda0)" height="37.6094" style="stroke: #383838; stroke-width: 1.5;" width="193" x="258" y="106"/><text fill="#000000" font-family="sans-serif" font-size="14" lengthAdjust="spacingAndGlyphs" textLength="173" x="268" y="130.5332">steal customers information</text><!--entity viewpublic--><rect fill="#F8F8F8" filter="url(#f1x91yyri3yda0)" height="37.6094" style="stroke: #383838; stroke-width: 1.5;" width="120" x="538.5" y="106"/><text fill="#000000" font-family="sans-serif" font-size="14" lengthAdjust="spacingAndGlyphs" textLength="100" x="548.5" y="130.5332">view public data</text><!--entity leak--><rect fill="#F8F8F8" filter="url(#f1x91yyri3yda0)" height="37.6094" style="stroke: #383838; stroke-width: 1.5;" width="114" x="541.5" y="204"/><text fill="#000000" font-family="sans-serif" font-size="14" lengthAdjust="spacingAndGlyphs" textLength="94" x="551.5" y="228.5332">search for leak</text><!--entity instagram--><rect fill="#F8F8F8" filter="url(#f1x91yyri3yda0)" height="37.6094" style="stroke: #383838; stroke-width: 1.5;" width="113" x="691" y="204"/><text fill="#000000" font-family="sans-serif" font-size="14" lengthAdjust="spacingAndGlyphs" textLength="93" x="701" y="228.5332">view instagram</text><!--entity laptop--><rect fill="#F8F8F8" filter="url(#f1x91yyri3yda0)" height="37.6094" style="stroke: #383838; stroke-width: 1.5;" width="213" x="6" y="204"/><text fill="#000000" font-family="sans-serif" font-size="14" lengthAdjust="spacingAndGlyphs" textLength="193" x="16" y="228.5332">compromised marketing laptop</text><!--entity fax--><rect fill="#F8F8F8" filter="url(#f1x91yyri3yda0)" height="37.6094" style="stroke: #383838; stroke-width: 1.5;" width="115" x="254" y="204"/><text fill="#000000" font-family="sans-serif" font-size="14" lengthAdjust="spacingAndGlyphs" textLength="95" x="264" y="228.5332">Hack all the fax</text><!--entity cloud1--><path d="M99.5,309 C99.5,306 101.5,304 104.5,304 C107.5,304 109.5,306 109.5,309 C109.5,306 111.5,304 114.5,304 C117.5,304 119.5,306 119.5,309 C119.5,306 121.5,304 124.5,304 C127.5,304 129.5,306 129.5,309 C132.5,309 134.5,311 134.5,314 C134.5,317 132.5,319 129.5,319 C132.5,319 134.5,321 134.5,324 C134.5,327 132.5,329 129.5,329 C129.5,332 126.5,334 124.5,334 C121.5,334 119.5,332 119.5,329 C119.5,332 116.5,334 114.5,334 C111.5,334 109.5,332 109.5,329 C109.5,332 106.5,334 104.5,334 C101.5,334 99.5,332 99.5,329 C96.5,329 94.5,327 94.5,324 C94.5,321 96.5,319 99.5,319 C96.5,319 94.5,317 94.5,314 C94.5,311 96.5,309 99.5,309 " fill="#F8F8F8" filter="url(#f1x91yyri3yda0)" style="stroke: #000000; stroke-width: 1.5;"/><text fill="#000000" font-family="sans-serif" font-size="14" font-weight="bold" lengthAdjust="spacingAndGlyphs" textLength="12" x="106.5" y="326.5332">...</text><!--entity cloud2--><path d="M233.5,309 C233.5,306 235.5,304 238.5,304 C241.5,304 243.5,306 243.5,309 C243.5,306 245.5,304 248.5,304 C251.5,304 253.5,306 253.5,309 C253.5,306 255.5,304 258.5,304 C261.5,304 263.5,306 263.5,309 C266.5,309 268.5,311 268.5,314 C268.5,317 266.5,319 263.5,319 C266.5,319 268.5,321 268.5,324 C268.5,327 266.5,329 263.5,329 C263.5,332 260.5,334 258.5,334 C255.5,334 253.5,332 253.5,329 C253.5,332 250.5,334 248.5,334 C245.5,334 243.5,332 243.5,329 C243.5,332 240.5,334 238.5,334 C235.5,334 233.5,332 233.5,329 C230.5,329 228.5,327 228.5,324 C228.5,321 230.5,319 233.5,319 C230.5,319 228.5,317 228.5,314 C228.5,311 230.5,309 233.5,309 " fill="#F8F8F8" filter="url(#f1x91yyri3yda0)" style="stroke: #000000; stroke-width: 1.5;"/><text fill="#000000" font-family="sans-serif" font-size="14" font-weight="bold" lengthAdjust="spacingAndGlyphs" textLength="12" x="240.5" y="326.5332">...</text><!--entity hackapi--><rect fill="#F8F8F8" filter="url(#f1x91yyri3yda0)" height="37.6094" style="stroke: #383838; stroke-width: 1.5;" width="102" x="404.5" y="204"/><text fill="#000000" font-family="sans-serif" font-size="14" lengthAdjust="spacingAndGlyphs" textLength="82" x="414.5" y="228.5332">hack web api</text><!--entity dnstakeover--><rect fill="#F8F8F8" filter="url(#f1x91yyri3yda0)" height="37.6094" style="stroke: #383838; stroke-width: 1.5;" width="164" x="169.5" y="400"/><text fill="#000000" font-family="sans-serif" font-size="14" lengthAdjust="spacingAndGlyphs" textLength="144" x="179.5" y="424.5332">domain name takeover</text><!--entity intercept--><rect fill="#F8F8F8" filter="url(#f1x91yyri3yda0)" height="37.6094" style="stroke: #383838; stroke-width: 1.5;" width="174" x="368.5" y="400"/><text fill="#000000" font-family="sans-serif" font-size="14" lengthAdjust="spacingAndGlyphs" textLength="154" x="378.5" y="424.5332">intercept incoming traffic</text><!--entity impersonate--><rect fill="#F8F8F8" filter="url(#f1x91yyri3yda0)" height="37.6094" style="stroke: #383838; stroke-width: 1.5;" width="130" x="577.5" y="400"/><text fill="#000000" font-family="sans-serif" font-size="14" lengthAdjust="spacingAndGlyphs" textLength="110" x="587.5" y="424.5332">impersonate user</text><!--entity regjacking--><rect fill="#F8F8F8" filter="url(#f1x91yyri3yda0)" height="37.6094" style="stroke: #383838; stroke-width: 1.5;" width="139" x="450" y="498"/><text fill="#000000" font-family="sans-serif" font-size="14" lengthAdjust="spacingAndGlyphs" textLength="119" x="460" y="522.5332">registration jacking</text><!--entity mitm--><rect fill="#F8F8F8" filter="url(#f1x91yyri3yda0)" height="37.6094" style="stroke: #383838; stroke-width: 1.5;" width="49" x="624" y="498"/><text fill="#000000" font-family="sans-serif" font-size="14" lengthAdjust="spacingAndGlyphs" textLength="29" x="634" y="522.5332">mitm</text><!--entity findvuln--><rect fill="#F8F8F8" filter="url(#f1x91yyri3yda0)" height="37.6094" style="stroke: #383838; stroke-width: 1.5;" width="73" x="713" y="498"/><text fill="#000000" font-family="sans-serif" font-size="14" lengthAdjust="spacingAndGlyphs" textLength="53" x="723" y="522.5332">find vuln</text><!--entity and1--><ellipse cx="648.5" cy="626" fill="#F8F8F8" filter="url(#f1x91yyri3yda0)" rx="8" ry="8" style="stroke: #383838; stroke-width: 2.0;"/><text fill="#000000" font-family="sans-serif" font-size="14" lengthAdjust="spacingAndGlyphs" textLength="24" x="636.5" y="657.5332">and</text><!--entity publicwifi--><rect fill="#F8F8F8" filter="url(#f1x91yyri3yda0)" height="37.6094" style="stroke: #383838; stroke-width: 1.5;" width="201" x="447" y="716"/><text fill="#000000" font-family="sans-serif" font-size="14" lengthAdjust="spacingAndGlyphs" textLength="181" x="457" y="740.5332">user connecting to public wifi</text><!--entity cleartext--><rect fill="#F8F8F8" filter="url(#f1x91yyri3yda0)" height="37.6094" style="stroke: #383838; stroke-width: 1.5;" width="132" x="683.5" y="716"/><text fill="#000000" font-family="sans-serif" font-size="14" lengthAdjust="spacingAndGlyphs" textLength="112" x="693.5" y="740.5332">clear text protocol</text><!--link financial to steal--><path d="M354.5,46.057 C354.5,61.513 354.5,83.865 354.5,100.673 " fill="none" id="financial-steal" style="stroke: #383838; stroke-width: 1.0;"/><polygon fill="#383838" points="354.5,105.698,358.5,96.698,354.5,100.698,350.5,96.698,354.5,105.698" style="stroke: #383838; stroke-width: 1.0;"/><!--link stalk to steal--><path d="M529.976,39.771 C496.899,55.648 437.482,84.169 397.041,103.58 " fill="none" id="stalk-steal" style="stroke: #383838; stroke-width: 1.0;"/><polygon fill="#383838" points="392.207,105.901,402.0516,105.6122,396.7145,103.7372,398.5896,98.4001,392.207,105.901" style="stroke: #383838; stroke-width: 1.0;"/><!--link stalk to viewpublic--><path d="M562.776,46.057 C569.921,61.646 580.282,84.251 588.007,101.107 " fill="none" id="stalk-viewpublic" style="stroke: #383838; stroke-width: 1.0;"/><polygon fill="#383838" points="590.111,105.698,589.9959,95.8498,588.027,101.153,582.7239,99.1842,590.111,105.698" style="stroke: #383838; stroke-width: 1.0;"/><!--link viewpublic to leak--><path d="M598.5,144.057 C598.5,159.513 598.5,181.865 598.5,198.673 " fill="none" id="viewpublic-leak" style="stroke: #383838; stroke-width: 1.0;"/><polygon fill="#383838" points="598.5,203.698,602.5,194.698,598.5,198.698,594.5,194.698,598.5,203.698" style="stroke: #383838; stroke-width: 1.0;"/><!--link viewpublic to instagram--><path d="M626.526,144.057 C651.628,160.23 688.451,183.955 714.871,200.977 " fill="none" id="viewpublic-instagram" style="stroke: #383838; stroke-width: 1.0;"/><polygon fill="#383838" points="719.347,203.861,713.9488,195.6233,715.1442,201.1524,709.6151,202.3479,719.347,203.861" style="stroke: #383838; stroke-width: 1.0;"/><!--link steal to laptop--><path d="M308.982,144.057 C267.453,160.531 206.174,184.84 163.12,201.92 " fill="none" id="steal-laptop" style="stroke: #383838; stroke-width: 1.0;"/><polygon fill="#383838" points="158.225,203.861,168.0658,204.259,162.8724,202.0166,165.1148,196.8232,158.225,203.861" style="stroke: #383838; stroke-width: 1.0;"/><!--link steal to fax--><path d="M346.412,144.057 C339.429,159.646 329.304,182.251 321.754,199.107 " fill="none" id="steal-fax" style="stroke: #383838; stroke-width: 1.0;"/><polygon fill="#383838" points="319.698,203.698,327.0282,197.1201,321.7423,199.135,319.7274,193.8492,319.698,203.698" style="stroke: #383838; stroke-width: 1.0;"/><!--link laptop to cloud1--><path d="M112.5,242.057 C112.5,257.513 112.5,279.865 112.5,296.673 " fill="none" id="laptop-cloud1" style="stroke: #383838; stroke-width: 1.0;"/><polygon fill="#383838" points="112.5,301.698,116.5,292.698,112.5,296.698,108.5,292.698,112.5,301.698" style="stroke: #383838; stroke-width: 1.0;"/><!--link fax to cloud2--><path d="M299.274,242.057 C288.629,257.779 273.152,280.638 261.709,297.537 " fill="none" id="fax-cloud2" style="stroke: #383838; stroke-width: 1.0;"/><polygon fill="#383838" points="258.892,301.698,267.2503,296.4885,261.6954,297.5579,260.626,292.003,258.892,301.698" style="stroke: #383838; stroke-width: 1.0;"/><!--link steal to hackapi--><path d="M373.497,144.057 C390.179,159.912 414.496,183.025 432.318,199.966 " fill="none" id="steal-hackapi" style="stroke: #383838; stroke-width: 1.0;"/><polygon fill="#383838" points="436.244,203.698,432.4774,194.5979,432.6203,200.2529,426.9652,200.3958,436.244,203.698" style="stroke: #383838; stroke-width: 1.0;"/><!--link hackapi to dnstakeover--><path d="M436.308,242.251 C398.546,278.162 314.758,357.843 274.272,396.344 " fill="none" id="hackapi-dnstakeover" style="stroke: #383838; stroke-width: 1.0;"/><polygon fill="#383838" points="270.492,399.939,279.7701,396.6349,274.115,396.4932,274.2567,390.8381,270.492,399.939" style="stroke: #383838; stroke-width: 1.0;"/><!--link hackapi to intercept--><path d="M455.5,242.251 C455.5,277.727 455.5,355.922 455.5,394.929 " fill="none" id="hackapi-intercept" style="stroke: #383838; stroke-width: 1.0;"/><polygon fill="#383838" points="455.5,399.939,459.5,390.939,455.5,394.939,451.5,390.939,455.5,399.939" style="stroke: #383838; stroke-width: 1.0;"/><!--link hackapi to impersonate--><path d="M473.093,242.251 C507.568,278.017 583.895,357.201 621.175,395.877 " fill="none" id="hackapi-impersonate" style="stroke: #383838; stroke-width: 1.0;"/><polygon fill="#383838" points="625.09,399.939,621.7241,390.6832,621.6201,396.3391,615.9642,396.2351,625.09,399.939" style="stroke: #383838; stroke-width: 1.0;"/><!--link hackapi to findvuln--><path d="M503.989,242.056 C565.37,267.522 669.696,320.004 724.5,400 C743.631,427.926 748.503,467.791 749.539,492.766 " fill="none" id="hackapi-findvuln" style="stroke: #383838; stroke-width: 1.0;"/><polygon fill="#383838" points="749.705,497.859,753.4071,488.7324,749.5407,492.8617,745.4114,488.9953,749.705,497.859" style="stroke: #383838; stroke-width: 1.0;"/><!--link impersonate to regjacking--><path d="M619.365,438.057 C598.794,454.112 568.688,477.609 546.914,494.603 " fill="none" id="impersonate-regjacking" style="stroke: #383838; stroke-width: 1.0;"/><polygon fill="#383838" points="542.95,497.698,552.5061,495.3146,546.8918,494.622,547.5845,489.0077,542.95,497.698" style="stroke: #383838; stroke-width: 1.0;"/><!--link impersonate to mitm--><path d="M643.629,438.057 C644.595,453.513 645.992,475.865 647.042,492.673 " fill="none" id="impersonate-mitm" style="stroke: #383838; stroke-width: 1.0;"/><polygon fill="#383838" points="647.356,497.698,650.785,488.4653,647.0431,492.7078,642.8007,488.9659,647.356,497.698" style="stroke: #383838; stroke-width: 1.0;"/><!--link impersonate to findvuln--><path d="M662.626,438.057 C680.298,453.912 706.06,477.025 724.941,493.966 " fill="none" id="impersonate-findvuln" style="stroke: #383838; stroke-width: 1.0;"/><polygon fill="#383838" points="729.101,497.698,725.0748,488.7097,725.3799,494.3583,719.7313,494.6634,729.101,497.698" style="stroke: #383838; stroke-width: 1.0;"/><!--link mitm to and1--><path d="M648.5,536.151 C648.5,557.441 648.5,592.248 648.5,611.364 " fill="none" id="mitm-and1" style="stroke: #383838; stroke-width: 1.0;"/><polygon fill="#383838" points="648.5,616.761,652.5,607.761,648.5,611.761,644.5,607.761,648.5,616.761" style="stroke: #383838; stroke-width: 1.0;"/><!--link and1 to publicwifi--><path d="M640.909,635.042 C625.667,651.189 590.876,688.0469 568.324,711.9393 " fill="none" id="and1-publicwifi" style="stroke: #383838; stroke-width: 1.0;"/><polygon fill="#383838" points="564.814,715.6574,573.9008,711.8587,568.2463,712.0215,568.0834,706.367,564.814,715.6574" style="stroke: #383838; stroke-width: 1.0;"/><!--link and1 to cleartext--><path d="M656.091,635.042 C671.333,651.189 706.124,688.0469 728.676,711.9393 " fill="none" id="and1-cleartext" style="stroke: #383838; stroke-width: 1.0;"/><polygon fill="#383838" points="732.186,715.6574,728.9166,706.367,728.7537,712.0215,723.0992,711.8587,732.186,715.6574" style="stroke: #383838; stroke-width: 1.0;"/><!--
@startuml 
skinparam monochrome true 
skinparam defaultTextAlignment center 

agent "financial Gain" as financial
agent "stalk" as stalk

agent "steal customers information" as steal
agent "view public data" as viewpublic

financial - -> steal
stalk - -> steal
stalk - -> viewpublic

agent "search for leak" as leak
agent "view instagram" as instagram
viewpublic - -> leak
viewpublic - -> instagram

agent "compromised marketing laptop" as laptop
agent "Hack all the fax" as fax

steal - -> laptop
steal - -> fax

cloud "**...**" as cloud1
cloud "**...**" as cloud2
laptop - -> cloud1
fax - -> cloud2

agent "hack web api" as hackapi
steal - -> hackapi

agent "domain name takeover" as dnstakeover
agent "intercept incoming traffic" as intercept
agent "impersonate user" as impersonate

hackapi - - -> dnstakeover
hackapi - - -> intercept
hackapi - - -> impersonate

agent "registration jacking" as regjacking
agent "mitm" as mitm
agent "find vuln" as findvuln

hackapi - - -> findvuln

impersonate - -> regjacking
impersonate - -> mitm
impersonate - -> findvuln

interface "and" as and1
mitm - -> and1

agent "user connecting to public wifi" as publicwifi
agent "clear text protocol" as cleartext
and1 - -> publicwifi
and1 - -> cleartext

 
@enduml

PlantUML version 1.2018.00(Thu Jan 04 11:42:56 PST 2018)
(GPL source distribution)
Java Runtime: Java(TM) SE Runtime Environment
JVM: Java HotSpot(TM) 64-Bit Server VM
Java Version: 1.8.0_181-b13
Operating System: Windows 10
OS Version: 10.0
Default Encoding: Cp1252
Language: en
Country: US
--></g></svg>