<?xml version="1.0" encoding="UTF-8" standalone="no"?><svg xmlns="http://www.w3.org/2000/svg" xmlns:xlink="http://www.w3.org/1999/xlink" contentScriptType="application/ecmascript" contentStyleType="text/css" height="532px" preserveAspectRatio="none" style="width:610px;height:532px;" version="1.1" viewBox="0 0 610 532" width="610px" zoomAndPan="magnify"><defs><filter height="300%" id="fo9rly5agn034" width="300%" x="-1" y="-1"><feGaussianBlur result="blurOut" stdDeviation="2.0"/><feColorMatrix in="blurOut" result="blurOut2" type="matrix" values="0 0 0 0 0 0 0 0 0 0 0 0 0 0 0 0 0 0 .4 0"/><feOffset dx="4.0" dy="4.0" in="blurOut2" result="blurOut3"/><feBlend in="SourceGraphic" in2="blurOut3" mode="normal"/></filter></defs><g><!--entity goal--><rect fill="#F8F8F8" filter="url(#fo9rly5agn034)" height="36.2969" style="stroke: #383838; stroke-width: 1.5;" width="51" x="83" y="8"/><text fill="#000000" font-family="sans-serif" font-size="14" lengthAdjust="spacingAndGlyphs" textLength="31" x="93" y="30.9951">Goal</text><!--entity what--><rect fill="#F8F8F8" filter="url(#fo9rly5agn034)" height="36.2969" style="stroke: #383838; stroke-width: 1.5;" width="160" x="247.5" y="8"/><text fill="#000000" font-family="sans-serif" font-size="14" lengthAdjust="spacingAndGlyphs" textLength="140" x="257.5" y="30.9951">What attackers want</text><!--entity subgoal--><rect fill="#F8F8F8" filter="url(#fo9rly5agn034)" height="36.2969" style="stroke: #383838; stroke-width: 1.5;" width="81" x="6" y="104"/><text fill="#000000" font-family="sans-serif" font-size="14" lengthAdjust="spacingAndGlyphs" textLength="61" x="16" y="126.9951">Sub-goal</text><!--entity subgoal2--><rect fill="#F8F8F8" filter="url(#fo9rly5agn034)" height="36.2969" style="stroke: #383838; stroke-width: 1.5;" width="94" x="122.5" y="104"/><text fill="#000000" font-family="sans-serif" font-size="14" lengthAdjust="spacingAndGlyphs" textLength="74" x="132.5" y="126.9951">Sub-goal 2</text><!--entity subgoal3--><rect fill="#F8F8F8" filter="url(#fo9rly5agn034)" height="36.2969" style="stroke: #383838; stroke-width: 1.5;" width="152" x="251.5" y="104"/><text fill="#000000" font-family="sans-serif" font-size="14" lengthAdjust="spacingAndGlyphs" textLength="132" x="261.5" y="126.9951">Ways to get to goal</text><!--entity subsubgoal--><rect fill="#F8F8F8" filter="url(#fo9rly5agn034)" height="36.2969" style="stroke: #383838; stroke-width: 1.5;" width="111" x="117" y="266"/><text fill="#000000" font-family="sans-serif" font-size="14" lengthAdjust="spacingAndGlyphs" textLength="91" x="127" y="288.9951">Sub-sub goal</text><!--entity subsubgoal2--><rect fill="#F8F8F8" filter="url(#fo9rly5agn034)" height="36.2969" style="stroke: #383838; stroke-width: 1.5;" width="124" x="264.5" y="266"/><text fill="#000000" font-family="sans-serif" font-size="14" lengthAdjust="spacingAndGlyphs" textLength="104" x="274.5" y="288.9951">Sub-sub goal 2</text><!--entity subsubgoal3--><rect fill="#F8F8F8" filter="url(#fo9rly5agn034)" height="36.2969" style="stroke: #383838; stroke-width: 1.5;" width="124" x="423.5" y="266"/><text fill="#000000" font-family="sans-serif" font-size="14" lengthAdjust="spacingAndGlyphs" textLength="104" x="433.5" y="288.9951">Sub-sub goal 3</text><!--entity another--><path d="M33.3159,269.7455 C37.1383,263.4782 41.0828,262.0197 46.751,267.6635 C52.0362,261.0078 59.4048,260.79 62.7435,269.6676 C69.3618,274.5959 71.6,279.0621 63.7039,284.9052 C71.6877,290.8178 69.9447,296.8464 62.1445,301.2534 C58.1273,309.122 53.6939,310.4268 47.364,303.5756 C40.4759,309.2144 36.2592,307.91 33.4811,299.511 C25.0917,297.5497 24.3181,291.0273 29.9554,285.529 C23.488,278.5864 24.3779,273.408 33.3159,269.7455 " fill="#F8F8F8" style="stroke: #000000; stroke-width: 1.5;"/><text fill="#000000" font-family="sans-serif" font-size="14" font-weight="bold" lengthAdjust="spacingAndGlyphs" textLength="15" x="39" y="288.9951">···</text><!--entity exploit--><rect fill="#F8F8F8" filter="url(#fo9rly5agn034)" height="36.2969" style="stroke: #383838; stroke-width: 1.5;" width="65" x="140" y="485"/><text fill="#000000" font-family="sans-serif" font-size="14" lengthAdjust="spacingAndGlyphs" textLength="45" x="150" y="507.9951">exploit</text><!--entity ways--><rect fill="#F8F8F8" filter="url(#fo9rly5agn034)" height="36.2969" style="stroke: #383838; stroke-width: 1.5;" width="115" x="359" y="485"/><text fill="#000000" font-family="sans-serif" font-size="14" lengthAdjust="spacingAndGlyphs" textLength="95" x="369" y="507.9951">ways to get in</text><!--entity weakness--><rect fill="#F8F8F8" filter="url(#fo9rly5agn034)" height="36.2969" style="stroke: #383838; stroke-width: 1.5;" width="90" x="509.5" y="485"/><text fill="#000000" font-family="sans-serif" font-size="14" lengthAdjust="spacingAndGlyphs" textLength="70" x="519.5" y="507.9951">weakness</text><!--entity and--><ellipse cx="485.5" cy="396" fill="#F8F8F8" filter="url(#fo9rly5agn034)" rx="8" ry="8" style="stroke: #383838; stroke-width: 2.0;"/><text fill="#000000" font-family="sans-serif" font-size="14" lengthAdjust="spacingAndGlyphs" textLength="26" x="472.5" y="425.9951">and</text><!--link goal to subgoal--><path d="M96.8383,44.0569 C86.7704,59.6459 72.1715,82.2506 61.2854,99.1065 " fill="none" id="goal-subgoal" style="stroke: #383838; stroke-width: 1.0;"/><polygon fill="#383838" points="58.3202,103.6977,66.563,98.3073,61.0327,99.4975,59.8426,93.9672,58.3202,103.6977" style="stroke: #383838; stroke-width: 1.0;"/><!--link goal to subgoal2--><path d="M119.9736,44.0569 C129.8792,59.6459 144.2426,82.2506 154.9531,99.1065 " fill="none" id="goal-subgoal2" style="stroke: #383838; stroke-width: 1.0;"/><polygon fill="#383838" points="157.8704,103.6977,156.4197,93.9563,155.1889,99.4776,149.6675,98.2467,157.8704,103.6977" style="stroke: #383838; stroke-width: 1.0;"/><!--link what to subgoal3--><path d="M327.5,44.0569 C327.5,59.5126 327.5,81.8647 327.5,98.6731 " fill="none" id="what-subgoal3" style="stroke: #383838; stroke-width: 1.0;"/><polygon fill="#383838" points="327.5,103.6977,331.5,94.6977,327.5,98.6977,323.5,94.6977,327.5,103.6977" style="stroke: #383838; stroke-width: 1.0;"/><!--link subgoal3 to subsubgoal--><path d="M310.0208,140.2686 C281.4147,170.1665 224.6978,229.4449 193.7907,261.7478 " fill="none" id="subgoal3-subsubgoal" style="stroke: #383838; stroke-width: 1.0;"/><polygon fill="#383838" points="190.1531,265.5497,199.2652,261.812,193.6097,261.937,193.4848,256.2815,190.1531,265.5497" style="stroke: #383838; stroke-width: 1.0;"/><!--link subgoal3 to subsubgoal2--><path d="M327.3872,140.2686 C327.2057,169.6804 326.8486,227.5249 326.6472,260.1509 " fill="none" id="subgoal3-subsubgoal2" style="stroke: #383838; stroke-width: 1.0;"/><polygon fill="#383838" points="326.6139,265.5497,330.6696,256.5747,326.6449,260.5498,322.6698,256.5251,326.6139,265.5497" style="stroke: #383838; stroke-width: 1.0;"/><!--link subgoal3 to subsubgoal3--><path d="M345.3175,140.2686 C374.4772,170.1665 432.292,229.4449 463.7972,261.7478 " fill="none" id="subgoal3-subsubgoal3" style="stroke: #383838; stroke-width: 1.0;"/><polygon fill="#383838" points="467.5052,265.5497,464.0847,256.3139,464.0141,261.9703,458.3577,261.8997,467.5052,265.5497" style="stroke: #383838; stroke-width: 1.0;"/><!--link subgoal to another--><path d="M46.5,140.2686 C46.5,168.3881 46.5,222.4967 46.5,255.7088 " fill="none" id="subgoal-another" style="stroke: #383838; stroke-width: 1.0;"/><polygon fill="#383838" points="46.5,260.8526,50.5,251.8526,46.5,255.8526,42.5,251.8526,46.5,260.8526" style="stroke: #383838; stroke-width: 1.0;"/><!--link subgoal2 to subsubgoal--><path d="M169.8383,140.2686 C170.383,169.6804 171.4542,227.5249 172.0583,260.1509 " fill="none" id="subgoal2-subsubgoal" style="stroke: #383838; stroke-width: 1.0;"/><polygon fill="#383838" points="172.1583,265.5497,175.991,256.4772,172.0657,260.5506,167.9924,256.6253,172.1583,265.5497" style="stroke: #383838; stroke-width: 1.0;"/><!--link subsubgoal to exploit--><path d="M172.5,302.2951 C172.5,342.0071 172.5,436.0459 172.5,479.8279 " fill="none" id="subsubgoal-exploit" style="stroke: #383838; stroke-width: 1.0;"/><polygon fill="#383838" points="172.5,484.911,176.5,475.911,172.5,479.911,168.5,475.911,172.5,484.911" style="stroke: #383838; stroke-width: 1.0;"/><!--link subsubgoal3 to and--><path d="M485.5,302.4945 C485.5,324.6433 485.5,361.2787 485.5,381.4907 " fill="none" id="subsubgoal3-and" style="stroke: #383838; stroke-width: 1.0;"/><polygon fill="#383838" points="485.5,386.7303,489.5,377.7303,485.5,381.7303,481.5,377.7303,485.5,386.7303" style="stroke: #383838; stroke-width: 1.0;"/><!--link and to weakness--><path d="M491.3829,405.1228 C502.0597,421.6796 524.9148,457.1215 539.9919,480.502 " fill="none" id="and-weakness" style="stroke: #383838; stroke-width: 1.0;"/><polygon fill="#383838" points="542.712,484.72,541.1959,474.9885,540.0021,480.518,534.4727,479.3243,542.712,484.72" style="stroke: #383838; stroke-width: 1.0;"/><!--link and to ways--><path d="M479.6171,405.1228 C468.9403,421.6796 446.0852,457.1215 431.0081,480.502 " fill="none" id="and-ways" style="stroke: #383838; stroke-width: 1.0;"/><polygon fill="#383838" points="428.288,484.72,436.5273,479.3243,430.9979,480.518,429.8041,474.9885,428.288,484.72" style="stroke: #383838; stroke-width: 1.0;"/><!--
@startuml
skinparam monochrome true
skinparam defaultTextAlignment center

agent "Goal" as goal
agent "What attackers want" as what

agent "Sub-goal" as subgoal
goal - -> subgoal

agent "Sub-goal 2" as subgoal2
goal - -> subgoal2

agent "Ways to get to goal" as subgoal3
what - -> subgoal3

agent "Sub-sub goal" as subsubgoal
agent "Sub-sub goal 2" as subsubgoal2
agent "Sub-sub goal 3" as subsubgoal3
subgoal3 - - -> subsubgoal 
subgoal3 - - -> subsubgoal2
subgoal3 - - -> subsubgoal3

cloud "**···**" as another
subgoal - - -> another
subgoal2 - - -> subsubgoal

agent "exploit" as exploit
agent "ways to get in" as ways
agent "weakness" as weakness

subsubgoal - - -> exploit

interface "and" as and
subsubgoal3 - -> and
and - -> weakness
and - -> ways
@enduml

PlantUML version 1.2019.04(Fri Mar 29 15:44:36 UTC 2019)
(GPL source distribution)
Java Runtime: OpenJDK Runtime Environment
JVM: OpenJDK 64-Bit Server VM
Java Version: 1.8.0_201-heroku-b09
Operating System: Linux
OS Version: 4.4.0-1044-aws
Default Encoding: UTF-8
Language: en
Country: US
--></g></svg>