<?xml version="1.0" encoding="UTF-8" standalone="no"?><svg xmlns="http://www.w3.org/2000/svg" xmlns:xlink="http://www.w3.org/1999/xlink" contentScriptType="application/ecmascript" contentStyleType="text/css" height="591px" preserveAspectRatio="none" style="width:1240px;height:591px;" version="1.1" viewBox="0 0 1240 591" width="1240px" zoomAndPan="magnify"><defs><filter height="300%" id="f1afwwpa2ov3q5" width="300%" x="-1" y="-1"><feGaussianBlur result="blurOut" stdDeviation="2.0"/><feColorMatrix in="blurOut" result="blurOut2" type="matrix" values="0 0 0 0 0 0 0 0 0 0 0 0 0 0 0 0 0 0 .4 0"/><feOffset dx="4.0" dy="4.0" in="blurOut2" result="blurOut3"/><feBlend in="SourceGraphic" in2="blurOut3" mode="normal"/></filter></defs><g><!--entity steal--><rect fill="#F8F8F8" filter="url(#f1afwwpa2ov3q5)" height="36.2969" style="stroke: #383838; stroke-width: 1.5;" width="161" x="394.5" y="8"/><text fill="#000000" font-family="sans-serif" font-size="14" lengthAdjust="spacingAndGlyphs" textLength="141" x="404.5" y="30.9951">Steal cryptocurrency</text><!--entity market--><rect fill="#F8F8F8" filter="url(#f1afwwpa2ov3q5)" height="36.2969" style="stroke: #383838; stroke-width: 1.5;" width="174" x="697" y="8"/><text fill="#000000" font-family="sans-serif" font-size="14" lengthAdjust="spacingAndGlyphs" textLength="154" x="707" y="30.9951">Manipulate the market</text><!--entity privacy--><rect fill="#F8F8F8" filter="url(#f1afwwpa2ov3q5)" height="36.2969" style="stroke: #383838; stroke-width: 1.5;" width="116" x="1033" y="8"/><text fill="#000000" font-family="sans-serif" font-size="14" lengthAdjust="spacingAndGlyphs" textLength="96" x="1043" y="30.9951">Invade privacy</text><!--entity spy--><rect fill="#F8F8F8" filter="url(#f1afwwpa2ov3q5)" height="36.2969" style="stroke: #383838; stroke-width: 1.5;" width="221" x="980.5" y="104"/><text fill="#000000" font-family="sans-serif" font-size="14" lengthAdjust="spacingAndGlyphs" textLength="201" x="990.5" y="126.9951">Expose their spending habits</text><!--entity blockchain--><rect fill="#F8F8F8" filter="url(#f1afwwpa2ov3q5)" height="36.2969" style="stroke: #383838; stroke-width: 1.5;" width="276" x="953" y="208.5"/><text fill="#000000" font-family="sans-serif" font-size="14" lengthAdjust="spacingAndGlyphs" textLength="256" x="963" y="231.4951">View their transactions on blockchain</text><!--entity wallet--><rect fill="#F8F8F8" filter="url(#f1afwwpa2ov3q5)" height="36.2969" style="stroke: #383838; stroke-width: 1.5;" width="147" x="202.5" y="104"/><text fill="#000000" font-family="sans-serif" font-size="14" lengthAdjust="spacingAndGlyphs" textLength="127" x="212.5" y="126.9951">Gain wallet access</text><!--entity con--><rect fill="#F8F8F8" filter="url(#f1afwwpa2ov3q5)" height="36.2969" style="stroke: #383838; stroke-width: 1.5;" width="181" x="384.5" y="104"/><text fill="#000000" font-family="sans-serif" font-size="14" font-weight="bold" lengthAdjust="spacingAndGlyphs" textLength="4" x="394.5" y="126.9951">I</text><text fill="#000000" font-family="sans-serif" font-size="14" lengthAdjust="spacingAndGlyphs" textLength="51" x="398.5" y="126.9951">nternet</text><text fill="#000000" font-family="sans-serif" font-size="14" font-weight="bold" lengthAdjust="spacingAndGlyphs" textLength="11" x="453.5" y="126.9951">C</text><text fill="#000000" font-family="sans-serif" font-size="14" lengthAdjust="spacingAndGlyphs" textLength="18" x="464.5" y="126.9951">on</text><text fill="#000000" font-family="sans-serif" font-size="14" font-weight="bold" lengthAdjust="spacingAndGlyphs" textLength="12" x="486.5" y="126.9951">O</text><text fill="#000000" font-family="sans-serif" font-size="14" lengthAdjust="spacingAndGlyphs" textLength="57" x="498.5" y="126.9951">peration</text><!--entity phys--><rect fill="#F8F8F8" filter="url(#f1afwwpa2ov3q5)" height="52.5938" style="stroke: #383838; stroke-width: 1.5;" width="156" x="6" y="200"/><text fill="#000000" font-family="sans-serif" font-size="14" lengthAdjust="spacingAndGlyphs" textLength="136" x="16" y="222.9951">Steal physical wallet</text><text fill="#000000" font-family="sans-serif" font-size="14" lengthAdjust="spacingAndGlyphs" textLength="97" x="35.5" y="239.292">and password</text><!--entity seed--><rect fill="#F8F8F8" filter="url(#f1afwwpa2ov3q5)" height="36.2969" style="stroke: #383838; stroke-width: 1.5;" width="131" x="71.5" y="321.5"/><text fill="#000000" font-family="sans-serif" font-size="14" lengthAdjust="spacingAndGlyphs" textLength="111" x="81.5" y="344.4951">Find wallet seed</text><!--entity accesswallet--><rect fill="#F8F8F8" filter="url(#f1afwwpa2ov3q5)" height="52.5938" style="stroke: #383838; stroke-width: 1.5;" width="157" x="197.5" y="200"/><text fill="#000000" font-family="sans-serif" font-size="14" lengthAdjust="spacingAndGlyphs" textLength="102" x="225" y="222.9951">Gain access to</text><text fill="#000000" font-family="sans-serif" font-size="14" lengthAdjust="spacingAndGlyphs" textLength="137" x="207.5" y="239.292">local software wallet</text><!--entity webwallet--><rect fill="#F8F8F8" filter="url(#f1afwwpa2ov3q5)" height="52.5938" style="stroke: #383838; stroke-width: 1.5;" width="139" x="389.5" y="200"/><text fill="#000000" font-family="sans-serif" font-size="14" lengthAdjust="spacingAndGlyphs" textLength="102" x="408" y="222.9951">Gain access to</text><text fill="#000000" font-family="sans-serif" font-size="14" lengthAdjust="spacingAndGlyphs" textLength="119" x="399.5" y="239.292">web based wallet</text><!--entity weakseed--><rect fill="#F8F8F8" filter="url(#f1afwwpa2ov3q5)" height="36.2969" style="stroke: #383838; stroke-width: 1.5;" width="151" x="61.5" y="437"/><text fill="#000000" font-family="sans-serif" font-size="14" lengthAdjust="spacingAndGlyphs" textLength="131" x="71.5" y="459.9951">Weak seeding algo</text><!--entity malware--><rect fill="#F8F8F8" filter="url(#f1afwwpa2ov3q5)" height="36.2969" style="stroke: #383838; stroke-width: 1.5;" width="76" x="238" y="321.5"/><text fill="#000000" font-family="sans-serif" font-size="14" lengthAdjust="spacingAndGlyphs" textLength="56" x="248" y="344.4951">Malware</text><!--entity api--><rect fill="#F8F8F8" filter="url(#f1afwwpa2ov3q5)" height="52.5938" style="stroke: #383838; stroke-width: 1.5;" width="158" x="349" y="313"/><text fill="#000000" font-family="sans-serif" font-size="14" lengthAdjust="spacingAndGlyphs" textLength="138" x="359" y="335.9951">Gain remote access</text><text fill="#000000" font-family="sans-serif" font-size="14" lengthAdjust="spacingAndGlyphs" textLength="74" x="391" y="352.292">to local API</text><!--entity lackauth--><rect fill="#F8F8F8" filter="url(#f1afwwpa2ov3q5)" height="36.2969" style="stroke: #383838; stroke-width: 1.5;" width="173" x="239.5" y="544"/><text fill="#000000" font-family="sans-serif" font-size="14" lengthAdjust="spacingAndGlyphs" textLength="153" x="249.5" y="566.9951">Authentication bypass</text><!--entity dnsrebind--><rect fill="#F8F8F8" filter="url(#f1afwwpa2ov3q5)" height="36.2969" style="stroke: #383838; stroke-width: 1.5;" width="165" x="447.5" y="544"/><text fill="#000000" font-family="sans-serif" font-size="14" lengthAdjust="spacingAndGlyphs" textLength="145" x="457.5" y="566.9951">DNS rebinding attack</text><!--entity and--><ellipse cx="428" cy="455" fill="#F8F8F8" filter="url(#f1afwwpa2ov3q5)" rx="8" ry="8" style="stroke: #383838; stroke-width: 2.0;"/><text fill="#000000" font-family="sans-serif" font-size="14" lengthAdjust="spacingAndGlyphs" textLength="26" x="415" y="484.9951">and</text><!--entity xaccess--><rect fill="#F8F8F8" filter="url(#f1afwwpa2ov3q5)" height="36.2969" style="stroke: #383838; stroke-width: 1.5;" width="176" x="601" y="104"/><text fill="#000000" font-family="sans-serif" font-size="14" lengthAdjust="spacingAndGlyphs" textLength="156" x="611" y="126.9951">Gain exchange access</text><!--entity xaccount--><rect fill="#F8F8F8" filter="url(#f1afwwpa2ov3q5)" height="36.2969" style="stroke: #383838; stroke-width: 1.5;" width="114" x="575" y="321.5"/><text fill="#000000" font-family="sans-serif" font-size="14" lengthAdjust="spacingAndGlyphs" textLength="94" x="585" y="344.4951">Steal account</text><!--entity xapi--><rect fill="#F8F8F8" filter="url(#f1afwwpa2ov3q5)" height="36.2969" style="stroke: #383838; stroke-width: 1.5;" width="94" x="722" y="208.5"/><text fill="#000000" font-family="sans-serif" font-size="14" lengthAdjust="spacingAndGlyphs" textLength="74" x="732" y="231.4951">API access</text><!--entity xkeys--><rect fill="#F8F8F8" filter="url(#f1afwwpa2ov3q5)" height="36.2969" style="stroke: #383838; stroke-width: 1.5;" width="115" x="724.5" y="321.5"/><text fill="#000000" font-family="sans-serif" font-size="14" lengthAdjust="spacingAndGlyphs" textLength="95" x="734.5" y="344.4951">Steal API keys</text><!--entity xauthbypass--><rect fill="#F8F8F8" filter="url(#f1afwwpa2ov3q5)" height="36.2969" style="stroke: #383838; stroke-width: 1.5;" width="173" x="874.5" y="321.5"/><text fill="#000000" font-family="sans-serif" font-size="14" lengthAdjust="spacingAndGlyphs" textLength="153" x="884.5" y="344.4951">Authentication bypass</text><!--entity dos--><rect fill="#F8F8F8" filter="url(#f1afwwpa2ov3q5)" height="36.2969" style="stroke: #383838; stroke-width: 1.5;" width="133" x="812.5" y="104"/><text fill="#000000" font-family="sans-serif" font-size="14" lengthAdjust="spacingAndGlyphs" textLength="113" x="822.5" y="126.9951">Denial of service</text><!--entity another--><path d="M618.8159,440.7455 C622.6383,434.4782 626.5828,433.0197 632.251,438.6635 C637.5362,432.0078 644.9048,431.79 648.2435,440.6676 C654.8618,445.5959 657.1,450.0621 649.2039,455.9052 C657.1877,461.8178 655.4447,467.8464 647.6445,472.2534 C643.6273,480.122 639.1939,481.4268 632.864,474.5756 C625.9759,480.2144 621.7592,478.91 618.9811,470.511 C610.5917,468.5497 609.8181,462.0273 615.4554,456.529 C608.988,449.5864 609.8779,444.408 618.8159,440.7455 " fill="#F8F8F8" style="stroke: #000000; stroke-width: 1.5;"/><text fill="#000000" font-family="sans-serif" font-size="14" font-weight="bold" lengthAdjust="spacingAndGlyphs" textLength="15" x="624.5" y="459.9951">···</text><!--entity anothertwo--><path d="M947.8159,440.7455 C951.6383,434.4782 955.5828,433.0197 961.251,438.6635 C966.5362,432.0078 973.9048,431.79 977.2435,440.6676 C983.8618,445.5959 986.1,450.0621 978.2039,455.9052 C986.1877,461.8178 984.4447,467.8464 976.6445,472.2534 C972.6273,480.122 968.1939,481.4268 961.864,474.5756 C954.9759,480.2144 950.7592,478.91 947.9811,470.511 C939.5917,468.5497 938.8181,462.0273 944.4554,456.529 C937.988,449.5864 938.8779,444.408 947.8159,440.7455 " fill="#F8F8F8" style="stroke: #000000; stroke-width: 1.5;"/><text fill="#000000" font-family="sans-serif" font-size="14" font-weight="bold" lengthAdjust="spacingAndGlyphs" textLength="15" x="953.5" y="459.9951">···</text><!--entity anotherthree--><path d="M768.8159,440.7455 C772.6383,434.4782 776.5828,433.0197 782.251,438.6635 C787.5362,432.0078 794.9048,431.79 798.2435,440.6676 C804.8618,445.5959 807.1,450.0621 799.2039,455.9052 C807.1877,461.8178 805.4447,467.8464 797.6445,472.2534 C793.6273,480.122 789.1939,481.4268 782.864,474.5756 C775.9759,480.2144 771.7592,478.91 768.9811,470.511 C760.5917,468.5497 759.8181,462.0273 765.4554,456.529 C758.988,449.5864 759.8779,444.408 768.8159,440.7455 " fill="#F8F8F8" style="stroke: #000000; stroke-width: 1.5;"/><text fill="#000000" font-family="sans-serif" font-size="14" font-weight="bold" lengthAdjust="spacingAndGlyphs" textLength="15" x="774.5" y="459.9951">···</text><!--link privacy to spy--><path d="M1091,44.0569 C1091,59.5126 1091,81.8647 1091,98.6731 " fill="none" id="privacy-spy" style="stroke: #383838; stroke-width: 1.0;"/><polygon fill="#383838" points="1091,103.6977,1095,94.6977,1091,98.6977,1087,94.6977,1091,103.6977" style="stroke: #383838; stroke-width: 1.0;"/><!--link spy to blockchain--><path d="M1091,140.2025 C1091,157.6276 1091,184.0009 1091,203.0045 " fill="none" id="spy-blockchain" style="stroke: #383838; stroke-width: 1.0;"/><polygon fill="#383838" points="1091,208.1555,1095,199.1555,1091,203.1555,1087,199.1555,1091,208.1555" style="stroke: #383838; stroke-width: 1.0;"/><!--link steal to wallet--><path d="M437.5696,44.0569 C403.6281,60.4307 353.6424,84.5444 318.2732,101.6069 " fill="none" id="steal-wallet" style="stroke: #383838; stroke-width: 1.0;"/><polygon fill="#383838" points="313.6003,103.8612,323.4443,103.5533,318.1036,101.6887,319.9683,96.348,313.6003,103.8612" style="stroke: #383838; stroke-width: 1.0;"/><!--link steal to con--><path d="M475,44.0569 C475,59.5126 475,81.8647 475,98.6731 " fill="none" id="steal-con" style="stroke: #383838; stroke-width: 1.0;"/><polygon fill="#383838" points="475,103.6977,479,94.6977,475,98.6977,471,94.6977,475,103.6977" style="stroke: #383838; stroke-width: 1.0;"/><!--link wallet to phys--><path d="M242.5562,140.2025 C213.5599,155.9843 171.0776,179.1062 137.3831,197.4451 " fill="none" id="wallet-phys" style="stroke: #383838; stroke-width: 1.0;"/><polygon fill="#383838" points="132.8999,199.8852,142.7171,199.0961,137.2916,197.4949,138.8927,192.0694,132.8999,199.8852" style="stroke: #383838; stroke-width: 1.0;"/><!--link wallet to accesswallet--><path d="M276,140.2025 C276,155.1469 276,176.6731 276,194.4873 " fill="none" id="wallet-accesswallet" style="stroke: #383838; stroke-width: 1.0;"/><polygon fill="#383838" points="276,199.8852,280,190.8852,276,194.8852,272,190.8852,276,199.8852" style="stroke: #383838; stroke-width: 1.0;"/><!--link wallet to webwallet--><path d="M307.8762,140.2025 C335.4004,155.9199 375.6739,178.9176 407.7255,197.2203 " fill="none" id="wallet-webwallet" style="stroke: #383838; stroke-width: 1.0;"/><polygon fill="#383838" points="412.3923,199.8852,406.5603,191.9487,408.0503,197.4058,402.5933,198.8958,412.3923,199.8852" style="stroke: #383838; stroke-width: 1.0;"/><!--link accesswallet to seed--><path d="M243.0589,253.2794 C218.723,273.0634 186.0266,299.6438 163.4,318.0381 " fill="none" id="accesswallet-seed" style="stroke: #383838; stroke-width: 1.0;"/><polygon fill="#383838" points="159.2966,321.374,168.8032,318.8004,163.1763,318.2199,163.7567,312.5929,159.2966,321.374" style="stroke: #383838; stroke-width: 1.0;"/><!--link seed to weakseed--><path d="M137,357.5469 C137,377.5175 137,409.7656 137,431.6475 " fill="none" id="seed-weakseed" style="stroke: #383838; stroke-width: 1.0;"/><polygon fill="#383838" points="137,436.6987,141,427.6987,137,431.6987,133,427.6987,137,436.6987" style="stroke: #383838; stroke-width: 1.0;"/><!--link accesswallet to malware--><path d="M276,253.2794 C276,272.3245 276,297.6681 276,315.9439 " fill="none" id="accesswallet-malware" style="stroke: #383838; stroke-width: 1.0;"/><polygon fill="#383838" points="276,321.374,280,312.374,276,316.374,272,312.374,276,321.374" style="stroke: #383838; stroke-width: 1.0;"/><!--link accesswallet to api--><path d="M312.0219,253.2794 C334.9268,270.3074 364.6044,292.3704 388.2043,309.9151 " fill="none" id="accesswallet-api" style="stroke: #383838; stroke-width: 1.0;"/><polygon fill="#383838" points="392.2367,312.9128,387.4006,304.3331,388.2241,309.9296,382.6275,310.7532,392.2367,312.9128" style="stroke: #383838; stroke-width: 1.0;"/><!--link api to and--><path d="M428,366.2883 C428,389.4792 428,422.1276 428,440.6635 " fill="none" id="api-and" style="stroke: #383838; stroke-width: 1.0;"/><polygon fill="#383838" points="428,445.9369,432,436.9369,428,440.9369,424,436.9369,428,445.9369" style="stroke: #383838; stroke-width: 1.0;"/><!--link and to lackauth--><path d="M419.3035,464.1228 C403.3894,480.817 369.1727,516.711 346.8942,540.0816 " fill="none" id="and-lackauth" style="stroke: #383838; stroke-width: 1.0;"/><polygon fill="#383838" points="343.4258,543.72,352.5311,539.9658,346.8758,540.101,346.7406,534.4457,343.4258,543.72" style="stroke: #383838; stroke-width: 1.0;"/><!--link and to dnsrebind--><path d="M436.6965,464.1228 C452.6106,480.817 486.8273,516.711 509.1058,540.0816 " fill="none" id="and-dnsrebind" style="stroke: #383838; stroke-width: 1.0;"/><polygon fill="#383838" points="512.5742,543.72,509.2594,534.4457,509.1242,540.101,503.4689,539.9658,512.5742,543.72" style="stroke: #383838; stroke-width: 1.0;"/><!--link steal to xaccess--><path d="M515.2518,44.0569 C551.7517,60.4307 605.5051,84.5444 643.5404,101.6069 " fill="none" id="steal-xaccess" style="stroke: #383838; stroke-width: 1.0;"/><polygon fill="#383838" points="648.5655,103.8612,641.9912,96.5278,644.0035,101.8146,638.7167,103.827,648.5655,103.8612" style="stroke: #383838; stroke-width: 1.0;"/><!--link xaccess to xaccount--><path d="M684.2383,140.1698 C673.928,179.5117 649.5481,272.5402 638.1164,316.1612 " fill="none" id="xaccess-xaccount" style="stroke: #383838; stroke-width: 1.0;"/><polygon fill="#383838" points="636.7883,321.2289,642.9393,313.537,638.0559,316.3922,635.2006,311.5089,636.7883,321.2289" style="stroke: #383838; stroke-width: 1.0;"/><!--link xaccess to xapi--><path d="M702.9349,140.2025 C716.5027,157.9254 737.1571,184.9052 751.754,203.9725 " fill="none" id="xaccess-xapi" style="stroke: #383838; stroke-width: 1.0;"/><polygon fill="#383838" points="754.9563,208.1555,752.6615,198.5777,751.9169,204.1854,746.3092,203.4408,754.9563,208.1555" style="stroke: #383838; stroke-width: 1.0;"/><!--link xapi to xkeys--><path d="M771.0887,244.6554 C773.3251,264.095 776.8807,295.0012 779.3215,316.2174 " fill="none" id="xapi-xkeys" style="stroke: #383838; stroke-width: 1.0;"/><polygon fill="#383838" points="779.9165,321.3897,782.8615,311.9914,779.3449,316.4225,774.9139,312.9059,779.9165,321.3897" style="stroke: #383838; stroke-width: 1.0;"/><!--link xapi to xauthbypass--><path d="M799.8481,244.6554 C834.1379,264.8363 889.425,297.3751 925.4905,318.6012 " fill="none" id="xapi-xauthbypass" style="stroke: #383838; stroke-width: 1.0;"/><polygon fill="#383838" points="930.2284,321.3897,924.5009,313.3774,925.9193,318.8536,920.4432,320.272,930.2284,321.3897" style="stroke: #383838; stroke-width: 1.0;"/><!--link xapi to xaccount--><path d="M746.9886,244.6554 C722.7211,264.6716 683.7149,296.8447 657.9705,318.0791 " fill="none" id="xapi-xaccount" style="stroke: #383838; stroke-width: 1.0;"/><polygon fill="#383838" points="653.9568,321.3897,663.445,318.7488,657.814,318.2082,658.3546,312.5772,653.9568,321.3897" style="stroke: #383838; stroke-width: 1.0;"/><!--link market to dos--><path d="M801.8688,44.0569 C817.5591,59.9124 840.4314,83.0255 857.1953,99.9658 " fill="none" id="market-dos" style="stroke: #383838; stroke-width: 1.0;"/><polygon fill="#383838" points="860.8884,103.6977,857.4012,94.4869,857.3715,100.1436,851.7147,100.1139,860.8884,103.6977" style="stroke: #383838; stroke-width: 1.0;"/><!--link market to xaccess--><path d="M766.1312,44.0569 C750.4409,59.9124 727.5686,83.0255 710.8047,99.9658 " fill="none" id="market-xaccess" style="stroke: #383838; stroke-width: 1.0;"/><polygon fill="#383838" points="707.1116,103.6977,716.2853,100.1139,710.6285,100.1436,710.5988,94.4869,707.1116,103.6977" style="stroke: #383838; stroke-width: 1.0;"/><!--link xaccount to another--><path d="M632,357.5469 C632,376.1078 632,405.2741 632,426.8667 " fill="none" id="xaccount-another" style="stroke: #383838; stroke-width: 1.0;"/><polygon fill="#383838" points="632,431.9044,636,422.9044,632,426.9044,628,422.9044,632,431.9044" style="stroke: #383838; stroke-width: 1.0;"/><!--link xauthbypass to anothertwo--><path d="M961,357.5469 C961,376.1078 961,405.2741 961,426.8667 " fill="none" id="xauthbypass-anothertwo" style="stroke: #383838; stroke-width: 1.0;"/><polygon fill="#383838" points="961,431.9044,965,422.9044,961,426.9044,957,422.9044,961,431.9044" style="stroke: #383838; stroke-width: 1.0;"/><!--link xkeys to anotherthree--><path d="M782,357.5469 C782,376.1078 782,405.2741 782,426.8667 " fill="none" id="xkeys-anotherthree" style="stroke: #383838; stroke-width: 1.0;"/><polygon fill="#383838" points="782,431.9044,786,422.9044,782,426.9044,778,422.9044,782,431.9044" style="stroke: #383838; stroke-width: 1.0;"/><!--
@startuml
skinparam monochrome true
skinparam defaultTextAlignment center

agent "Steal cryptocurrency" as steal
agent "Manipulate the market" as market
agent "Invade privacy" as privacy

agent "Expose their spending habits" as spy
privacy - -> spy
agent "View their transactions on blockchain" as blockchain
spy - -> blockchain

agent "Gain wallet access" as wallet
steal - -> wallet

agent "**I**nternet **C**on **O**peration" as con
steal - -> con

agent "Steal physical wallet\nand password" as phys
agent "Find wallet seed" as seed
agent "Gain access to\nlocal software wallet" as accesswallet
agent "Gain access to\n web based wallet" as webwallet
wallet - -> phys
wallet - -> accesswallet
wallet - -> webwallet
accesswallet - -> seed

agent "Weak seeding algo" as weakseed
seed - -> weakseed

agent "Malware" as malware
accesswallet - -> malware

agent "Gain remote access\nto local API" as api
agent "Authentication bypass" as lackauth
agent "DNS rebinding attack" as dnsrebind
accesswallet - -> api
interface "and" as and
api - -> and
and - -> lackauth
and - -> dnsrebind

agent "Gain exchange access" as xaccess
agent "Steal account" as xaccount
agent "API access" as xapi
agent "Steal API keys" as xkeys
agent "Authentication bypass" as xauthbypass
steal - -> xaccess
xaccess - - -> xaccount
xaccess - -> xapi
xapi - -> xkeys
xapi - -> xauthbypass
xapi - -> xaccount

agent "Denial of service" as dos
market - -> dos
market - -> xaccess

cloud "**···**" as another
xaccount - -> another
cloud "**···**" as anothertwo
cloud "**···**" as anotherthree
xauthbypass - -> anothertwo
xkeys - -> anotherthree

@enduml

PlantUML version 1.2019.04(Fri Mar 29 15:44:36 UTC 2019)
(GPL source distribution)
Java Runtime: OpenJDK Runtime Environment
JVM: OpenJDK 64-Bit Server VM
Java Version: 1.8.0_201-heroku-b09
Operating System: Linux
OS Version: 4.4.0-1044-aws
Default Encoding: UTF-8
Language: en
Country: US
--></g></svg>