<?xml version="1.0" encoding="UTF-8" standalone="no"?><svg xmlns="http://www.w3.org/2000/svg" xmlns:xlink="http://www.w3.org/1999/xlink" contentScriptType="application/ecmascript" contentStyleType="text/css" height="685px" preserveAspectRatio="none" style="width:1269px;height:685px;background-color:white;" version="1.1" viewBox="0 0 1269 685" width="1269px" zoomAndPan="magnify"><defs><filter height="300%" id="f1c7528oz1ci8r" width="300%" x="-1" y="-1"><feGaussianBlur result="blurOut" stdDeviation="2.0"/><feColorMatrix in="blurOut" result="blurOut2" type="matrix" values="0 0 0 0 0 0 0 0 0 0 0 0 0 0 0 0 0 0 .4 0"/><feOffset dx="4.0" dy="4.0" in="blurOut2" result="blurOut3"/><feBlend in="SourceGraphic" in2="blurOut3" mode="normal"/></filter></defs><g><!--entity win--><rect fill="#F8F8F8" filter="url(#f1c7528oz1ci8r)" height="36.2969" style="stroke: #383838; stroke-width: 1.5;" width="90" x="215.5" y="8"/><text fill="#000000" font-family="sans-serif" font-size="14" lengthAdjust="spacingAndGlyphs" textLength="70" x="225.5" y="30.9951">Win Game</text><!--entity grief--><rect fill="#F8F8F8" filter="url(#f1c7528oz1ci8r)" height="36.2969" style="stroke: #383838; stroke-width: 1.5;" width="105" x="646" y="8"/><text fill="#000000" font-family="sans-serif" font-size="14" lengthAdjust="spacingAndGlyphs" textLength="85" x="656" y="30.9951">Grief Players</text><!--entity fame--><rect fill="#F8F8F8" filter="url(#f1c7528oz1ci8r)" height="36.2969" style="stroke: #383838; stroke-width: 1.5;" width="93" x="1030" y="8"/><text fill="#000000" font-family="sans-serif" font-size="14" lengthAdjust="spacingAndGlyphs" textLength="73" x="1040" y="30.9951">Gain Fame</text><!--entity gitgud--><rect fill="#F8F8F8" filter="url(#f1c7528oz1ci8r)" height="36.2969" style="stroke: #383838; stroke-width: 1.5;" width="68" x="52.5" y="104"/><text fill="#000000" font-family="sans-serif" font-size="14" lengthAdjust="spacingAndGlyphs" textLength="48" x="62.5" y="126.9951">git gud</text><!--entity nope--><path d="M15.3159,208.7455 C19.1383,202.4782 23.0828,201.0197 28.751,206.6635 C34.0362,200.0078 41.4048,199.79 44.7435,208.6676 C51.3618,213.5959 53.6,218.0621 45.7039,223.9052 C53.6877,229.8178 51.9447,235.8464 44.1445,240.2534 C40.1273,248.122 35.6939,249.4268 29.364,242.5756 C22.4759,248.2144 18.2592,246.91 15.4811,238.511 C7.0917,236.5497 6.3181,230.0273 11.9554,224.529 C5.488,217.5864 6.3779,212.408 15.3159,208.7455 " fill="#F8F8F8" style="stroke: #000000; stroke-width: 1.5;"/><text fill="#000000" font-family="sans-serif" font-size="14" font-weight="bold" lengthAdjust="spacingAndGlyphs" textLength="15" x="21" y="227.9951">...</text><!--entity cheat--><rect fill="#F8F8F8" filter="url(#f1c7528oz1ci8r)" height="36.2969" style="stroke: #383838; stroke-width: 1.5;" width="100" x="210.5" y="104"/><text fill="#000000" font-family="sans-serif" font-size="14" lengthAdjust="spacingAndGlyphs" textLength="80" x="220.5" y="126.9951">Local Cheat</text><!--entity speedhack--><rect fill="#F8F8F8" filter="url(#f1c7528oz1ci8r)" height="36.2969" style="stroke: #383838; stroke-width: 1.5;" width="103" x="86" y="205"/><text fill="#000000" font-family="sans-serif" font-size="14" lengthAdjust="spacingAndGlyphs" textLength="83" x="96" y="227.9951">Speed Hack</text><!--entity noclip--><rect fill="#F8F8F8" filter="url(#f1c7528oz1ci8r)" height="36.2969" style="stroke: #383838; stroke-width: 1.5;" width="68" x="224.5" y="205"/><text fill="#000000" font-family="sans-serif" font-size="14" lengthAdjust="spacingAndGlyphs" textLength="48" x="234.5" y="227.9951">No Clip</text><!--entity wallhack--><rect fill="#F8F8F8" filter="url(#f1c7528oz1ci8r)" height="36.2969" style="stroke: #383838; stroke-width: 1.5;" width="85" x="328" y="205"/><text fill="#000000" font-family="sans-serif" font-size="14" lengthAdjust="spacingAndGlyphs" textLength="65" x="338" y="227.9951">Wall Hack</text><!--entity aimbot--><rect fill="#F8F8F8" filter="url(#f1c7528oz1ci8r)" height="36.2969" style="stroke: #383838; stroke-width: 1.5;" width="73" x="448" y="205"/><text fill="#000000" font-family="sans-serif" font-size="14" lengthAdjust="spacingAndGlyphs" textLength="53" x="458" y="227.9951">Aim Bot</text><!--entity input--><rect fill="#F8F8F8" filter="url(#f1c7528oz1ci8r)" height="52.5938" style="stroke: #383838; stroke-width: 1.5;" width="153" x="84" y="308.5"/><text fill="#000000" font-family="sans-serif" font-size="14" lengthAdjust="spacingAndGlyphs" textLength="133" x="94" y="331.4951">Abuse client/server</text><text fill="#000000" font-family="sans-serif" font-size="14" lengthAdjust="spacingAndGlyphs" textLength="41" x="140" y="347.792">INPUT</text><!--entity output--><rect fill="#F8F8F8" filter="url(#f1c7528oz1ci8r)" height="52.5938" style="stroke: #383838; stroke-width: 1.5;" width="153" x="294" y="308.5"/><text fill="#000000" font-family="sans-serif" font-size="14" lengthAdjust="spacingAndGlyphs" textLength="133" x="304" y="331.4951">Abuse client/server</text><text fill="#000000" font-family="sans-serif" font-size="14" lengthAdjust="spacingAndGlyphs" textLength="58" x="341.5" y="347.792">OUTPUT</text><!--entity spymem--><rect fill="#F8F8F8" filter="url(#f1c7528oz1ci8r)" height="36.2969" style="stroke: #383838; stroke-width: 1.5;" width="104" x="247.5" y="435"/><text fill="#000000" font-family="sans-serif" font-size="14" lengthAdjust="spacingAndGlyphs" textLength="84" x="257.5" y="457.9951">Spy Memory</text><!--entity hookdll--><rect fill="#F8F8F8" filter="url(#f1c7528oz1ci8r)" height="36.2969" style="stroke: #383838; stroke-width: 1.5;" width="85" x="257" y="542"/><text fill="#000000" font-family="sans-serif" font-size="14" lengthAdjust="spacingAndGlyphs" textLength="65" x="267" y="564.9951">Hook DLL</text><!--entity windows--><rect fill="#F8F8F8" filter="url(#f1c7528oz1ci8r)" height="36.2969" style="stroke: #383838; stroke-width: 1.5;" width="179" x="121" y="638"/><text fill="#000000" font-family="sans-serif" font-size="14" lengthAdjust="spacingAndGlyphs" textLength="159" x="131" y="660.9951">Windows OS limitations</text><!--entity dllinjection--><rect fill="#F8F8F8" filter="url(#f1c7528oz1ci8r)" height="36.2969" style="stroke: #383838; stroke-width: 1.5;" width="107" x="335" y="638"/><text fill="#000000" font-family="sans-serif" font-size="14" lengthAdjust="spacingAndGlyphs" textLength="87" x="345" y="660.9951">DLL Injection</text><!--entity network--><rect fill="#F8F8F8" filter="url(#f1c7528oz1ci8r)" height="36.2969" style="stroke: #383838; stroke-width: 1.5;" width="110" x="386.5" y="435"/><text fill="#000000" font-family="sans-serif" font-size="14" lengthAdjust="spacingAndGlyphs" textLength="90" x="396.5" y="457.9951">Network Sniff</text><!--entity discon--><rect fill="#F8F8F8" filter="url(#f1c7528oz1ci8r)" height="36.2969" style="stroke: #383838; stroke-width: 1.5;" width="193" x="356" y="104"/><text fill="#000000" font-family="sans-serif" font-size="14" lengthAdjust="spacingAndGlyphs" textLength="173" x="366" y="126.9951">Disconnect other players</text><!--entity progress--><rect fill="#F8F8F8" filter="url(#f1c7528oz1ci8r)" height="36.2969" style="stroke: #383838; stroke-width: 1.5;" width="219" x="589" y="104"/><text fill="#000000" font-family="sans-serif" font-size="14" lengthAdjust="spacingAndGlyphs" textLength="199" x="599" y="126.9951">Mess with game progression</text><!--entity ranking--><rect fill="#F8F8F8" filter="url(#f1c7528oz1ci8r)" height="36.2969" style="stroke: #383838; stroke-width: 1.5;" width="114" x="515.5" y="317"/><text fill="#000000" font-family="sans-serif" font-size="14" lengthAdjust="spacingAndGlyphs" textLength="94" x="525.5" y="339.9951">Hack Ranking</text><!--entity equip--><rect fill="#F8F8F8" filter="url(#f1c7528oz1ci8r)" height="36.2969" style="stroke: #383838; stroke-width: 1.5;" width="184" x="664.5" y="317"/><text fill="#000000" font-family="sans-serif" font-size="14" lengthAdjust="spacingAndGlyphs" textLength="164" x="674.5" y="339.9951">Hack Equipement/Skins</text><!--entity deleteaccount--><rect fill="#F8F8F8" filter="url(#f1c7528oz1ci8r)" height="36.2969" style="stroke: #383838; stroke-width: 1.5;" width="127" x="845" y="104"/><text fill="#000000" font-family="sans-serif" font-size="14" lengthAdjust="spacingAndGlyphs" textLength="107" x="855" y="126.9951">Delete Account</text><!--entity hackwwwmods--><rect fill="#F8F8F8" filter="url(#f1c7528oz1ci8r)" height="36.2969" style="stroke: #383838; stroke-width: 1.5;" width="196" x="810.5" y="205"/><text fill="#000000" font-family="sans-serif" font-size="14" lengthAdjust="spacingAndGlyphs" textLength="176" x="820.5" y="227.9951">Hack Moderation Website</text><!--entity and--><ellipse cx="910.5" cy="335" fill="#F8F8F8" filter="url(#f1c7528oz1ci8r)" rx="8" ry="8" style="stroke: #383838; stroke-width: 2.0;"/><text fill="#000000" font-family="sans-serif" font-size="14" lengthAdjust="spacingAndGlyphs" textLength="26" x="897.5" y="364.9951">and</text><!--entity gaincorp--><rect fill="#F8F8F8" filter="url(#f1c7528oz1ci8r)" height="36.2969" style="stroke: #383838; stroke-width: 1.5;" width="199" x="897" y="435"/><text fill="#000000" font-family="sans-serif" font-size="14" lengthAdjust="spacingAndGlyphs" textLength="179" x="907" y="457.9951">Gain corp network access</text><!--entity steallogin--><rect fill="#F8F8F8" filter="url(#f1c7528oz1ci8r)" height="36.2969" style="stroke: #383838; stroke-width: 1.5;" width="177" x="645" y="542"/><text fill="#000000" font-family="sans-serif" font-size="14" lengthAdjust="spacingAndGlyphs" textLength="157" x="655" y="564.9951">Steal Login Credentials</text><!--entity exploitserver--><rect fill="#F8F8F8" filter="url(#f1c7528oz1ci8r)" height="36.2969" style="stroke: #383838; stroke-width: 1.5;" width="173" x="857" y="542"/><text fill="#000000" font-family="sans-serif" font-size="14" lengthAdjust="spacingAndGlyphs" textLength="153" x="867" y="564.9951">Exploit Website Server</text><!--entity or--><ellipse cx="834.5" cy="453" fill="#F8F8F8" filter="url(#f1c7528oz1ci8r)" rx="8" ry="8" style="stroke: #383838; stroke-width: 2.0;"/><text fill="#000000" font-family="sans-serif" font-size="14" lengthAdjust="spacingAndGlyphs" textLength="14" x="827.5" y="482.9951">or</text><!--entity gainaccessdb--><rect fill="#F8F8F8" filter="url(#f1c7528oz1ci8r)" height="36.2969" style="stroke: #383838; stroke-width: 1.5;" width="148" x="1041.5" y="205"/><text fill="#000000" font-family="sans-serif" font-size="14" lengthAdjust="spacingAndGlyphs" textLength="128" x="1051.5" y="227.9951">Gain Access to DB</text><!--entity hackapirest--><rect fill="#F8F8F8" filter="url(#f1c7528oz1ci8r)" height="36.2969" style="stroke: #383838; stroke-width: 1.5;" width="120" x="1131.5" y="435"/><text fill="#000000" font-family="sans-serif" font-size="14" lengthAdjust="spacingAndGlyphs" textLength="100" x="1141.5" y="457.9951">Hack API REST</text><!--entity and2--><ellipse cx="1115.5" cy="335" fill="#F8F8F8" filter="url(#f1c7528oz1ci8r)" rx="8" ry="8" style="stroke: #383838; stroke-width: 2.0;"/><text fill="#000000" font-family="sans-serif" font-size="14" lengthAdjust="spacingAndGlyphs" textLength="26" x="1102.5" y="364.9951">and</text><!--entity rce--><rect fill="#F8F8F8" filter="url(#f1c7528oz1ci8r)" height="36.2969" style="stroke: #383838; stroke-width: 1.5;" width="49" x="1124" y="542"/><text fill="#000000" font-family="sans-serif" font-size="14" lengthAdjust="spacingAndGlyphs" textLength="29" x="1134" y="564.9951">RCE</text><!--entity sqli--><rect fill="#F8F8F8" filter="url(#f1c7528oz1ci8r)" height="36.2969" style="stroke: #383838; stroke-width: 1.5;" width="50" x="1208.5" y="542"/><text fill="#000000" font-family="sans-serif" font-size="14" lengthAdjust="spacingAndGlyphs" textLength="30" x="1218.5" y="564.9951">SQLi</text><!--entity hackscore--><rect fill="#F8F8F8" filter="url(#f1c7528oz1ci8r)" height="36.2969" style="stroke: #383838; stroke-width: 1.5;" width="138" x="1007.5" y="104"/><text fill="#000000" font-family="sans-serif" font-size="14" lengthAdjust="spacingAndGlyphs" textLength="118" x="1017.5" y="126.9951">Hack Scoreboard</text><!--link win to gitgud--><path d="M223.3133,46.5168 C192.4524,63.5435 148.9796,87.5285 119.3767,103.8612 " fill="none" id="win-gitgud" style="stroke: #383838; stroke-width: 1.0;"/><polygon fill="#383838" points="227.7719,44.0569,217.9594,44.9023,223.394,46.4723,221.824,51.9069,227.7719,44.0569" style="stroke: #383838; stroke-width: 1.0;"/><!--link gitgud to nope--><path d="M73.5622,144.5295 C64.1247,160.9639 51.372,183.1712 41.8416,199.7672 " fill="none" id="gitgud-nope" style="stroke: #383838; stroke-width: 1.0;"/><polygon fill="#383838" points="76.1308,140.0568,68.1802,145.8695,73.6408,144.3927,75.1176,149.8534,76.1308,140.0568" style="stroke: #383838; stroke-width: 1.0;"/><!--link win to cheat--><path d="M260.5,49.0611 C260.5,65.8106 260.5,88.1694 260.5,103.6977 " fill="none" id="win-cheat" style="stroke: #383838; stroke-width: 1.0;"/><polygon fill="#383838" points="260.5,44.0569,256.5,53.0569,260.5,49.0569,264.5,53.0569,260.5,44.0569" style="stroke: #383838; stroke-width: 1.0;"/><!--link cheat to speedhack--><path d="M234.4805,143.3656 C212.2911,161.5862 180.736,187.4972 159.7143,204.759 " fill="none" id="cheat-speedhack" style="stroke: #383838; stroke-width: 1.0;"/><polygon fill="#383838" points="238.5101,140.0568,229.0162,142.6769,234.6459,143.2298,234.093,148.8596,238.5101,140.0568" style="stroke: #383838; stroke-width: 1.0;"/><!--link cheat to noclip--><path d="M260.0359,145.4383 C259.678,163.5094 259.1903,188.1419 258.8612,204.759 " fill="none" id="cheat-noclip" style="stroke: #383838; stroke-width: 1.0;"/><polygon fill="#383838" points="260.1424,140.0568,255.9647,148.9757,260.0433,145.0558,263.9632,149.1343,260.1424,140.0568" style="stroke: #383838; stroke-width: 1.0;"/><!--link cheat to wallhack--><path d="M284.017,143.5928 C303.8477,161.8011 331.9116,187.5689 350.6336,204.759 " fill="none" id="cheat-wallhack" style="stroke: #383838; stroke-width: 1.0;"/><polygon fill="#383838" points="280.1658,140.0568,284.0898,149.0902,283.8488,143.4385,289.5005,143.1975,280.1658,140.0568" style="stroke: #383838; stroke-width: 1.0;"/><!--link cheat to aimbot--><path d="M305.2912,142.196 C347.1122,161.0528 408.7726,188.8551 447.7696,206.4385 " fill="none" id="cheat-aimbot" style="stroke: #383838; stroke-width: 1.0;"/><polygon fill="#383838" points="300.5467,140.0568,307.1072,147.4025,305.1048,142.1119,310.3954,140.1095,300.5467,140.0568" style="stroke: #383838; stroke-width: 1.0;"/><!--link speedhack to input--><path d="M142.3956,246.8393 C146.0833,264.7971 151.1418,289.4295 154.9745,308.0931 " fill="none" id="speedhack-input" style="stroke: #383838; stroke-width: 1.0;"/><polygon fill="#383838" points="141.298,241.4945,139.1903,251.1152,142.3038,246.3923,147.0267,249.5058,141.298,241.4945" style="stroke: #383838; stroke-width: 1.0;"/><!--link noclip to input--><path d="M238.8478,245.4597 C223.0459,263.519 200.7965,288.9468 184.0436,308.0931 " fill="none" id="noclip-input" style="stroke: #383838; stroke-width: 1.0;"/><polygon fill="#383838" points="242.3173,241.4945,233.3805,245.6337,239.0248,245.2574,239.4011,250.9017,242.3173,241.4945" style="stroke: #383838; stroke-width: 1.0;"/><!--link wallhack to output--><path d="M370.5,246.8393 C370.5,264.7971 370.5,289.4295 370.5,308.0931 " fill="none" id="wallhack-output" style="stroke: #383838; stroke-width: 1.0;"/><polygon fill="#383838" points="370.5,241.4945,366.5,250.4945,370.5,246.4945,374.5,250.4945,370.5,241.4945" style="stroke: #383838; stroke-width: 1.0;"/><!--link output to spymem--><path d="M351.6486,366.3305 C338.5096,388.1672 321.4371,416.5411 310.4721,434.7646 " fill="none" id="output-spymem" style="stroke: #383838; stroke-width: 1.0;"/><polygon fill="#383838" points="354.389,361.776,346.3215,367.4254,351.8112,366.0602,353.1763,371.5499,354.389,361.776" style="stroke: #383838; stroke-width: 1.0;"/><!--link spymem to hookdll--><path d="M299.5,476.2136 C299.5,495.872 299.5,523.666 299.5,541.7599 " fill="none" id="spymem-hookdll" style="stroke: #383838; stroke-width: 1.0;"/><polygon fill="#383838" points="299.5,471.1511,295.5,480.1511,299.5,476.1511,303.5,480.1511,299.5,471.1511" style="stroke: #383838; stroke-width: 1.0;"/><!--link hookdll to windows--><path d="M279.3146,581.7731 C263.6687,598.6495 242.2361,621.7678 227.4678,637.6977 " fill="none" id="hookdll-windows" style="stroke: #383838; stroke-width: 1.0;"/><polygon fill="#383838" points="282.7598,578.0569,273.7076,581.9374,279.3604,581.7235,279.5743,587.3764,282.7598,578.0569" style="stroke: #383838; stroke-width: 1.0;"/><!--link hookdll to dllinjection--><path d="M319.6854,581.7731 C335.3313,598.6495 356.7639,621.7678 371.5322,637.6977 " fill="none" id="hookdll-dllinjection" style="stroke: #383838; stroke-width: 1.0;"/><polygon fill="#383838" points="316.2402,578.0569,319.4257,587.3764,319.6396,581.7235,325.2924,581.9374,316.2402,578.0569" style="stroke: #383838; stroke-width: 1.0;"/><!--link output to network--><path d="M389.3514,366.3305 C402.4904,388.1672 419.5629,416.5411 430.5279,434.7646 " fill="none" id="output-network" style="stroke: #383838; stroke-width: 1.0;"/><polygon fill="#383838" points="386.611,361.776,387.8237,371.5499,389.1888,366.0602,394.6785,367.4254,386.611,361.776" style="stroke: #383838; stroke-width: 1.0;"/><!--link win to discon--><path d="M301.1156,46.3078 C335.1936,63.3468 383.4231,87.4616 416.2223,103.8612 " fill="none" id="win-discon" style="stroke: #383838; stroke-width: 1.0;"/><polygon fill="#383838" points="296.6137,44.0569,302.8746,51.6596,301.0858,46.293,306.4524,44.5042,296.6137,44.0569" style="stroke: #383838; stroke-width: 1.0;"/><!--link grief to discon--><path d="M647.5269,45.8919 C603.809,62.9526 541.3478,87.3277 498.9808,103.8612 " fill="none" id="grief-discon" style="stroke: #383838; stroke-width: 1.0;"/><polygon fill="#383838" points="652.2293,44.0569,642.3909,43.6025,647.5714,45.8746,645.2993,51.0551,652.2293,44.0569" style="stroke: #383838; stroke-width: 1.0;"/><!--link grief to progress--><path d="M698.5,49.0611 C698.5,65.8106 698.5,88.1694 698.5,103.6977 " fill="none" id="grief-progress" style="stroke: #383838; stroke-width: 1.0;"/><polygon fill="#383838" points="698.5,44.0569,694.5,53.0569,698.5,49.0569,702.5,53.0569,698.5,44.0569" style="stroke: #383838; stroke-width: 1.0;"/><!--link progress to ranking--><path d="M685.1266,144.6074 C659.9886,187.1026 606.1592,278.1 583.2155,316.8857 " fill="none" id="progress-ranking" style="stroke: #383838; stroke-width: 1.0;"/><polygon fill="#383838" points="687.7573,140.1603,679.7323,145.8699,685.2116,144.4637,686.6178,149.943,687.7573,140.1603" style="stroke: #383838; stroke-width: 1.0;"/><!--link progress to equip--><path d="M704.7972,145.1259 C716.4279,187.8386 741.0489,278.257 751.5675,316.8857 " fill="none" id="progress-equip" style="stroke: #383838; stroke-width: 1.0;"/><polygon fill="#383838" points="703.445,140.1603,701.9502,149.8951,704.7587,144.9846,709.6692,147.7931,703.445,140.1603" style="stroke: #383838; stroke-width: 1.0;"/><!--link grief to deleteaccount--><path d="M742.9233,46.3078 C780.1961,63.3468 832.9472,87.4616 868.8213,103.8612 " fill="none" id="grief-deleteaccount" style="stroke: #383838; stroke-width: 1.0;"/><polygon fill="#383838" points="737.9994,44.0569,744.5216,51.4367,742.5468,46.1357,747.8477,44.1609,737.9994,44.0569" style="stroke: #383838; stroke-width: 1.0;"/><!--link deleteaccount to hackwwwmods--><path d="M908.5,145.4383 C908.5,163.5094 908.5,188.1419 908.5,204.759 " fill="none" id="deleteaccount-hackwwwmods" style="stroke: #383838; stroke-width: 1.0;"/><polygon fill="#383838" points="908.5,140.0568,904.5,149.0568,908.5,145.0568,912.5,149.0568,908.5,140.0568" style="stroke: #383838; stroke-width: 1.0;"/><!--link hackwwwmods to and--><path d="M908.9203,246.5393 C909.3597,271.1446 910.0271,308.5197 910.3345,325.7303 " fill="none" id="hackwwwmods-and" style="stroke: #383838; stroke-width: 1.0;"/><polygon fill="#383838" points="908.8303,241.4945,904.9919,250.5646,908.9197,246.4937,912.9906,250.4215,908.8303,241.4945" style="stroke: #383838; stroke-width: 1.0;"/><!--link and to gaincorp--><path d="M920.3129,348.4642 C935.7561,369.6537 965.7596,410.8213 983.151,434.6839 " fill="none" id="and-gaincorp" style="stroke: #383838; stroke-width: 1.0;"/><polygon fill="#383838" points="917.2483,344.2593,919.3165,353.8886,920.1932,348.3001,925.7817,349.1767,917.2483,344.2593" style="stroke: #383838; stroke-width: 1.0;"/><!--link and to or--><path d="M901.8262,348.4672 C886.218,372.701 853.7841,423.0588 840.4359,443.7838 " fill="none" id="and-or" style="stroke: #383838; stroke-width: 1.0;"/><polygon fill="#383838" points="904.5364,344.2593,896.3002,349.6598,901.829,348.4629,903.0259,353.9916,904.5364,344.2593" style="stroke: #383838; stroke-width: 1.0;"/><!--link or to steallogin--><path d="M822.1008,466.1357 C804.1982,485.1019 771.0383,520.2317 750.7549,541.72 " fill="none" id="or-steallogin" style="stroke: #383838; stroke-width: 1.0;"/><polygon fill="#383838" points="825.8888,462.1228,816.8022,465.9221,822.4567,465.7589,822.6199,471.4134,825.8888,462.1228" style="stroke: #383838; stroke-width: 1.0;"/><!--link or to exploitserver--><path d="M847.3977,465.661 C866.5995,484.5105 902.8044,520.0511 924.8783,541.72 " fill="none" id="or-exploitserver" style="stroke: #383838; stroke-width: 1.0;"/><polygon fill="#383838" points="843.7933,462.1228,847.4137,471.2821,847.3614,465.6255,853.018,465.5731,843.7933,462.1228" style="stroke: #383838; stroke-width: 1.0;"/><!--link deleteaccount to gainaccessdb--><path d="M950.4584,142.4725 C988.001,160.7903 1042.5072,187.3852 1078.4646,204.9296 " fill="none" id="deleteaccount-gainaccessdb" style="stroke: #383838; stroke-width: 1.0;"/><polygon fill="#383838" points="945.5075,140.0568,951.8419,147.5984,950.0011,142.2494,955.3501,140.4086,945.5075,140.0568" style="stroke: #383838; stroke-width: 1.0;"/><!--link and2 to gaincorp--><path d="M1102.4539,347.9365 C1081.2486,368.9635 1039.2375,410.6217 1014.9713,434.6839 " fill="none" id="and2-gaincorp" style="stroke: #383838; stroke-width: 1.0;"/><polygon fill="#383838" points="1106.1623,344.2593,1096.9551,347.756,1102.6119,347.7799,1102.588,353.4367,1106.1623,344.2593" style="stroke: #383838; stroke-width: 1.0;"/><!--link gainaccessdb to and2--><path d="M1115.5,246.5393 C1115.5,271.1446 1115.5,308.5197 1115.5,325.7303 " fill="none" id="gainaccessdb-and2" style="stroke: #383838; stroke-width: 1.0;"/><polygon fill="#383838" points="1115.5,241.4945,1111.5,250.4945,1115.5,246.4945,1119.5,250.4945,1115.5,241.4945" style="stroke: #383838; stroke-width: 1.0;"/><!--link and2 to hackapirest--><path d="M1124.1719,348.4642 C1137.8194,369.6537 1164.3341,410.8213 1179.7032,434.6839 " fill="none" id="and2-hackapirest" style="stroke: #383838; stroke-width: 1.0;"/><polygon fill="#383838" points="1121.4636,344.2593,1122.9741,353.9916,1124.171,348.4629,1129.6998,349.6598,1121.4636,344.2593" style="stroke: #383838; stroke-width: 1.0;"/><!--link hackapirest to rce--><path d="M1182.2719,475.9631 C1174.3662,495.6353 1163.1324,523.589 1155.8301,541.7599 " fill="none" id="hackapirest-rce" style="stroke: #383838; stroke-width: 1.0;"/><polygon fill="#383838" points="1184.2056,471.1511,1177.1379,478.0102,1182.341,475.7904,1184.5608,480.9936,1184.2056,471.1511" style="stroke: #383838; stroke-width: 1.0;"/><!--link hackapirest to sqli--><path d="M1200.5135,475.9631 C1208.2353,495.6353 1219.2078,523.589 1226.3403,541.7599 " fill="none" id="hackapirest-sqli" style="stroke: #383838; stroke-width: 1.0;"/><polygon fill="#383838" points="1198.6247,471.1511,1198.1899,480.9904,1200.4517,475.8054,1205.6367,478.0672,1198.6247,471.1511" style="stroke: #383838; stroke-width: 1.0;"/><!--link fame to hackscore--><path d="M1076.5,49.0611 C1076.5,65.8106 1076.5,88.1694 1076.5,103.6977 " fill="none" id="fame-hackscore" style="stroke: #383838; stroke-width: 1.0;"/><polygon fill="#383838" points="1076.5,44.0569,1072.5,53.0569,1076.5,49.0569,1080.5,53.0569,1076.5,44.0569" style="stroke: #383838; stroke-width: 1.0;"/><!--
@startuml
skinparam monochrome true
skinparam defaultTextAlignment center

agent "Win Game" as win
agent "Grief Players" as grief
agent "Gain Fame" as fame

agent "git gud" as gitgud
win <- - gitgud
cloud "**...**" as nope
gitgud <- - nope

agent "Local Cheat" as cheat
win <- - cheat
agent "Speed Hack" as speedhack
agent "No Clip" as noclip
agent "Wall Hack" as wallhack
agent "Aim Bot" as aimbot
cheat <- - speedhack
cheat <- - noclip
cheat <- - wallhack
cheat <- - aimbot

agent "Abuse client/server\nINPUT" as input
agent "Abuse client/server\nOUTPUT" as output
speedhack <- - input
noclip <- - input
wallhack <- - output
agent "Spy Memory" as spymem
output <- - spymem
agent "Hook DLL" as hookdll
spymem <- - hookdll
agent "Windows OS limitations" as windows
agent "DLL Injection" as dllinjection 
hookdll <- - windows
hookdll <- - dllinjection
agent "Network Sniff" as network
output <- - network

agent "Disconnect other players" as discon
win <- - discon
grief <- - discon

agent "Mess with game progression" as progress
grief <- - progress
agent "Hack Ranking" as ranking
progress <- - - ranking
agent "Hack Equipement/Skins" as equip
progress <- - - equip

agent "Delete Account" as deleteaccount
grief <- - deleteaccount

agent "Hack Moderation Website" as hackwwwmods
deleteaccount <- - hackwwwmods
interface "and" as and
agent "Gain corp network access" as gaincorp
hackwwwmods <- - and
agent "Steal Login Credentials" as steallogin
agent "Exploit Website Server" as exploitserver
and <- - gaincorp
interface "or" as or
and <- - or
or <- - steallogin
or <- - exploitserver

agent "Gain Access to DB" as gainaccessdb
deleteaccount <- - gainaccessdb
agent "Hack API REST" as hackapirest
interface "and" as and2
and2 <- - gaincorp
gainaccessdb <- - and2
and2 <- -  hackapirest
agent "RCE" as rce
agent "SQLi" as sqli
hackapirest <- - rce
hackapirest <- - sqli

agent "Hack Scoreboard" as hackscore
fame <- - hackscore
@enduml

PlantUML version 1.2019.04(Fri Mar 29 15:44:36 UTC 2019)
(GPL source distribution)
Java Runtime: OpenJDK Runtime Environment
JVM: OpenJDK 64-Bit Server VM
Java Version: 1.8.0_201-heroku-b09
Operating System: Linux
OS Version: 4.4.0-1044-aws
Default Encoding: UTF-8
Language: en
Country: US
--></g></svg>