<?xml version="1.0" encoding="UTF-8" standalone="no"?><svg xmlns="http://www.w3.org/2000/svg" xmlns:xlink="http://www.w3.org/1999/xlink" contentScriptType="application/ecmascript" contentStyleType="text/css" height="557px" preserveAspectRatio="none" style="width:477px;height:557px;background-color:white;" version="1.1" viewBox="0 0 477 557" width="477px" zoomAndPan="magnify"><defs><filter height="300%" id="fbqyb4mpkri1h" width="300%" x="-1" y="-1"><feGaussianBlur result="blurOut" stdDeviation="2.0"/><feColorMatrix in="blurOut" result="blurOut2" type="matrix" values="0 0 0 0 0 0 0 0 0 0 0 0 0 0 0 0 0 0 .4 0"/><feOffset dx="4.0" dy="4.0" in="blurOut2" result="blurOut3"/><feBlend in="SourceGraphic" in2="blurOut3" mode="normal"/></filter></defs><g><!--entity goal--><rect fill="#F8F8F8" filter="url(#fbqyb4mpkri1h)" height="36.2969" style="stroke: #383838; stroke-width: 1.5;" width="92" x="140" y="8"/><text fill="#000000" font-family="sans-serif" font-size="14" lengthAdjust="spacingAndGlyphs" textLength="72" x="150" y="30.9951">Open Safe</text><!--entity picklock--><rect fill="#F8F8F8" filter="url(#fbqyb4mpkri1h)" height="36.2969" style="stroke: #383838; stroke-width: 1.5;" width="84" x="11" y="104"/><text fill="#000000" font-family="sans-serif" font-size="14" lengthAdjust="spacingAndGlyphs" textLength="64" x="21" y="126.9951">Pick Lock</text><!--entity learncombo--><rect fill="#F8F8F8" filter="url(#fbqyb4mpkri1h)" height="36.2969" style="stroke: #383838; stroke-width: 1.5;" width="112" x="130" y="104"/><text fill="#000000" font-family="sans-serif" font-size="14" lengthAdjust="spacingAndGlyphs" textLength="92" x="140" y="126.9951">Learn Combo</text><!--entity cutopensafe--><rect fill="#F8F8F8" filter="url(#fbqyb4mpkri1h)" height="36.2969" style="stroke: #383838; stroke-width: 1.5;" width="120" x="277" y="104"/><text fill="#000000" font-family="sans-serif" font-size="14" lengthAdjust="spacingAndGlyphs" textLength="100" x="287" y="126.9951">Cut Open Safe</text><!--entity findwritten--><rect fill="#F8F8F8" filter="url(#fbqyb4mpkri1h)" height="36.2969" style="stroke: #383838; stroke-width: 1.5;" width="156" x="6" y="200"/><text fill="#000000" font-family="sans-serif" font-size="14" lengthAdjust="spacingAndGlyphs" textLength="136" x="16" y="222.9951">Find Written Combo</text><!--entity getcombotarget--><rect fill="#F8F8F8" filter="url(#fbqyb4mpkri1h)" height="36.2969" style="stroke: #383838; stroke-width: 1.5;" width="183" x="197.5" y="200"/><text fill="#000000" font-family="sans-serif" font-size="14" lengthAdjust="spacingAndGlyphs" textLength="163" x="207.5" y="222.9951">Get Combo from Target</text><!--entity extortion--><rect fill="#F8F8F8" filter="url(#fbqyb4mpkri1h)" height="36.2969" style="stroke: #383838; stroke-width: 1.5;" width="81" x="130.5" y="296"/><text fill="#000000" font-family="sans-serif" font-size="14" lengthAdjust="spacingAndGlyphs" textLength="61" x="140.5" y="318.9951">Extortion</text><!--entity evesdrop--><rect fill="#F8F8F8" filter="url(#fbqyb4mpkri1h)" height="36.2969" style="stroke: #383838; stroke-width: 1.5;" width="85" x="246.5" y="296"/><text fill="#000000" font-family="sans-serif" font-size="14" lengthAdjust="spacingAndGlyphs" textLength="65" x="256.5" y="318.9951">Evesdrop</text><!--entity bribe--><rect fill="#F8F8F8" filter="url(#fbqyb4mpkri1h)" height="36.2969" style="stroke: #383838; stroke-width: 1.5;" width="56" x="367" y="296"/><text fill="#000000" font-family="sans-serif" font-size="14" lengthAdjust="spacingAndGlyphs" textLength="36" x="377" y="318.9951">Bribe</text><!--entity and--><ellipse cx="289" cy="421" fill="#F8F8F8" filter="url(#fbqyb4mpkri1h)" rx="8" ry="8" style="stroke: #383838; stroke-width: 2.0;"/><text fill="#000000" font-family="sans-serif" font-size="14" lengthAdjust="spacingAndGlyphs" textLength="26" x="276" y="450.9951">and</text><!--entity listenconvo--><rect fill="#F8F8F8" filter="url(#fbqyb4mpkri1h)" height="36.2969" style="stroke: #383838; stroke-width: 1.5;" width="174" x="102" y="510"/><text fill="#000000" font-family="sans-serif" font-size="14" lengthAdjust="spacingAndGlyphs" textLength="154" x="112" y="532.9951">Listen to Conversation</text><!--entity targetsayscombo--><rect fill="#F8F8F8" filter="url(#fbqyb4mpkri1h)" height="36.2969" style="stroke: #383838; stroke-width: 1.5;" width="155" x="311.5" y="510"/><text fill="#000000" font-family="sans-serif" font-size="14" lengthAdjust="spacingAndGlyphs" textLength="135" x="321.5" y="532.9951">Target Says Combo</text><!--entity another--><path d="M157.8159,406.7455 C161.6383,400.4782 165.5828,399.0197 171.251,404.6635 C176.5362,398.0078 183.9048,397.79 187.2435,406.6676 C193.8618,411.5959 196.1,416.0621 188.2039,421.9052 C196.1877,427.8178 194.4447,433.8464 186.6445,438.2534 C182.6273,446.122 178.1939,447.4268 171.864,440.5756 C164.9759,446.2144 160.7592,444.91 157.9811,436.511 C149.5917,434.5497 148.8181,428.0273 154.4554,422.529 C147.988,415.5864 148.8779,410.408 157.8159,406.7455 " fill="#F8F8F8" style="stroke: #000000; stroke-width: 1.5;"/><text fill="#000000" font-family="sans-serif" font-size="14" font-weight="bold" lengthAdjust="spacingAndGlyphs" textLength="15" x="163.5" y="425.9951">···</text><!--link goal to picklock--><path d="M160.9837,44.0569 C138.7404,60.1122 106.1871,83.6093 82.6431,100.6035 " fill="none" id="goal-picklock" style="stroke: #383838; stroke-width: 1.0;"/><polygon fill="#383838" points="78.3563,103.6977,87.9949,101.6736,82.4105,100.7713,83.3128,95.1869,78.3563,103.6977" style="stroke: #383838; stroke-width: 1.0;"/><!--link goal to learncombo--><path d="M186,44.0569 C186,59.5126 186,81.8647 186,98.6731 " fill="none" id="goal-learncombo" style="stroke: #383838; stroke-width: 1.0;"/><polygon fill="#383838" points="186,103.6977,190,94.6977,186,98.6977,182,94.6977,186,103.6977" style="stroke: #383838; stroke-width: 1.0;"/><!--link goal to cutopensafe--><path d="M214.4019,44.0569 C239.8412,60.2302 277.1583,83.955 303.9325,100.977 " fill="none" id="goal-cutopensafe" style="stroke: #383838; stroke-width: 1.0;"/><polygon fill="#383838" points="308.4691,103.8612,303.0202,95.6569,304.2497,101.1786,298.728,102.408,308.4691,103.8612" style="stroke: #383838; stroke-width: 1.0;"/><!--link learncombo to findwritten--><path d="M166.8146,140.0569 C149.9681,155.9124 125.4105,179.0255 107.4113,195.9658 " fill="none" id="learncombo-findwritten" style="stroke: #383838; stroke-width: 1.0;"/><polygon fill="#383838" points="103.4462,199.6977,112.7414,196.4422,107.0872,196.2709,107.2585,190.6166,103.4462,199.6977" style="stroke: #383838; stroke-width: 1.0;"/><!--link learncombo to getcombotarget--><path d="M205.3735,140.0569 C222.3851,155.9124 247.1836,179.0255 265.3592,195.9658 " fill="none" id="learncombo-getcombotarget" style="stroke: #383838; stroke-width: 1.0;"/><polygon fill="#383838" points="269.3632,199.6977,265.5067,190.6353,265.7056,196.2886,260.0522,196.4875,269.3632,199.6977" style="stroke: #383838; stroke-width: 1.0;"/><!--link getcombotarget to extortion--><path d="M266.8051,236.0569 C247.1523,252.0456 218.4281,275.4144 197.5604,292.3916 " fill="none" id="getcombotarget-extortion" style="stroke: #383838; stroke-width: 1.0;"/><polygon fill="#383838" points="193.4966,295.6977,203.0023,293.1206,197.3751,292.5422,197.9535,286.915,193.4966,295.6977" style="stroke: #383838; stroke-width: 1.0;"/><!--link getcombotarget to evesdrop--><path d="M289,236.0569 C289,251.5126 289,273.8647 289,290.6731 " fill="none" id="getcombotarget-evesdrop" style="stroke: #383838; stroke-width: 1.0;"/><polygon fill="#383838" points="289,295.6977,293,286.6977,289,290.6977,285,286.6977,289,295.6977" style="stroke: #383838; stroke-width: 1.0;"/><!--link getcombotarget to bribe--><path d="M308.9378,236.0569 C326.4449,251.9124 351.9656,275.0255 370.6706,291.9658 " fill="none" id="getcombotarget-bribe" style="stroke: #383838; stroke-width: 1.0;"/><polygon fill="#383838" points="374.7912,295.6977,370.8055,286.6913,371.0852,292.3413,365.4353,292.6209,374.7912,295.6977" style="stroke: #383838; stroke-width: 1.0;"/><!--link evesdrop to and--><path d="M289,332.1511 C289,353.1164 289,387.1907 289,406.48 " fill="none" id="evesdrop-and" style="stroke: #383838; stroke-width: 1.0;"/><polygon fill="#383838" points="289,411.9608,293,402.9608,289,406.9608,285,402.9608,289,411.9608" style="stroke: #383838; stroke-width: 1.0;"/><!--link and to listenconvo--><path d="M280.4741,430.1228 C264.9362,446.7483 231.6019,482.4159 209.7547,505.7924 " fill="none" id="and-listenconvo" style="stroke: #383838; stroke-width: 1.0;"/><polygon fill="#383838" points="206.0841,509.72,215.1517,505.8758,209.4981,506.067,209.3069,500.4134,206.0841,509.72" style="stroke: #383838; stroke-width: 1.0;"/><!--link and to targetsayscombo--><path d="M297.5259,430.1228 C313.0638,446.7483 346.3981,482.4159 368.2453,505.7924 " fill="none" id="and-targetsayscombo" style="stroke: #383838; stroke-width: 1.0;"/><polygon fill="#383838" points="371.9159,509.72,368.6931,500.4134,368.5019,506.067,362.8483,505.8758,371.9159,509.72" style="stroke: #383838; stroke-width: 1.0;"/><!--link extortion to another--><path d="M171,332.1511 C171,348.7192 171,373.4739 171,392.6489 " fill="none" id="extortion-another" style="stroke: #383838; stroke-width: 1.0;"/><polygon fill="#383838" points="171,397.8979,175,388.8979,171,392.8979,167,388.8979,171,397.8979" style="stroke: #383838; stroke-width: 1.0;"/><!--
@startuml
skinparam monochrome true
skinparam defaultTextAlignment center

agent "Open Safe" as goal

agent "Pick Lock" as picklock
agent "Learn Combo" as learncombo
agent "Cut Open Safe" as cutopensafe

goal - -> picklock
goal - -> learncombo
goal - -> cutopensafe

agent "Find Written Combo" as findwritten
learncombo - -> findwritten

agent "Get Combo from Target" as getcombotarget
learncombo - -> getcombotarget
agent "Extortion" as extortion
agent "Evesdrop" as evesdrop
agent "Bribe" as bribe
getcombotarget - -> extortion
getcombotarget - -> evesdrop
getcombotarget - -> bribe

interface "and" as and
evesdrop - -> and

agent "Listen to Conversation" as listenconvo
agent "Target Says Combo" as targetsayscombo
and - -> listenconvo
and - -> targetsayscombo

cloud "**···**" as another
extortion - -> another
@enduml

PlantUML version 1.2019.04(Fri Mar 29 15:44:36 UTC 2019)
(GPL source distribution)
Java Runtime: OpenJDK Runtime Environment
JVM: OpenJDK 64-Bit Server VM
Java Version: 1.8.0_201-heroku-b09
Operating System: Linux
OS Version: 4.4.0-1044-aws
Default Encoding: UTF-8
Language: en
Country: US
--></g></svg>