<?xml version="1.0" encoding="UTF-8" standalone="no"?><svg xmlns="http://www.w3.org/2000/svg" xmlns:xlink="http://www.w3.org/1999/xlink" contentScriptType="application/ecmascript" contentStyleType="text/css" height="855px" preserveAspectRatio="none" style="width:1296px;height:855px;background-color:white;" version="1.1" viewBox="0 0 1296 855" width="1296px" zoomAndPan="magnify"><defs><filter height="300%" id="fo5a8d7207iu" width="300%" x="-1" y="-1"><feGaussianBlur result="blurOut" stdDeviation="2.0"/><feColorMatrix in="blurOut" result="blurOut2" type="matrix" values="0 0 0 0 0 0 0 0 0 0 0 0 0 0 0 0 0 0 .4 0"/><feOffset dx="4.0" dy="4.0" in="blurOut2" result="blurOut3"/><feBlend in="SourceGraphic" in2="blurOut3" mode="normal"/></filter></defs><g><!--entity goalsteal--><rect fill="#F8F8F8" filter="url(#fo5a8d7207iu)" height="36.2969" style="stroke: #383838; stroke-width: 1.5;" width="81" x="431.5" y="104"/><text fill="#000000" font-family="sans-serif" font-size="14" lengthAdjust="spacingAndGlyphs" textLength="61" x="441.5" y="126.9951">Steal Car</text><!--entity goaldisrupt--><rect fill="#F8F8F8" filter="url(#fo5a8d7207iu)" height="36.2969" style="stroke: #383838; stroke-width: 1.5;" width="215" x="594.5" y="8"/><text fill="#000000" font-family="sans-serif" font-size="14" lengthAdjust="spacingAndGlyphs" textLength="195" x="604.5" y="30.9951">Disrupt business operations</text><!--entity goaldos--><rect fill="#F8F8F8" filter="url(#fo5a8d7207iu)" height="36.2969" style="stroke: #383838; stroke-width: 1.5;" width="161" x="703.5" y="104"/><text fill="#000000" font-family="sans-serif" font-size="14" lengthAdjust="spacingAndGlyphs" textLength="141" x="713.5" y="126.9951">Make car unrentable</text><!--entity goalrentall--><rect fill="#F8F8F8" filter="url(#fo5a8d7207iu)" height="36.2969" style="stroke: #383838; stroke-width: 1.5;" width="96" x="572" y="104"/><text fill="#000000" font-family="sans-serif" font-size="14" lengthAdjust="spacingAndGlyphs" textLength="76" x="582" y="126.9951">Rent all car</text><!--entity dosrentals--><rect fill="#F8F8F8" filter="url(#fo5a8d7207iu)" height="36.2969" style="stroke: #383838; stroke-width: 1.5;" width="125" x="721.5" y="211"/><text fill="#000000" font-family="sans-serif" font-size="14" lengthAdjust="spacingAndGlyphs" textLength="105" x="731.5" y="233.9951">DoS car rentals</text><!--entity breakcars--><rect fill="#F8F8F8" filter="url(#fo5a8d7207iu)" height="36.2969" style="stroke: #383838; stroke-width: 1.5;" width="95" x="635.5" y="323"/><text fill="#000000" font-family="sans-serif" font-size="14" lengthAdjust="spacingAndGlyphs" textLength="75" x="645.5" y="345.9951">Break Cars</text><!--entity dosapi--><rect fill="#F8F8F8" filter="url(#fo5a8d7207iu)" height="36.2969" style="stroke: #383838; stroke-width: 1.5;" width="137" x="684.5" y="424"/><text fill="#000000" font-family="sans-serif" font-size="14" lengthAdjust="spacingAndGlyphs" textLength="117" x="694.5" y="446.9951">DoS API Gateway</text><!--entity messmobile--><rect fill="#F8F8F8" filter="url(#fo5a8d7207iu)" height="36.2969" style="stroke: #383838; stroke-width: 1.5;" width="169" x="842.5" y="323"/><text fill="#000000" font-family="sans-serif" font-size="14" lengthAdjust="spacingAndGlyphs" textLength="149" x="852.5" y="345.9951">Mess with mobile app</text><!--entity crashmobile--><rect fill="#F8F8F8" filter="url(#fo5a8d7207iu)" height="36.2969" style="stroke: #383838; stroke-width: 1.5;" width="140" x="857" y="424"/><text fill="#000000" font-family="sans-serif" font-size="14" lengthAdjust="spacingAndGlyphs" textLength="120" x="867" y="446.9951">Crash Mobile App</text><!--entity removestore--><rect fill="#F8F8F8" filter="url(#fo5a8d7207iu)" height="36.2969" style="stroke: #383838; stroke-width: 1.5;" width="253" x="1032.5" y="424"/><text fill="#000000" font-family="sans-serif" font-size="14" lengthAdjust="spacingAndGlyphs" textLength="233" x="1042.5" y="446.9951">Get App Removed from App Store</text><!--entity ddosreq--><rect fill="#F8F8F8" filter="url(#fo5a8d7207iu)" height="36.2969" style="stroke: #383838; stroke-width: 1.5;" width="199" x="653.5" y="520"/><text fill="#000000" font-family="sans-serif" font-size="14" lengthAdjust="spacingAndGlyphs" textLength="179" x="663.5" y="542.9951">DDoS with many requests</text><!--entity screwcerts--><rect fill="#F8F8F8" filter="url(#fo5a8d7207iu)" height="36.2969" style="stroke: #383838; stroke-width: 1.5;" width="141" x="887.5" y="520"/><text fill="#000000" font-family="sans-serif" font-size="14" lengthAdjust="spacingAndGlyphs" textLength="121" x="897.5" y="542.9951">Screw certificates</text><!--entity gainsysaccess--><rect fill="#F8F8F8" filter="url(#fo5a8d7207iu)" height="36.2969" style="stroke: #383838; stroke-width: 1.5;" width="177" x="441.5" y="520"/><text fill="#000000" font-family="sans-serif" font-size="14" lengthAdjust="spacingAndGlyphs" textLength="157" x="451.5" y="542.9951">Gain Access to system</text><!--entity stealadmincreds--><rect fill="#F8F8F8" filter="url(#fo5a8d7207iu)" height="36.2969" style="stroke: #383838; stroke-width: 1.5;" width="180" x="440" y="616"/><text fill="#000000" font-family="sans-serif" font-size="14" lengthAdjust="spacingAndGlyphs" textLength="160" x="450" y="638.9951">Steal admin credentials</text><!--entity detailsadminscred--><rect fill="#F8F8F8" filter="url(#fo5a8d7207iu)" height="36.2969" style="stroke: #383838; stroke-width: 1.5;" width="62" x="499" y="712"/><text fill="#000000" font-family="sans-serif" font-size="14" lengthAdjust="spacingAndGlyphs" textLength="42" x="509" y="734.9951">(todo)</text><!--entity sfstyle--><rect fill="#F8F8F8" filter="url(#fo5a8d7207iu)" height="36.2969" style="stroke: #383838; stroke-width: 1.5;" width="74" x="501" y="211"/><text fill="#000000" font-family="sans-serif" font-size="14" lengthAdjust="spacingAndGlyphs" textLength="54" x="511" y="233.9951">SF Style</text><!--entity cloud1--><path d="M523.2468,326.3142 C526.4552,320.5868 530.5679,320.5708 534.9387,324.9724 C537.6076,319.4278 542.746,320.2279 545.4094,324.9779 C548.919,321.1481 553.1222,321.8038 555.417,326.4177 C560.3729,320.1434 564.5385,320.8724 568.1145,327.7499 C574.3787,330.4867 576.2186,336.834 570.1071,341.38 C576.4107,347.298 575.8272,355.8746 566.1644,358.0066 C564.0851,364.147 559.3171,364.681 555.1816,360.116 C552.8802,365.3762 548.5552,365.3419 545.5613,360.7954 C541.4276,366.28 536.38,365.8225 533.0639,359.8997 C528.7532,362.8227 525.3372,361.147 523.9604,356.4121 C516.2178,354.0242 514.3466,348.3247 519.686,342.0448 C513.3458,336.2931 513.9172,328.5188 523.2468,326.3142 " fill="#F8F8F8" style="stroke: #000000; stroke-width: 1.5;"/><text fill="#000000" font-family="sans-serif" font-size="14" font-weight="bold" lengthAdjust="spacingAndGlyphs" textLength="30" x="529" y="345.9951">иии</text><!--entity and1--><ellipse cx="432" cy="229" fill="#F8F8F8" filter="url(#fo5a8d7207iu)" rx="8" ry="8" style="stroke: #383838; stroke-width: 2.0;"/><text fill="#000000" font-family="sans-serif" font-size="14" lengthAdjust="spacingAndGlyphs" textLength="26" x="419" y="258.9951">and</text><!--entity unlockcar--><rect fill="#F8F8F8" filter="url(#fo5a8d7207iu)" height="36.2969" style="stroke: #383838; stroke-width: 1.5;" width="94" x="385" y="323"/><text fill="#000000" font-family="sans-serif" font-size="14" lengthAdjust="spacingAndGlyphs" textLength="74" x="395" y="345.9951">Unlock Car</text><!--entity startengine--><rect fill="#F8F8F8" filter="url(#fo5a8d7207iu)" height="36.2969" style="stroke: #383838; stroke-width: 1.5;" width="104" x="246" y="323"/><text fill="#000000" font-family="sans-serif" font-size="14" lengthAdjust="spacingAndGlyphs" textLength="84" x="256" y="345.9951">Start Engine</text><!--entity gainowner--><rect fill="#F8F8F8" filter="url(#fo5a8d7207iu)" height="36.2969" style="stroke: #383838; stroke-width: 1.5;" width="181" x="253.5" y="424"/><text fill="#000000" font-family="sans-serif" font-size="14" lengthAdjust="spacingAndGlyphs" textLength="161" x="263.5" y="446.9951">Gain Car Owner Access</text><!--entity getocreds--><rect fill="#F8F8F8" filter="url(#fo5a8d7207iu)" height="36.2969" style="stroke: #383838; stroke-width: 1.5;" width="176" x="231" y="520"/><text fill="#000000" font-family="sans-serif" font-size="14" lengthAdjust="spacingAndGlyphs" textLength="156" x="241" y="542.9951">Get Owner Credentials</text><!--entity stealcreds--><rect fill="#F8F8F8" filter="url(#fo5a8d7207iu)" height="36.2969" style="stroke: #383838; stroke-width: 1.5;" width="179" x="81.5" y="616"/><text fill="#000000" font-family="sans-serif" font-size="14" lengthAdjust="spacingAndGlyphs" textLength="159" x="91.5" y="638.9951">Steal creds from owner</text><!--entity nicely--><rect fill="#F8F8F8" filter="url(#fo5a8d7207iu)" height="36.2969" style="stroke: #383838; stroke-width: 1.5;" width="88" x="296" y="616"/><text fill="#000000" font-family="sans-serif" font-size="14" lengthAdjust="spacingAndGlyphs" textLength="68" x="306" y="638.9951">Ask nicely</text><!--entity snarf--><rect fill="#F8F8F8" filter="url(#fo5a8d7207iu)" height="36.2969" style="stroke: #383838; stroke-width: 1.5;" width="147" x="23.5" y="712"/><text fill="#000000" font-family="sans-serif" font-size="14" lengthAdjust="spacingAndGlyphs" textLength="127" x="33.5" y="734.9951">Bluetooth snarfing</text><!--entity eviltwin--><rect fill="#F8F8F8" filter="url(#fo5a8d7207iu)" height="36.2969" style="stroke: #383838; stroke-width: 1.5;" width="78" x="206" y="712"/><text fill="#000000" font-family="sans-serif" font-size="14" lengthAdjust="spacingAndGlyphs" textLength="58" x="216" y="734.9951">Evil Twin</text><!--entity lackbcrypto--><rect fill="#F8F8F8" filter="url(#fo5a8d7207iu)" height="36.2969" style="stroke: #383838; stroke-width: 1.5;" width="182" x="6" y="808"/><text fill="#000000" font-family="sans-serif" font-size="14" lengthAdjust="spacingAndGlyphs" textLength="162" x="16" y="830.9951">Lack of transport crypto</text><!--link goaldisrupt to goaldos--><path d="M717.4236,44.0569 C730.853,59.7791 750.3779,82.6375 764.8132,99.5375 " fill="none" id="goaldisrupt-goaldos" style="stroke: #383838; stroke-width: 1.0;"/><polygon fill="#383838" points="768.3668,103.6977,765.5629,94.2564,765.1194,99.8958,759.4799,99.4523,768.3668,103.6977" style="stroke: #383838; stroke-width: 1.0;"/><!--link goaldisrupt to goalrentall--><path d="M686.5764,44.0569 C673.147,59.7791 653.6221,82.6375 639.1868,99.5375 " fill="none" id="goaldisrupt-goalrentall" style="stroke: #383838; stroke-width: 1.0;"/><polygon fill="#383838" points="635.6332,103.6977,644.5201,99.4523,638.8806,99.8958,638.4371,94.2564,635.6332,103.6977" style="stroke: #383838; stroke-width: 1.0;"/><!--link goaldos to dosrentals--><path d="M784,140.1511 C784,158.213 784,186.0045 784,205.6895 " fill="none" id="goaldos-dosrentals" style="stroke: #383838; stroke-width: 1.0;"/><polygon fill="#383838" points="784,210.7599,788,201.7599,784,205.7599,780,201.7599,784,210.7599" style="stroke: #383838; stroke-width: 1.0;"/><!--link dosrentals to breakcars--><path d="M767.3219,247.4945 C749.5992,267.1474 721.5911,298.2059 702.7705,319.0763 " fill="none" id="dosrentals-breakcars" style="stroke: #383838; stroke-width: 1.0;"/><polygon fill="#383838" points="699.3678,322.8496,708.3657,318.8448,702.7163,319.1365,702.4247,313.4872,699.3678,322.8496" style="stroke: #383838; stroke-width: 1.0;"/><!--link dosrentals to dosapi--><path d="M781.357,247.1603 C775.729,285.83 762.5692,376.25 756.3584,418.9248 " fill="none" id="dosrentals-dosapi" style="stroke: #383838; stroke-width: 1.0;"/><polygon fill="#383838" points="755.6364,423.8857,760.891,415.5557,756.3565,418.9378,752.9744,414.4034,755.6364,423.8857" style="stroke: #383838; stroke-width: 1.0;"/><!--link dosrentals to messmobile--><path d="M807.2937,247.244 C832.5351,267.0135 872.7798,298.5338 899.5413,319.4939 " fill="none" id="dosrentals-messmobile" style="stroke: #383838; stroke-width: 1.0;"/><polygon fill="#383838" points="903.7163,322.7638,899.0974,314.0652,899.78,319.6807,894.1645,320.3633,903.7163,322.7638" style="stroke: #383838; stroke-width: 1.0;"/><!--link messmobile to crashmobile--><path d="M927,359.0568 C927,375.6144 927,400.2413 927,418.3608 " fill="none" id="messmobile-crashmobile" style="stroke: #383838; stroke-width: 1.0;"/><polygon fill="#383838" points="927,423.759,931,414.759,927,418.759,923,414.759,927,423.759" style="stroke: #383838; stroke-width: 1.0;"/><!--link messmobile to removestore--><path d="M968.477,359.0568 C1009.0129,376.7039 1070.6036,403.5171 1112.7123,421.8489 " fill="none" id="messmobile-removestore" style="stroke: #383838; stroke-width: 1.0;"/><polygon fill="#383838" points="1117.4917,423.9296,1110.8365,416.6696,1112.9073,421.9338,1107.6431,424.0046,1117.4917,423.9296" style="stroke: #383838; stroke-width: 1.0;"/><!--link dosapi to ddosreq--><path d="M753,460.0569 C753,475.5126 753,497.8647 753,514.6731 " fill="none" id="dosapi-ddosreq" style="stroke: #383838; stroke-width: 1.0;"/><polygon fill="#383838" points="753,519.6977,757,510.6977,753,514.6977,749,510.6977,753,519.6977" style="stroke: #383838; stroke-width: 1.0;"/><!--link dosapi to screwcerts--><path d="M791.5589,460.0569 C826.5238,476.4307 878.0166,500.5444 914.4523,517.6069 " fill="none" id="dosapi-screwcerts" style="stroke: #383838; stroke-width: 1.0;"/><polygon fill="#383838" points="919.266,519.8612,912.8119,512.4218,914.7379,517.7407,909.4191,519.6667,919.266,519.8612" style="stroke: #383838; stroke-width: 1.0;"/><!--link dosapi to gainsysaccess--><path d="M711.0554,460.0569 C672.8652,476.4975 616.5488,500.7413 576.8869,517.8155 " fill="none" id="dosapi-gainsysaccess" style="stroke: #383838; stroke-width: 1.0;"/><polygon fill="#383838" points="572.135,519.8612,581.9832,519.9765,576.7275,517.8842,578.8199,512.6285,572.135,519.8612" style="stroke: #383838; stroke-width: 1.0;"/><!--link gainsysaccess to stealadmincreds--><path d="M530,556.0569 C530,571.5126 530,593.8647 530,610.6731 " fill="none" id="gainsysaccess-stealadmincreds" style="stroke: #383838; stroke-width: 1.0;"/><polygon fill="#383838" points="530,615.6977,534,606.6977,530,610.6977,526,606.6977,530,615.6977" style="stroke: #383838; stroke-width: 1.0;"/><!--link stealadmincreds to detailsadminscred--><path d="M530,652.0569 C530,667.5126 530,689.8647 530,706.6731 " fill="none" id="stealadmincreds-detailsadminscred" style="stroke: #383838; stroke-width: 1.0;"/><polygon fill="#383838" points="530,711.6977,534,702.6977,530,706.6977,526,702.6977,530,711.6977" style="stroke: #383838; stroke-width: 1.0;"/><!--link goalsteal to sfstyle--><path d="M483.196,140.1511 C494.4792,158.4436 511.918,186.7156 524.0841,206.4394 " fill="none" id="goalsteal-sfstyle" style="stroke: #383838; stroke-width: 1.0;"/><polygon fill="#383838" points="526.7491,210.7599,525.4288,200.9999,524.1242,206.5043,518.6199,205.1997,526.7491,210.7599" style="stroke: #383838; stroke-width: 1.0;"/><!--link sfstyle to cloud1--><path d="M538.9908,247.4945 C539.942,265.2504 541.392,292.3165 542.4875,312.7675 " fill="none" id="sfstyle-cloud1" style="stroke: #383838; stroke-width: 1.0;"/><polygon fill="#383838" points="542.7579,317.8148,546.2705,308.6136,542.4903,312.822,538.282,309.0418,542.7579,317.8148" style="stroke: #383838; stroke-width: 1.0;"/><!--link goalsteal to and1--><path d="M465.2145,140.1511 C457.3095,161.2972 444.419,195.7792 437.2428,214.9756 " fill="none" id="goalsteal-and1" style="stroke: #383838; stroke-width: 1.0;"/><polygon fill="#383838" points="435.3791,219.9608,442.2774,212.9313,437.13,215.2774,434.7839,210.1299,435.3791,219.9608" style="stroke: #383838; stroke-width: 1.0;"/><!--link and1 to unlockcar--><path d="M432,238.1654 C432,255.4316 432,293.2545 432,317.9016 " fill="none" id="and1-unlockcar" style="stroke: #383838; stroke-width: 1.0;"/><polygon fill="#383838" points="432,322.9489,436,313.9489,432,317.9489,428,313.9489,432,322.9489" style="stroke: #383838; stroke-width: 1.0;"/><!--link and1 to startengine--><path d="M422.7896,236.6982 C402.5874,253.5837 353.7789,294.3788 323.5384,319.6545 " fill="none" id="and1-startengine" style="stroke: #383838; stroke-width: 1.0;"/><polygon fill="#383838" points="319.5817,322.9615,329.0525,320.2588,323.4181,319.7549,323.922,314.1206,319.5817,322.9615" style="stroke: #383838; stroke-width: 1.0;"/><!--link unlockcar to gainowner--><path d="M416.2674,359.0568 C401.4678,376.0426 379.2693,401.5205 363.3833,419.7533 " fill="none" id="unlockcar-gainowner" style="stroke: #383838; stroke-width: 1.0;"/><polygon fill="#383838" points="359.8931,423.759,368.8212,419.6009,363.1777,419.9892,362.7894,414.3456,359.8931,423.759" style="stroke: #383838; stroke-width: 1.0;"/><!--link startengine to gainowner--><path d="M306.2239,359.0568 C313.83,375.7571 325.1748,400.6665 333.4464,418.8279 " fill="none" id="startengine-gainowner" style="stroke: #383838; stroke-width: 1.0;"/><polygon fill="#383838" points="335.6922,423.759,335.6021,413.9106,333.6198,419.2087,328.3216,417.2264,335.6922,423.759" style="stroke: #383838; stroke-width: 1.0;"/><!--link gainowner to getocreds--><path d="M339.2977,460.0569 C335.2727,475.5126 329.4519,497.8647 325.0747,514.6731 " fill="none" id="gainowner-getocreds" style="stroke: #383838; stroke-width: 1.0;"/><polygon fill="#383838" points="323.7662,519.6977,329.9053,511.9963,325.0263,514.8591,322.1635,509.9801,323.7662,519.6977" style="stroke: #383838; stroke-width: 1.0;"/><!--link gainowner to gainsysaccess--><path d="M378.9852,460.0569 C410.58,476.3638 457.0485,500.3476 490.0829,517.3976 " fill="none" id="gainowner-gainsysaccess" style="stroke: #383838; stroke-width: 1.0;"/><polygon fill="#383838" points="494.856,519.8612,488.6931,512.1789,490.4129,517.5679,485.0238,519.2878,494.856,519.8612" style="stroke: #383838; stroke-width: 1.0;"/><!--link getocreds to stealcreds--><path d="M291.1623,556.0569 C266.2285,572.2302 229.6527,595.955 203.4105,612.977 " fill="none" id="getocreds-stealcreds" style="stroke: #383838; stroke-width: 1.0;"/><polygon fill="#383838" points="198.964,615.8612,208.6914,614.3192,203.1588,613.1402,204.3377,607.6075,198.964,615.8612" style="stroke: #383838; stroke-width: 1.0;"/><!--link getocreds to nicely--><path d="M322.9499,556.0569 C326.3309,571.5126 331.2204,593.8647 334.8972,610.6731 " fill="none" id="getocreds-nicely" style="stroke: #383838; stroke-width: 1.0;"/><polygon fill="#383838" points="335.9964,615.6977,337.9806,606.0508,334.9278,610.8132,330.1654,607.7605,335.9964,615.6977" style="stroke: #383838; stroke-width: 1.0;"/><!--link stealcreds to snarf--><path d="M157.0812,652.0569 C144.9619,667.7791 127.3419,690.6375 114.3149,707.5375 " fill="none" id="stealcreds-snarf" style="stroke: #383838; stroke-width: 1.0;"/><polygon fill="#383838" points="111.108,711.6977,119.7707,707.0117,114.1606,707.7377,113.4346,702.1276,111.108,711.6977" style="stroke: #383838; stroke-width: 1.0;"/><!--link stealcreds to eviltwin--><path d="M184.9188,652.0569 C197.0381,667.7791 214.6581,690.6375 227.6851,707.5375 " fill="none" id="stealcreds-eviltwin" style="stroke: #383838; stroke-width: 1.0;"/><polygon fill="#383838" points="230.892,711.6977,228.5654,702.1276,227.8394,707.7377,222.2293,707.0117,230.892,711.6977" style="stroke: #383838; stroke-width: 1.0;"/><!--link snarf to lackbcrypto--><path d="M97,748.0569 C97,763.5126 97,785.8647 97,802.6731 " fill="none" id="snarf-lackbcrypto" style="stroke: #383838; stroke-width: 1.0;"/><polygon fill="#383838" points="97,807.6977,101,798.6977,97,802.6977,93,798.6977,97,807.6977" style="stroke: #383838; stroke-width: 1.0;"/><!--
@startuml
skinparam monochrome true 
skinparam defaultTextAlignment center 
agent "Steal Car" as goalsteal
agent "Disrupt business operations" as goaldisrupt

agent "Make car unrentable" as goaldos
agent "Rent all car" as goalrentall

goaldisrupt - -> goaldos
goaldisrupt - -> goalrentall

agent "DoS car rentals" as dosrentals
goaldos - -> dosrentals

agent "Break Cars" as breakcars
agent "DoS API Gateway" as dosapi
agent "Mess with mobile app" as messmobile
dosrentals - -> breakcars
dosrentals - - -> dosapi
dosrentals - -> messmobile

agent "Crash Mobile App" as crashmobile
messmobile - -> crashmobile

agent "Get App Removed from App Store" as removestore
messmobile - -> removestore

agent "DDoS with many requests" as ddosreq
agent "Screw certificates" as screwcerts
agent "Gain Access to system" as gainsysaccess
dosapi - -> ddosreq
dosapi - -> screwcerts
dosapi - -> gainsysaccess

agent "Steal admin credentials" as stealadmincreds
gainsysaccess - -> stealadmincreds

agent "(todo)" as detailsadminscred
stealadmincreds - -> detailsadminscred

agent "SF Style" as sfstyle
goalsteal - -> sfstyle
cloud "**иии**" as cloud1
sfstyle - -> cloud1

interface "and" as and1
 goalsteal - -> and1

agent "Unlock Car" as unlockcar
agent "Start Engine" as startengine
and1 - -> unlockcar
and1 - -> startengine

agent "Gain Car Owner Access" as gainowner

unlockcar - -> gainowner
startengine - -> gainowner

agent "Get Owner Credentials" as getocreds
gainowner - -> getocreds
gainowner - -> gainsysaccess

agent "Steal creds from owner" as stealcreds
getocreds - -> stealcreds
agent "Ask nicely" as nicely
getocreds - -> nicely

agent "Bluetooth snarfing" as snarf
stealcreds - -> snarf

agent "Evil Twin" as eviltwin
stealcreds - -> eviltwin

agent "Lack of transport crypto" as lackbcrypto

snarf - -> lackbcrypto
@enduml

PlantUML version 1.2019.04(Fri Mar 29 15:44:36 UTC 2019)
(GPL source distribution)
Java Runtime: OpenJDK Runtime Environment
JVM: OpenJDK 64-Bit Server VM
Java Version: 1.8.0_201-heroku-b09
Operating System: Linux
OS Version: 4.4.0-1044-aws
Default Encoding: UTF-8
Language: en
Country: US
--></g></svg>