<?xml version="1.0" encoding="UTF-8" standalone="no"?>
<!DOCTYPE svg PUBLIC "-//W3C//DTD SVG 1.1//EN"
 "http://www.w3.org/Graphics/SVG/1.1/DTD/svg11.dtd">
<!-- Generated by graphviz version 2.38.0 (20140413.2041)
 -->
<!-- Title: tm Pages: 1 -->
<svg width="515pt" height="661pt"
 viewBox="0.00 0.00 514.82 661.13" xmlns="http://www.w3.org/2000/svg" xmlns:xlink="http://www.w3.org/1999/xlink">
<g id="graph0" class="graph" transform="scale(1 1) rotate(0) translate(4 657.127)">
<title>tm</title>
<polygon fill="white" stroke="none" points="-4,4 -4,-657.127 510.817,-657.127 510.817,4 -4,4"/>
<g id="clust1" class="cluster"><title>cluster_bfaefefcfbeeafeefac</title>
<polygon fill="none" stroke="#ee2c2c" stroke-dasharray="5,2" points="139.5,-59.3173 139.5,-426.127 303.5,-426.127 303.5,-59.3173 139.5,-59.3173"/>
<text text-anchor="start" x="204.5" y="-415.127" font-family="Arial" font-style="italic" font-size="10.00" fill="#ee2c2c">Internet</text>
</g>
<!-- aaedcfceefeffbdc -->
<g id="node1" class="node"><title>aaedcfceefeffbdc</title>
<ellipse fill="none" stroke="black" cx="221.5" cy="-324.881" rx="74.4932" ry="74.4932"/>
<text text-anchor="start" x="181.5" y="-321.681" font-family="Arial" font-weight="bold" font-size="14.00">Web Server</text>
</g>
<!-- acbfeaddadeceddbbbbca -->
<g id="node2" class="node"><title>acbfeaddadeceddbbbbca</title>
<text text-anchor="start" x="187.5" y="-82.1173" font-family="Arial" font-weight="bold" font-size="14.00">db</text>
<polyline fill="none" stroke="black" points="182,-72.8173 211,-72.8173 "/>
<polyline fill="none" stroke="black" points="211,-97.8173 182,-97.8173 "/>
</g>
<!-- aaedcfceefeffbdc&#45;&gt;acbfeaddadeceddbbbbca -->
<g id="edge2" class="edge"><title>aaedcfceefeffbdc&#45;&gt;acbfeaddadeceddbbbbca</title>
<path fill="none" stroke="black" d="M213.829,-250.989C208.955,-204.669 202.922,-147.347 199.413,-113.998"/>
<polygon fill="black" stroke="black" points="202.852,-113.236 198.325,-103.657 195.891,-113.969 202.852,-113.236"/>
<text text-anchor="start" x="215.5" y="-208.035" font-family="Arial" font-weight="bold" font-size="12.00"> </text>
</g>
<!-- bebdddeabdfbacdceded -->
<g id="node5" class="node"><title>bebdddeabdfbacdceded</title>
<ellipse fill="none" stroke="black" cx="421.5" cy="-85.3173" rx="81.1435" ry="81.1435"/>
<ellipse fill="none" stroke="black" cx="421.5" cy="-85.3173" rx="85.135" ry="85.135"/>
<text text-anchor="start" x="376.5" y="-82.1173" font-family="Arial" font-weight="bold" font-size="14.00">CDN network</text>
</g>
<!-- aaedcfceefeffbdc&#45;&gt;bebdddeabdfbacdceded -->
<g id="edge5" class="edge"><title>aaedcfceefeffbdc&#45;&gt;bebdddeabdfbacdceded</title>
<path fill="none" stroke="black" d="M250.676,-256.236C262.536,-233.265 277.682,-208.427 295.5,-188.635 304.903,-178.189 310.337,-179.174 321.5,-170.635 330.73,-163.574 340.265,-155.967 349.615,-148.314"/>
<polygon fill="black" stroke="black" points="351.924,-150.947 357.415,-141.886 347.472,-145.545 351.924,-150.947"/>
<text text-anchor="start" x="300.5" y="-208.035" font-family="Arial" font-weight="bold" font-size="12.00">Push to Bucket</text>
</g>
<!-- abbfadcbfacaebcdefda -->
<g id="node3" class="node"><title>abbfadcbfacaebcdefda</title>
<polygon fill="none" stroke="black" points="457.5,-653.127 277.5,-653.127 277.5,-473.127 457.5,-473.127 457.5,-653.127"/>
<text text-anchor="start" x="289.5" y="-559.927" font-family="Arial" font-weight="bold" font-size="14.00">Generic/Privilege User</text>
</g>
<!-- abbfadcbfacaebcdefda&#45;&gt;aaedcfceefeffbdc -->
<g id="edge1" class="edge"><title>abbfadcbfacaebcdefda&#45;&gt;aaedcfceefeffbdc</title>
<path fill="none" stroke="black" d="M312.304,-472.812C296.841,-447.792 280.243,-420.935 265.523,-397.115"/>
<polygon fill="black" stroke="black" points="268.424,-395.152 260.19,-388.486 262.47,-398.832 268.424,-395.152"/>
<text text-anchor="start" x="304" y="-442.027" font-family="Arial" font-weight="bold" font-size="12.00">HTTPS</text>
</g>
<!-- abbfadcbfacaebcdefda&#45;&gt;bebdddeabdfbacdceded -->
<g id="edge4" class="edge"><title>abbfadcbfacaebcdefda&#45;&gt;bebdddeabdfbacdceded</title>
<path fill="none" stroke="black" d="M377.625,-472.91C387.089,-389.519 401.171,-265.444 410.813,-180.488"/>
<polygon fill="black" stroke="black" points="414.316,-180.657 411.966,-170.326 407.36,-179.868 414.316,-180.657"/>
<text text-anchor="start" x="407" y="-322.281" font-family="Arial" font-weight="bold" font-size="12.00">HTTP</text>
</g>
<!-- cafbfbfeedbdeecbccebfdf -->
<g id="node4" class="node"><title>cafbfbfeedbdeecbccebfdf</title>
<polygon fill="none" stroke="black" points="75,-362.381 0,-362.381 0,-287.381 75,-287.381 75,-362.381"/>
<text text-anchor="start" x="12.5" y="-321.681" font-family="Arial" font-weight="bold" font-size="14.00"> admin </text>
</g>
<!-- cafbfbfeedbdeecbccebfdf&#45;&gt;acbfeaddadeceddbbbbca -->
<g id="edge3" class="edge"><title>cafbfbfeedbdeecbccebfdf&#45;&gt;acbfeaddadeceddbbbbca</title>
<path fill="none" stroke="black" d="M57.5418,-287.253C73.054,-259.609 95.5307,-221.036 117.5,-188.635 135.986,-161.371 159.243,-131.736 175.724,-111.411"/>
<polygon fill="black" stroke="black" points="178.511,-113.532 182.12,-103.571 173.087,-109.107 178.511,-113.532"/>
<text text-anchor="start" x="127" y="-220.035" font-family="Arial" font-weight="bold" font-size="12.00">unsecure</text>
<text text-anchor="start" x="137" y="-208.035" font-family="Arial" font-weight="bold" font-size="12.00">mysql</text>
<text text-anchor="start" x="122" y="-196.035" font-family="Arial" font-weight="bold" font-size="12.00">connection</text>
</g>
</g>
</svg>
