<?xml version="1.0" encoding="UTF-8" standalone="no"?>
<!DOCTYPE svg PUBLIC "-//W3C//DTD SVG 1.1//EN"
 "http://www.w3.org/Graphics/SVG/1.1/DTD/svg11.dtd">
<!-- Generated by graphviz version 2.38.0 (20140413.2041)
 -->
<!-- Title: tm Pages: 1 -->
<svg width="1070pt" height="903pt"
 viewBox="0.00 0.00 1070.00 902.87" xmlns="http://www.w3.org/2000/svg" xmlns:xlink="http://www.w3.org/1999/xlink">
<g id="graph0" class="graph" transform="scale(1 1) rotate(0) translate(4 898.872)">
<title>tm</title>
<polygon fill="white" stroke="none" points="-4,4 -4,-898.872 1066,-898.872 1066,4 -4,4"/>
<g id="clust1" class="cluster"><title>cluster_fbeabbaffbddabbabcfedb</title>
<polygon fill="none" stroke="#ee2c2c" stroke-dasharray="5,2" points="17,-532.078 17,-886.872 350,-886.872 350,-532.078 17,-532.078"/>
<text text-anchor="start" x="135.5" y="-875.872" font-family="Arial" font-style="italic" font-size="10.00" fill="#ee2c2c">player&#39;s local machine</text>
</g>
<g id="clust3" class="cluster"><title>cluster_ebadbbacbbbedfbcbfaabfe</title>
<polygon fill="none" stroke="#ee2c2c" stroke-dasharray="5,2" points="8,-8 8,-472.44 876,-472.44 876,-8 8,-8"/>
<text text-anchor="start" x="414" y="-461.44" font-family="Arial" font-style="italic" font-size="10.00" fill="#ee2c2c">prod network</text>
</g>
<g id="clust2" class="cluster"><title>cluster_fbacafbcbcedbcdfdbaffce</title>
<polygon fill="none" stroke="#ee2c2c" stroke-dasharray="5,2" points="884,-305.078 884,-493.078 1054,-493.078 1054,-305.078 884,-305.078"/>
<text text-anchor="start" x="941" y="-482.078" font-family="Arial" font-style="italic" font-size="10.00" fill="#ee2c2c">corp network</text>
</g>
<!-- fbcaeddddeefdddddaa -->
<g id="node1" class="node"><title>fbcaeddddeefdddddaa</title>
<polygon fill="none" stroke="black" points="125.5,-822.372 56.5,-822.372 56.5,-753.372 125.5,-753.372 125.5,-822.372"/>
<text text-anchor="start" x="69" y="-784.672" font-family="Arial" font-weight="bold" font-size="14.00">Player</text>
</g>
<!-- eeacbebacadfdaeabacaddc -->
<g id="node3" class="node"><title>eeacbebacadfdaeabacaddc</title>
<ellipse fill="none" stroke="black" cx="81" cy="-599.475" rx="45.9239" ry="45.9239"/>
<text text-anchor="start" x="61" y="-603.275" font-family="Arial" font-weight="bold" font-size="14.00">Game</text>
<text text-anchor="start" x="61.5" y="-589.275" font-family="Arial" font-weight="bold" font-size="14.00">Client</text>
</g>
<!-- fbcaeddddeefdddddaa&#45;&gt;eeacbebacadfdaeabacaddc -->
<g id="edge1" class="edge"><title>fbcaeddddeefdddddaa&#45;&gt;eeacbebacadfdaeabacaddc</title>
<path fill="none" stroke="black" d="M87.9614,-753.088C86.5641,-736.47 84.9988,-716.134 84,-697.872 83.2564,-684.277 82.6838,-669.603 82.2483,-655.873"/>
<polygon fill="black" stroke="black" points="85.7382,-655.482 81.9413,-645.59 78.7413,-655.69 85.7382,-655.482"/>
<text text-anchor="start" x="88" y="-684.772" font-family="Arial" font-weight="bold" font-size="12.00">Uses/Launch</text>
</g>
<!-- bdddedacabacdfeddffdaadd -->
<g id="node4" class="node"><title>bdddedacabacdfeddffdaadd</title>
<ellipse fill="none" stroke="black" cx="258" cy="-599.475" rx="59.2941" ry="59.2941"/>
<text text-anchor="start" x="228" y="-596.275" font-family="Arial" font-weight="bold" font-size="14.00">Browser</text>
</g>
<!-- fbcaeddddeefdddddaa&#45;&gt;bdddedacabacdfeddffdaadd -->
<g id="edge2" class="edge"><title>fbcaeddddeefdddddaa&#45;&gt;bdddedacabacdfeddffdaadd</title>
<path fill="none" stroke="black" d="M123.875,-753.276C135.754,-741.329 149.354,-727.87 162,-715.872 170.676,-707.641 173.846,-706.62 182,-697.872 193.981,-685.02 206.076,-670.419 216.986,-656.505"/>
<polygon fill="black" stroke="black" points="219.901,-658.458 223.263,-648.411 214.369,-654.168 219.901,-658.458"/>
<text text-anchor="start" x="204" y="-684.772" font-family="Arial" font-weight="bold" font-size="12.00">Uses/Launch</text>
</g>
<!-- bbdaeeabfbcadceebcadaebc -->
<g id="node2" class="node"><title>bbdaeeabfbcadceebcadaebc</title>
<polygon fill="none" stroke="black" points="342,-859.872 198,-859.872 198,-715.872 342,-715.872 342,-859.872"/>
<text text-anchor="start" x="227.5" y="-791.672" font-family="Arial" font-weight="bold" font-size="14.00">Anonymous</text>
<text text-anchor="start" x="210" y="-777.672" font-family="Arial" font-weight="bold" font-size="14.00">WWW User&#45;Agent</text>
</g>
<!-- aaadadabaedafcbfbfcaf -->
<g id="node6" class="node"><title>aaadadabaedafcbfbfcaf</title>
<ellipse fill="none" stroke="black" cx="460" cy="-389.578" rx="55.7232" ry="55.7232"/>
<text text-anchor="start" x="433" y="-393.378" font-family="Arial" font-weight="bold" font-size="14.00">Website</text>
<text text-anchor="start" x="442.5" y="-379.378" font-family="Arial" font-weight="bold" font-size="14.00">Stats</text>
</g>
<!-- bbdaeeabfbcadceebcadaebc&#45;&gt;aaadadabaedafcbfbfcaf -->
<g id="edge3" class="edge"><title>bbdaeeabfbcadceebcadaebc&#45;&gt;aaadadabaedafcbfbfcaf</title>
<path fill="none" stroke="black" d="M318.981,-715.638C330.697,-697.463 342.764,-677.726 353,-658.872 384.761,-600.369 389.433,-583.947 414,-522.078 422.942,-499.56 431.929,-474.529 439.557,-452.4"/>
<polygon fill="black" stroke="black" points="442.922,-453.379 442.85,-442.784 436.299,-451.111 442.922,-453.379"/>
<text text-anchor="start" x="414" y="-596.875" font-family="Arial" font-weight="bold" font-size="12.00"> </text>
</g>
<!-- abadddfbbebffeabdaecdddcdefedb -->
<g id="node7" class="node"><title>abadddfbbebffeabdaecdddcdefedb</title>
<ellipse fill="none" stroke="black" cx="274" cy="-389.578" rx="48.5816" ry="48.5816"/>
<text text-anchor="start" x="252" y="-386.378" font-family="Arial" font-weight="bold" font-size="14.00">Lobby</text>
</g>
<!-- eeacbebacadfdaeabacaddc&#45;&gt;abadddfbbebffeabdaecdddcdefedb -->
<g id="edge7" class="edge"><title>eeacbebacadfdaeabacaddc&#45;&gt;abadddfbbebffeabdaecdddcdefedb</title>
<path fill="none" stroke="black" d="M112.009,-565.073C145.174,-529.347 197.881,-472.572 234.114,-433.543"/>
<polygon fill="black" stroke="black" points="236.892,-435.695 241.13,-425.985 231.762,-430.932 236.892,-435.695"/>
<text text-anchor="start" x="170.5" y="-508.978" font-family="Arial" font-weight="bold" font-size="12.00">TCP 1234</text>
</g>
<!-- caecbddedafabcdeefbbfacddfefd -->
<g id="node8" class="node"><title>caecbddedafabcdeefbbfacddfefd</title>
<ellipse fill="none" stroke="black" cx="76" cy="-182.539" rx="55.7324" ry="55.7324"/>
<ellipse fill="none" stroke="black" cx="76" cy="-182.539" rx="59.7232" ry="59.7232"/>
<text text-anchor="start" x="56" y="-186.339" font-family="Arial" font-weight="bold" font-size="14.00">Game</text>
<text text-anchor="start" x="49" y="-172.339" font-family="Arial" font-weight="bold" font-size="14.00">Servers</text>
</g>
<!-- eeacbebacadfdaeabacaddc&#45;&gt;caecbddedafabcdeefbbfacddfefd -->
<g id="edge8" class="edge"><title>eeacbebacadfdaeabacaddc&#45;&gt;caecbddedafabcdeefbbfacddfefd</title>
<path fill="none" stroke="black" d="M80.4554,-553.28C79.5822,-480.82 77.863,-338.148 76.8343,-252.776"/>
<polygon fill="black" stroke="black" points="80.3327,-252.614 76.7124,-242.657 73.3332,-252.698 80.3327,-252.614"/>
<text text-anchor="start" x="84.5" y="-386.978" font-family="Arial" font-weight="bold" font-size="12.00">TCP 1235</text>
</g>
<!-- bdddedacabacdfeddffdaadd&#45;&gt;aaadadabaedafcbfbfcaf -->
<g id="edge4" class="edge"><title>bdddedacabacdfeddffdaadd&#45;&gt;aaadadabaedafcbfbfcaf</title>
<path fill="none" stroke="black" d="M299.121,-556.154C332.507,-521.794 379.553,-473.374 414.149,-437.767"/>
<polygon fill="black" stroke="black" points="416.875,-439.985 421.333,-430.374 411.854,-435.107 416.875,-439.985"/>
<text text-anchor="start" x="351.5" y="-508.978" font-family="Arial" font-weight="bold" font-size="12.00">HTTPS</text>
</g>
<!-- eabceadefdfcedfdedbf -->
<g id="node5" class="node"><title>eabceadefdfcedfdedbf</title>
<polygon fill="none" stroke="black" points="1045.5,-466.078 892.5,-466.078 892.5,-313.078 1045.5,-313.078 1045.5,-466.078"/>
<text text-anchor="start" x="905" y="-386.378" font-family="Arial" font-weight="bold" font-size="14.00">Customer Support</text>
</g>
<!-- fdedbaafbdebedfaaceeadebccb -->
<g id="node9" class="node"><title>fdedbaafbdebedfaaceeadebccb</title>
<ellipse fill="none" stroke="black" cx="794" cy="-182.539" rx="73.5782" ry="73.5782"/>
<text text-anchor="start" x="754" y="-186.339" font-family="Arial" font-weight="bold" font-size="14.00">Moderation</text>
<text text-anchor="start" x="766.5" y="-172.339" font-family="Arial" font-weight="bold" font-size="14.00">Website</text>
</g>
<!-- eabceadefdfcedfdedbf&#45;&gt;fdedbaafbdebedfaaceeadebccb -->
<g id="edge13" class="edge"><title>eabceadefdfcedfdedbf&#45;&gt;fdedbaafbdebedfaaceeadebccb</title>
<path fill="none" stroke="black" d="M904.334,-312.812C885.858,-291.165 865.922,-267.806 848.145,-246.979"/>
<polygon fill="black" stroke="black" points="850.6,-244.463 841.446,-239.129 845.276,-249.008 850.6,-244.463"/>
<text text-anchor="start" x="890" y="-281.978" font-family="Arial" font-weight="bold" font-size="12.00"> </text>
</g>
<!-- cafbafcaeebacedecccaccfa -->
<g id="node10" class="node"><title>cafbafcaeebacedecccaccfa</title>
<ellipse fill="none" stroke="black" cx="428" cy="-182.539" rx="64.1938" ry="64.1938"/>
<text text-anchor="start" x="395" y="-179.339" font-family="Arial" font-weight="bold" font-size="14.00">API REST</text>
</g>
<!-- aaadadabaedafcbfbfcaf&#45;&gt;cafbafcaeebacedecccaccfa -->
<g id="edge5" class="edge"><title>aaadadabaedafcbfbfcaf&#45;&gt;cafbafcaeebacedecccaccfa</title>
<path fill="none" stroke="black" d="M451.509,-334.17C447.782,-310.29 443.352,-281.906 439.348,-256.249"/>
<polygon fill="black" stroke="black" points="442.779,-255.534 437.778,-246.194 435.862,-256.614 442.779,-255.534"/>
<text text-anchor="start" x="449" y="-281.978" font-family="Arial" font-weight="bold" font-size="12.00"> </text>
</g>
<!-- eaafdccecbcfaabcc -->
<g id="node11" class="node"><title>eaafdccecbcfaabcc</title>
<text text-anchor="start" x="371" y="-30.8" font-family="Arial" font-weight="bold" font-size="14.00">Player Database</text>
<polyline fill="none" stroke="black" points="366,-21.5 490,-21.5 "/>
<polyline fill="none" stroke="black" points="490,-46.5 366,-46.5 "/>
</g>
<!-- aaadadabaedafcbfbfcaf&#45;&gt;eaafdccecbcfaabcc -->
<g id="edge6" class="edge"><title>aaadadabaedafcbfbfcaf&#45;&gt;eaafdccecbcfaabcc</title>
<path fill="none" stroke="black" d="M489.938,-342.31C522.937,-284.976 566.559,-185.501 528,-109 516.738,-86.6557 495.188,-69.3796 474.969,-57.1609"/>
<polygon fill="black" stroke="black" points="476.531,-54.0217 466.118,-52.0686 473.04,-60.0892 476.531,-54.0217"/>
<text text-anchor="start" x="547" y="-179.939" font-family="Arial" font-weight="bold" font-size="12.00"> </text>
</g>
<!-- abadddfbbebffeabdaecdddcdefedb&#45;&gt;caecbddedafabcdeefbbfacddfefd -->
<g id="edge9" class="edge"><title>abadddfbbebffeabdaecdddcdefedb&#45;&gt;caecbddedafabcdeefbbfacddfefd</title>
<path fill="none" stroke="black" d="M240.412,-353.796C208.553,-320.805 160.337,-270.874 124.346,-233.604"/>
<polygon fill="black" stroke="black" points="126.783,-231.089 117.319,-226.327 121.748,-235.952 126.783,-231.089"/>
<text text-anchor="start" x="185" y="-281.978" font-family="Arial" font-weight="bold" font-size="12.00"> </text>
</g>
<!-- abadddfbbebffeabdaecdddcdefedb&#45;&gt;cafbafcaeebacedecccaccfa -->
<g id="edge11" class="edge"><title>abadddfbbebffeabdaecdddcdefedb&#45;&gt;cafbafcaeebacedecccaccfa</title>
<path fill="none" stroke="black" d="M302.966,-350.012C325.632,-319.834 357.544,-277.346 383.455,-242.848"/>
<polygon fill="black" stroke="black" points="386.356,-244.813 389.563,-234.715 380.759,-240.609 386.356,-244.813"/>
<text text-anchor="start" x="360" y="-281.978" font-family="Arial" font-weight="bold" font-size="12.00"> </text>
</g>
<!-- abadddfbbebffeabdaecdddcdefedb&#45;&gt;eaafdccecbcfaabcc -->
<g id="edge10" class="edge"><title>abadddfbbebffeabdaecdddcdefedb&#45;&gt;eaafdccecbcfaabcc</title>
<path fill="none" stroke="black" d="M269.917,-340.757C267.246,-281.612 270.65,-180.062 316,-109 330.545,-86.208 354.909,-68.8761 377.206,-56.7363"/>
<polygon fill="black" stroke="black" points="379.02,-59.7375 386.273,-52.0136 375.787,-53.5292 379.02,-59.7375"/>
<text text-anchor="start" x="320" y="-179.939" font-family="Arial" font-weight="bold" font-size="12.00"> </text>
</g>
<!-- caecbddedafabcdeefbbfacddfefd&#45;&gt;eaafdccecbcfaabcc -->
<g id="edge15" class="edge"><title>caecbddedafabcdeefbbfacddfefd&#45;&gt;eaafdccecbcfaabcc</title>
<path fill="none" stroke="black" d="M115.272,-137.168C138.876,-113.396 170.89,-85.8216 205,-70 249.525,-49.3471 303.859,-40.5251 347.747,-36.9012"/>
<polygon fill="black" stroke="black" points="348.094,-40.3851 357.803,-36.1458 347.569,-33.4048 348.094,-40.3851"/>
<text text-anchor="start" x="209" y="-77.9" font-family="Arial" font-weight="bold" font-size="12.00"> </text>
</g>
<!-- aefaafefabdabbbfefa -->
<g id="node12" class="node"><title>aefaafefabdabbbfefa</title>
<text text-anchor="start" x="102" y="-30.8" font-family="Arial" font-weight="bold" font-size="14.00">Stats Database</text>
<polyline fill="none" stroke="black" points="96.5,-21.5 211.5,-21.5 "/>
<polyline fill="none" stroke="black" points="211.5,-46.5 96.5,-46.5 "/>
</g>
<!-- caecbddedafabcdeefbbfacddfefd&#45;&gt;aefaafefabdabbbfefa -->
<g id="edge14" class="edge"><title>caecbddedafabcdeefbbfacddfefd&#45;&gt;aefaafefabdabbbfefa</title>
<path fill="none" stroke="black" d="M63.4497,-123.839C62.4416,-105.367 64.8078,-85.6633 75,-70 77.9416,-65.4795 81.6151,-61.5383 85.7569,-58.103"/>
<polygon fill="black" stroke="black" points="88.0931,-60.7373 94.2299,-52.1008 84.0467,-55.0253 88.0931,-60.7373"/>
<text text-anchor="start" x="79" y="-77.9" font-family="Arial" font-weight="bold" font-size="12.00">r/w</text>
</g>
<!-- fdedbaafbdebedfaaceeadebccb&#45;&gt;eaafdccecbcfaabcc -->
<g id="edge12" class="edge"><title>fdedbaafbdebedfaaceeadebccb&#45;&gt;eaafdccecbcfaabcc</title>
<path fill="none" stroke="black" d="M742.619,-129.483C718.106,-107.674 687.142,-84.1464 655,-70 608.951,-49.7331 553.153,-40.9418 508.401,-37.2375"/>
<polygon fill="black" stroke="black" points="508.39,-33.7267 498.154,-36.4614 507.861,-40.7067 508.39,-33.7267"/>
<text text-anchor="start" x="693" y="-77.9" font-family="Arial" font-weight="bold" font-size="12.00"> </text>
</g>
<!-- cafbafcaeebacedecccaccfa&#45;&gt;eaafdccecbcfaabcc -->
<g id="edge17" class="edge"><title>cafbafcaeebacedecccaccfa&#45;&gt;eaafdccecbcfaabcc</title>
<path fill="none" stroke="black" d="M428,-118.117C428,-98.5086 428,-77.9417 428,-62.1723"/>
<polygon fill="black" stroke="black" points="431.5,-62.0922 428,-52.0922 424.5,-62.0922 431.5,-62.0922"/>
<text text-anchor="start" x="432" y="-77.9" font-family="Arial" font-weight="bold" font-size="12.00"> </text>
</g>
<!-- cafbafcaeebacedecccaccfa&#45;&gt;aefaafefabdabbbfefa -->
<g id="edge16" class="edge"><title>cafbafcaeebacedecccaccfa&#45;&gt;aefaafefabdabbbfefa</title>
<path fill="none" stroke="black" d="M374.383,-146.885C354.446,-134.451 331.455,-120.639 310,-109 274.66,-89.8285 233.529,-70.4331 202.377,-56.3108"/>
<polygon fill="black" stroke="black" points="203.601,-53.0236 193.046,-52.1034 200.723,-59.4049 203.601,-53.0236"/>
<text text-anchor="start" x="277" y="-77.9" font-family="Arial" font-weight="bold" font-size="12.00">r/o</text>
</g>
</g>
</svg>
