<?xml version="1.0" encoding="UTF-8" standalone="no"?><!DOCTYPE svg PUBLIC "-//W3C//DTD SVG 1.1//EN" "http://www.w3.org/Graphics/SVG/1.1/DTD/svg11.dtd"><!-- Generated by graphviz version 2.40.1 (20161225.0304)
 --><!-- Title: tm Pages: 1 --><svg xmlns="http://www.w3.org/2000/svg" xmlns:xlink="http://www.w3.org/1999/xlink" width="1501pt" height="903pt" viewBox="0.00 0.00 1501.27 902.60">
<g id="graph0" class="graph" transform="scale(1 1) rotate(0) translate(4 898.6022)">
<title>tm</title>
<polygon fill="#ffffff" stroke="transparent" points="-4,4 -4,-898.6022 1497.267,-898.6022 1497.267,4 -4,4"/>
<g id="clust1" class="cluster">
<title>cluster_bfaefefcfbeeafeefac</title>
<polygon fill="none" stroke="#ee2c2c" stroke-dasharray="5,2" points="416.267,-8 416.267,-541.6661 1485.267,-541.6661 1485.267,-8 416.267,-8"/>
<text text-anchor="start" x="933.816" y="-529.6661" font-family="Arial" font-style="italic" font-size="10.00" fill="#ee2c2c">Internet</text>
</g>
<!-- aeedbbaaddfaabcd -->
<g id="node1" class="node">
<title>aeedbbaaddfaabcd</title>
<ellipse fill="none" stroke="#000000" cx="806.267" cy="-462.7544" rx="41.0244" ry="41.0244"/>
<text text-anchor="start" x="794.2074" y="-465.1544" font-family="Arial" font-weight="bold" font-size="14.00" fill="#000000">Buy</text>
<text text-anchor="start" x="789.1548" y="-451.1544" font-family="Arial" font-weight="bold" font-size="14.00" fill="#000000">API-y</text>
</g>
<!-- dcffabefabccccaedbd -->
<g id="node3" class="node">
<title>dcffabefabccccaedbd</title>
<ellipse fill="none" stroke="#000000" cx="729.267" cy="-75.1543" rx="55.2986" ry="55.2986"/>
<ellipse fill="none" stroke="#000000" cx="729.267" cy="-75.1543" rx="59.3091" ry="59.3091"/>
<text text-anchor="start" x="702.0482" y="-71.5543" font-family="Arial" font-weight="bold" font-size="14.00" fill="#000000">Market-y</text>
</g>
<!-- aeedbbaaddfaabcd&#45;&gt;dcffabefabccccaedbd -->
<g id="edge9" class="edge">
<title>aeedbbaaddfaabcd-&gt;dcffabefabccccaedbd</title>
<path fill="none" stroke="#000000" d="M798.2446,-422.3713C785.1128,-356.269 758.8865,-224.2519 742.826,-143.4072"/>
<polygon fill="#000000" stroke="#000000" points="746.2044,-142.4504 740.8229,-133.3241 739.3386,-143.8144 746.2044,-142.4504"/>
<text text-anchor="start" x="786.5996" y="-254.7757" font-family="Arial" font-weight="bold" font-size="12.00" fill="#000000"> </text>
</g>
<!-- abafcafdbfecaeffabaacdaa -->
<g id="node7" class="node">
<title>abafcafdbfecaeffabaacdaa</title>
<text text-anchor="start" x="915.0931" y="-71.5543" font-family="Arial" font-weight="bold" font-size="14.00" fill="#000000">Oracle Table B</text>
<polyline fill="none" stroke="#000000" points="909.767,-62.1543 1012.767,-62.1543 "/>
<polyline fill="none" stroke="#000000" points="1012.767,-88.1543 909.767,-88.1543 "/>
</g>
<!-- aeedbbaaddfaabcd&#45;&gt;abafcafdbfecaeffabaacdaa -->
<g id="edge11" class="edge">
<title>aeedbbaaddfaabcd-&gt;abafcafdbfecaeffabaacdaa</title>
<path fill="none" stroke="#000000" d="M821.5532,-424.529C852.7184,-346.5961 922.9502,-170.9711 950.1829,-102.8719"/>
<polygon fill="#000000" stroke="#000000" points="953.5624,-103.8469 954.0258,-93.2622 947.0628,-101.2477 953.5624,-103.8469"/>
<text text-anchor="start" x="926.5996" y="-254.7757" font-family="Arial" font-weight="bold" font-size="12.00" fill="#000000"> </text>
</g>
<!-- cddeffdbddceaedacfabfcfdfba -->
<g id="node9" class="node">
<title>cddeffdbddceaedacfabfcfdfba</title>
<text text-anchor="start" x="1224.9851" y="-71.5543" font-family="Arial" font-weight="bold" font-size="14.00" fill="#000000">Oracle Table T</text>
<polyline fill="none" stroke="#000000" points="1220.267,-62.1543 1322.267,-62.1543 "/>
<polyline fill="none" stroke="#000000" points="1322.267,-88.1543 1220.267,-88.1543 "/>
</g>
<!-- aeedbbaaddfaabcd&#45;&gt;cddeffdbddceaedacfabfcfdfba -->
<g id="edge8" class="edge">
<title>aeedbbaaddfaabcd-&gt;cddeffdbddceaedacfabfcfdfba</title>
<path fill="none" stroke="#000000" d="M838.8274,-437.2385C868.6135,-413.6199 913.6363,-377.2184 951.267,-343.8427 1034.1724,-270.3118 1045.3109,-241.2489 1131.267,-171.3087 1164.327,-144.4086 1204.6872,-117.2307 1233.5637,-98.6648"/>
<polygon fill="#000000" stroke="#000000" points="1235.5925,-101.5221 1242.1359,-93.1893 1231.8244,-95.6228 1235.5925,-101.5221"/>
<text text-anchor="start" x="1135.5996" y="-254.7757" font-family="Arial" font-weight="bold" font-size="12.00" fill="#000000"> </text>
</g>
<!-- dabeeeacccddebefbfcaa -->
<g id="node12" class="node">
<title>dabeeeacccddebefbfcaa</title>
<ellipse fill="none" stroke="#000000" cx="298.267" cy="-257.5757" rx="53.9813" ry="53.9813"/>
<text text-anchor="start" x="278.0335" y="-266.9757" font-family="Arial" font-weight="bold" font-size="14.00" fill="#000000">Phone</text>
<text text-anchor="start" x="272.2109" y="-252.9757" font-family="Arial" font-weight="bold" font-size="14.00" fill="#000000">Provider</text>
<text text-anchor="start" x="279.9865" y="-238.9757" font-family="Arial" font-weight="bold" font-size="14.00" fill="#000000">Cloud</text>
</g>
<!-- aeedbbaaddfaabcd&#45;&gt;dabeeeacccddebefbfcaa -->
<g id="edge16" class="edge">
<title>aeedbbaaddfaabcd-&gt;dabeeeacccddebefbfcaa</title>
<path fill="none" stroke="#000000" d="M773.6356,-437.5248C760.2133,-428.2223 744.1163,-418.3715 728.267,-411.8427 589.8063,-354.8066 532.6143,-409.9888 398.267,-343.8427 378.1144,-333.9206 358.7411,-318.9587 342.5019,-304.2674"/>
<polygon fill="#000000" stroke="#000000" points="344.4992,-301.3455 334.792,-297.1004 339.7333,-306.4725 344.4992,-301.3455"/>
<text text-anchor="start" x="671.5996" y="-375.0427" font-family="Arial" font-weight="bold" font-size="12.00" fill="#000000"> </text>
</g>
<!-- bbdeaebdefcdfcdeddcce -->
<g id="node2" class="node">
<title>bbdeaebdefcdfcdeddcce</title>
<ellipse fill="none" stroke="#000000" cx="651.267" cy="-462.7544" rx="41.0244" ry="41.0244"/>
<text text-anchor="start" x="636.4858" y="-465.1544" font-family="Arial" font-weight="bold" font-size="14.00" fill="#000000">Rent</text>
<text text-anchor="start" x="634.1548" y="-451.1544" font-family="Arial" font-weight="bold" font-size="14.00" fill="#000000">API-y</text>
</g>
<!-- bbdeaebdefcdfcdeddcce&#45;&gt;dcffabefabccccaedbd -->
<g id="edge12" class="edge">
<title>bbdeaebdefcdfcdeddcce-&gt;dcffabefabccccaedbd</title>
<path fill="none" stroke="#000000" d="M659.3937,-422.3713C672.696,-356.269 699.2629,-224.2519 715.5319,-143.4072"/>
<polygon fill="#000000" stroke="#000000" points="719.0193,-143.818 717.561,-133.3241 712.1569,-142.437 719.0193,-143.818"/>
<text text-anchor="start" x="713.5996" y="-254.7757" font-family="Arial" font-weight="bold" font-size="12.00" fill="#000000"> </text>
</g>
<!-- faeedeffeeccfefdabd -->
<g id="node8" class="node">
<title>faeedeffeeccfefdabd</title>
<text text-anchor="start" x="449.2081" y="-71.5543" font-family="Arial" font-weight="bold" font-size="14.00" fill="#000000">Oracle Table R</text>
<polyline fill="none" stroke="#000000" points="444.267,-62.1543 548.267,-62.1543 "/>
<polyline fill="none" stroke="#000000" points="548.267,-88.1543 444.267,-88.1543 "/>
</g>
<!-- bbdeaebdefcdfcdeddcce&#45;&gt;faeedeffeeccfefdabd -->
<g id="edge10" class="edge">
<title>bbdeaebdefcdfcdeddcce-&gt;faeedeffeeccfefdabd</title>
<path fill="none" stroke="#000000" d="M635.9808,-424.529C604.8157,-346.5961 534.5838,-170.9711 507.3512,-102.8719"/>
<polygon fill="#000000" stroke="#000000" points="510.4712,-101.2477 503.5083,-93.2622 503.9716,-103.8469 510.4712,-101.2477"/>
<text text-anchor="start" x="607.5996" y="-254.7757" font-family="Arial" font-weight="bold" font-size="12.00" fill="#000000"> </text>
</g>
<!-- cfafcafbfdeeffbfdffcfbf -->
<g id="node4" class="node">
<title>cfafcafbfdeeffbfdffcfbf</title>
<ellipse fill="none" stroke="#000000" cx="465.267" cy="-462.7544" rx="41.0244" ry="41.0244"/>
<text text-anchor="start" x="450.8785" y="-465.1544" font-family="Arial" font-weight="bold" font-size="14.00" fill="#000000">Alert</text>
<text text-anchor="start" x="448.1548" y="-451.1544" font-family="Arial" font-weight="bold" font-size="14.00" fill="#000000">API-y</text>
</g>
<!-- cfafcafbfdeeffbfdffcfbf&#45;&gt;dabeeeacccddebefbfcaa -->
<g id="edge13" class="edge">
<title>cfafcafbfdeeffbfdffcfbf-&gt;dabeeeacccddebefbfcaa</title>
<path fill="none" stroke="#000000" d="M432.7144,-437.3737C417.9779,-425.0652 400.8574,-409.5625 387.267,-393.8427 365.9421,-369.1766 345.7586,-339.0601 330.0204,-313.4187"/>
<polygon fill="#000000" stroke="#000000" points="332.8219,-311.2883 324.6444,-304.5519 326.8361,-314.9176 332.8219,-311.2883"/>
<text text-anchor="start" x="391.2608" y="-375.0427" font-family="Arial" font-weight="bold" font-size="12.00" fill="#000000">push</text>
</g>
<!-- dfcdfbbdbaaeabcecedfdde -->
<g id="node13" class="node">
<title>dfcdfbbdbaaeabcecedfdde</title>
<ellipse fill="none" stroke="#000000" cx="86.267" cy="-257.5757" rx="86.0347" ry="86.0347"/>
<text text-anchor="start" x="36.8792" y="-253.9757" font-family="Arial" font-weight="bold" font-size="14.00" fill="#000000">Fire n' Surf .gov</text>
</g>
<!-- cfafcafbfdeeffbfdffcfbf&#45;&gt;dfcdfbbdbaaeabcecedfdde -->
<g id="edge14" class="edge">
<title>cfafcafbfdeeffbfdffcfbf-&gt;dfcdfbbdbaaeabcecedfdde</title>
<path fill="none" stroke="#000000" d="M424.6622,-455.8504C344.8962,-441.9959 173.6128,-410.6926 152.267,-393.8427 137.3326,-382.0538 125.567,-366.0375 116.3724,-349.1269"/>
<polygon fill="#000000" stroke="#000000" points="119.479,-347.5146 111.7953,-340.2199 113.2529,-350.714 119.479,-347.5146"/>
<text text-anchor="start" x="160.9274" y="-380.0427" font-family="Arial" font-weight="bold" font-size="12.00" fill="#000000">Kafka</text>
<text text-anchor="start" x="156.602" y="-368.0427" font-family="Arial" font-weight="bold" font-size="12.00" fill="#000000">HTTPS</text>
</g>
<!-- eaddecbacbcbcc -->
<g id="node5" class="node">
<title>eaddecbacbcbcc</title>
<ellipse fill="none" stroke="#000000" cx="1111.267" cy="-462.7544" rx="41.0244" ry="41.0244"/>
<text text-anchor="start" x="1096.8708" y="-465.1544" font-family="Arial" font-weight="bold" font-size="14.00" fill="#000000">Auth</text>
<text text-anchor="start" x="1094.1548" y="-451.1544" font-family="Arial" font-weight="bold" font-size="14.00" fill="#000000">API-y</text>
</g>
<!-- eaddecbacbcbcc&#45;&gt;cddeffdbddceaedacfabfcfdfba -->
<g id="edge6" class="edge">
<title>eaddecbacbcbcc-&gt;cddeffdbddceaedacfabfcfdfba</title>
<path fill="none" stroke="#000000" d="M1127.0463,-424.529C1159.2168,-346.5961 1231.7142,-170.9711 1259.8253,-102.8719"/>
<polygon fill="#000000" stroke="#000000" points="1263.2117,-103.8411 1263.7922,-93.2622 1256.7413,-101.1701 1263.2117,-103.8411"/>
<text text-anchor="start" x="1235.598" y="-254.7757" font-family="Arial" font-weight="bold" font-size="12.00" fill="#000000">Token-y</text>
</g>
<!-- beddcffdabbedfadacb -->
<g id="node6" class="node">
<title>beddcffdabbedfadacb</title>
<ellipse fill="none" stroke="#000000" cx="1426.267" cy="-462.7544" rx="50.8235" ry="50.8235"/>
<text text-anchor="start" x="1402.1506" y="-459.1544" font-family="Arial" font-weight="bold" font-size="14.00" fill="#000000">All Auth</text>
</g>
<!-- beddcffdabbedfadacb&#45;&gt;cddeffdbddceaedacfabfcfdfba -->
<g id="edge7" class="edge">
<title>beddcffdabbedfadacb-&gt;cddeffdbddceaedacfabfcfdfba</title>
<path fill="none" stroke="#000000" d="M1416.8424,-412.6691C1404.4338,-353.0639 1379.4807,-251.5248 1340.267,-171.3087 1327.8248,-145.8566 1308.7689,-119.9278 1293.833,-101.4194"/>
<polygon fill="#000000" stroke="#000000" points="1296.3514,-98.9712 1287.2991,-93.466 1290.9426,-103.4147 1296.3514,-98.9712"/>
<text text-anchor="start" x="1404.5996" y="-254.7757" font-family="Arial" font-weight="bold" font-size="12.00" fill="#000000"> </text>
</g>
<!-- bbafbeacfeeacbedbcbeb -->
<g id="node10" class="node">
<title>bbafbeacfeeacbedbcbeb</title>
<polygon fill="none" stroke="#000000" points="773.267,-894.6022 669.267,-894.6022 669.267,-790.6022 773.267,-790.6022 773.267,-894.6022"/>
<text text-anchor="start" x="681.1997" y="-839.0022" font-family="Arial" font-weight="bold" font-size="14.00" fill="#000000">App-y-tenant</text>
</g>
<!-- fdedecdffddacddebbac -->
<g id="node11" class="node">
<title>fdedecdffddacddebbac</title>
<ellipse fill="none" stroke="#000000" cx="721.267" cy="-666.1341" rx="66.4361" ry="66.4361"/>
<text text-anchor="start" x="686.26" y="-662.5341" font-family="Arial" font-weight="bold" font-size="14.00" fill="#000000">Mobile App</text>
</g>
<!-- bbafbeacfeeacbedbcbeb&#45;&gt;fdedecdffddacddebbac -->
<g id="edge1" class="edge">
<title>bbafbeacfeeacbedbcbeb-&gt;fdedecdffddacddebbac</title>
<path fill="none" stroke="#000000" d="M721.267,-790.1337C721.267,-775.3822 721.267,-759.0252 721.267,-743.1597"/>
<polygon fill="#000000" stroke="#000000" points="724.7671,-742.8265 721.267,-732.8265 717.7671,-742.8266 724.7671,-742.8265"/>
<text text-anchor="start" x="725.5962" y="-758.8022" font-family="Arial" font-weight="bold" font-size="12.00" fill="#000000">use</text>
</g>
<!-- fdedecdffddacddebbac&#45;&gt;aeedbbaaddfaabcd -->
<g id="edge2" class="edge">
<title>fdedecdffddacddebbac-&gt;aeedbbaaddfaabcd</title>
<path fill="none" stroke="#000000" d="M747.0005,-604.5616C759.6325,-574.3371 774.6179,-538.4815 786.3596,-510.3869"/>
<polygon fill="#000000" stroke="#000000" points="789.7415,-511.3714 790.3684,-500.7951 783.2829,-508.6721 789.7415,-511.3714"/>
<text text-anchor="start" x="772.602" y="-567.8661" font-family="Arial" font-weight="bold" font-size="12.00" fill="#000000">HTTPS</text>
<text text-anchor="start" x="776.2668" y="-555.8661" font-family="Arial" font-weight="bold" font-size="12.00" fill="#000000">JSON</text>
</g>
<!-- fdedecdffddacddebbac&#45;&gt;bbdeaebdefcdfcdeddcce -->
<g id="edge4" class="edge">
<title>fdedecdffddacddebbac-&gt;bbdeaebdefcdfcdeddcce</title>
<path fill="none" stroke="#000000" d="M678.5183,-614.9641C671.6735,-604.4972 665.47,-593.153 661.267,-581.6661 653.467,-560.3483 650.5121,-535.4953 649.6836,-514.0385"/>
<polygon fill="#000000" stroke="#000000" points="653.177,-513.7206 649.4358,-503.8084 646.179,-513.8902 653.177,-513.7206"/>
<text text-anchor="start" x="665.602" y="-567.8661" font-family="Arial" font-weight="bold" font-size="12.00" fill="#000000">HTTPS</text>
<text text-anchor="start" x="669.2668" y="-555.8661" font-family="Arial" font-weight="bold" font-size="12.00" fill="#000000">JSON</text>
</g>
<!-- fdedecdffddacddebbac&#45;&gt;eaddecbacbcbcc -->
<g id="edge5" class="edge">
<title>fdedecdffddacddebbac-&gt;eaddecbacbcbcc</title>
<path fill="none" stroke="#000000" d="M780.4996,-635.2451C858.7077,-594.4607 994.758,-523.5123 1065.5357,-486.6027"/>
<polygon fill="#000000" stroke="#000000" points="1067.4147,-489.5702 1074.6631,-481.8429 1064.1779,-483.3634 1067.4147,-489.5702"/>
<text text-anchor="start" x="943.602" y="-567.8661" font-family="Arial" font-weight="bold" font-size="12.00" fill="#000000">HTTPS</text>
<text text-anchor="start" x="947.2668" y="-555.8661" font-family="Arial" font-weight="bold" font-size="12.00" fill="#000000">JSON</text>
</g>
<!-- fdedecdffddacddebbac&#45;&gt;dabeeeacccddebefbfcaa -->
<g id="edge3" class="edge">
<title>fdedecdffddacddebbac-&gt;dabeeeacccddebefbfcaa</title>
<path fill="none" stroke="#000000" d="M655.2207,-655.433C538.3316,-632.3095 300.1938,-565.1998 224.267,-393.8427 210.1722,-362.0325 229.1698,-327.6101 251.4387,-301.3206"/>
<polygon fill="#000000" stroke="#000000" points="254.1004,-303.5942 258.1003,-293.7834 248.8553,-298.9584 254.1004,-303.5942"/>
<text text-anchor="start" x="359.5996" y="-459.9544" font-family="Arial" font-weight="bold" font-size="12.00" fill="#000000"> </text>
</g>
<!-- dfcdfbbdbaaeabcecedfdde&#45;&gt;cfafcafbfdeeffbfdffcfbf -->
<g id="edge15" class="edge">
<title>dfcdfbbdbaaeabcecedfdde-&gt;cfafcafbfdeeffbfdffcfbf</title>
<path fill="none" stroke="#000000" d="M155.6319,-309.4933C172.5119,-321.3188 190.7554,-333.4496 208.267,-343.8427 278.1163,-385.2983 364.851,-422.7731 417.583,-444.1385"/>
<polygon fill="#000000" stroke="#000000" points="416.4382,-447.4505 427.0218,-447.9378 419.052,-440.9568 416.4382,-447.4505"/>
<text text-anchor="start" x="302.2608" y="-375.0427" font-family="Arial" font-weight="bold" font-size="12.00" fill="#000000">push</text>
</g>
</g>
</svg>