<?xml version="1.0" encoding="UTF-8" standalone="no"?>
<!DOCTYPE svg PUBLIC "-//W3C//DTD SVG 1.1//EN"
 "http://www.w3.org/Graphics/SVG/1.1/DTD/svg11.dtd">
<!-- Generated by graphviz version 2.43.0 (0)
 -->
<!-- Title: tm Pages: 1 -->
<svg width="1269pt" height="779pt"
 viewBox="0.00 0.00 1269.00 778.81" xmlns="http://www.w3.org/2000/svg" xmlns:xlink="http://www.w3.org/1999/xlink">
<g id="graph0" class="graph" transform="scale(1 1) rotate(0) translate(4 774.81)">
<title>tm</title>
<polygon fill="white" stroke="transparent" points="-4,4 -4,-774.81 1265,-774.81 1265,4 -4,4"/>
<g id="clust1" class="cluster">
<title>cluster_edcdfcbdfdceaedef</title>
<polygon fill="none" stroke="#ee2c2c" stroke-dasharray="5,2" points="150,-103.14 150,-428.28 710,-428.28 710,-103.14 150,-103.14"/>
<text text-anchor="start" x="401.74" y="-417.28" font-family="Arial" font-style="italic" font-size="10.00" fill="#ee2c2c">Internal Web</text>
</g>
<g id="clust2" class="cluster">
<title>cluster_dcceffcefaafdbcebcbfc</title>
<polygon fill="none" stroke="#ee2c2c" stroke-dasharray="5,2" points="759,-8 759,-269.77 1253,-269.77 1253,-8 759,-8"/>
<text text-anchor="start" x="976.08" y="-258.77" font-family="Arial" font-style="italic" font-size="10.00" fill="#ee2c2c">External Web</text>
</g>
<!-- befcfdefafeaaadfd -->
<g id="node1" class="node">
<title>befcfdefafeaaadfd</title>
<ellipse fill="none" stroke="black" cx="199" cy="-359.77" rx="41.02" ry="41.02"/>
<text text-anchor="start" x="186.94" y="-363.57" font-family="Arial" font-weight="bold" font-size="14.00">Buy</text>
<text text-anchor="start" x="181.89" y="-349.57" font-family="Arial" font-weight="bold" font-size="14.00">API&#45;y</text>
</g>
<!-- dbdadadcabeafdeddbf -->
<g id="node4" class="node">
<title>dbdadadcabeafdeddbf</title>
<text text-anchor="start" x="171.72" y="-126.94" font-family="Arial" font-weight="bold" font-size="14.00">Oracle Table B</text>
<polyline fill="none" stroke="black" points="166.5,-116.14 267.5,-116.14 "/>
<polyline fill="none" stroke="black" points="267.5,-142.14 166.5,-142.14 "/>
</g>
<!-- befcfdefafeaaadfd&#45;&gt;dbdadadcabeafdeddbf -->
<g id="edge3" class="edge">
<title>befcfdefafeaaadfd&#45;&gt;dbdadadcabeafdeddbf</title>
<path fill="none" stroke="black" d="M202.16,-318.69C205.8,-272.35 211.71,-197.34 214.86,-157.32"/>
<polygon fill="black" stroke="black" points="218.36,-157.49 215.65,-147.25 211.38,-156.94 218.36,-157.49"/>
<text text-anchor="start" x="210.33" y="-285.67" font-family="Arial" font-weight="bold" font-size="12.00"> </text>
</g>
<!-- abdeeeafebabefacdf -->
<g id="node6" class="node">
<title>abdeeeafebabefacdf</title>
<text text-anchor="start" x="360.99" y="-126.94" font-family="Arial" font-weight="bold" font-size="14.00">Oracle Table Tenants</text>
<polyline fill="none" stroke="black" points="355.5,-116.14 496.5,-116.14 "/>
<polyline fill="none" stroke="black" points="496.5,-142.14 355.5,-142.14 "/>
</g>
<!-- befcfdefafeaaadfd&#45;&gt;abdeeeafebabefacdf -->
<g id="edge6" class="edge">
<title>befcfdefafeaaadfd&#45;&gt;abdeeeafebabefacdf</title>
<path fill="none" stroke="black" d="M232.37,-335.16C255.47,-318.13 286.38,-293.97 311,-269.77 348.35,-233.07 385.84,-184.94 407.43,-155.84"/>
<polygon fill="black" stroke="black" points="410.5,-157.58 413.61,-147.45 404.86,-153.43 410.5,-157.58"/>
<text text-anchor="start" x="307.33" y="-285.67" font-family="Arial" font-weight="bold" font-size="12.00"> </text>
</g>
<!-- bdeaedabecfeeffced -->
<g id="node8" class="node">
<title>bdeaedabecfeeffced</title>
<ellipse fill="none" stroke="black" cx="1132" cy="-129.14" rx="113.27" ry="113.27"/>
<text text-anchor="start" x="1063.51" y="-126.94" font-family="Arial" font-weight="bold" font-size="14.00">Phone Provider Cloud</text>
</g>
<!-- befcfdefafeaaadfd&#45;&gt;bdeaedabecfeeffced -->
<g id="edge13" class="edge">
<title>befcfdefafeaaadfd&#45;&gt;bdeaedabecfeeffced</title>
<path fill="none" stroke="black" d="M232.8,-335.91C245.75,-328.37 261.02,-320.87 276,-316.77 387.96,-286.16 682.69,-311.99 798,-298.77 846.15,-293.25 857.07,-284.92 905,-277.77 939.47,-272.63 951.29,-284.22 983,-269.77 1007.85,-258.45 1031.24,-241.29 1051.8,-222.84"/>
<polygon fill="black" stroke="black" points="1054.25,-225.34 1059.24,-216 1049.51,-220.19 1054.25,-225.34"/>
<text text-anchor="start" x="909.33" y="-285.67" font-family="Arial" font-weight="bold" font-size="12.00"> </text>
</g>
<!-- cbacaafdbbdea -->
<g id="node2" class="node">
<title>cbacaafdbbdea</title>
<ellipse fill="none" stroke="black" cx="507" cy="-359.77" rx="41.02" ry="41.02"/>
<text text-anchor="start" x="492.21" y="-363.57" font-family="Arial" font-weight="bold" font-size="14.00">Rent</text>
<text text-anchor="start" x="489.89" y="-349.57" font-family="Arial" font-weight="bold" font-size="14.00">API&#45;y</text>
</g>
<!-- edcacdffccbcdae -->
<g id="node5" class="node">
<title>edcacdffccbcdae</title>
<text text-anchor="start" x="589.83" y="-126.94" font-family="Arial" font-weight="bold" font-size="14.00">Oracle Table R</text>
<polyline fill="none" stroke="black" points="585,-116.14 687,-116.14 "/>
<polyline fill="none" stroke="black" points="687,-142.14 585,-142.14 "/>
</g>
<!-- cbacaafdbbdea&#45;&gt;edcacdffccbcdae -->
<g id="edge4" class="edge">
<title>cbacaafdbbdea&#45;&gt;edcacdffccbcdae</title>
<path fill="none" stroke="black" d="M526.87,-323.55C552.97,-277.3 598.18,-197.17 621.37,-156.08"/>
<polygon fill="black" stroke="black" points="624.5,-157.65 626.36,-147.22 618.4,-154.21 624.5,-157.65"/>
<text text-anchor="start" x="556.33" y="-285.67" font-family="Arial" font-weight="bold" font-size="12.00"> </text>
</g>
<!-- cbacaafdbbdea&#45;&gt;abdeeeafebabefacdf -->
<g id="edge5" class="edge">
<title>cbacaafdbbdea&#45;&gt;abdeeeafebabefacdf</title>
<path fill="none" stroke="black" d="M493.53,-320.76C477.11,-274.41 449.77,-197.24 435.44,-156.77"/>
<polygon fill="black" stroke="black" points="438.72,-155.57 432.09,-147.31 432.13,-157.91 438.72,-155.57"/>
<text text-anchor="start" x="489.33" y="-285.67" font-family="Arial" font-weight="bold" font-size="12.00"> </text>
</g>
<!-- cbfdfcdafcbfdbd -->
<g id="node3" class="node">
<title>cbfdfcdafcbfdbd</title>
<ellipse fill="none" stroke="black" cx="661" cy="-359.77" rx="41.02" ry="41.02"/>
<text text-anchor="start" x="646.61" y="-363.57" font-family="Arial" font-weight="bold" font-size="14.00">Alert</text>
<text text-anchor="start" x="643.89" y="-349.57" font-family="Arial" font-weight="bold" font-size="14.00">API&#45;y</text>
</g>
<!-- cbfdfcdafcbfdbd&#45;&gt;abdeeeafebabefacdf -->
<g id="edge7" class="edge">
<title>cbfdfcdafcbfdbd&#45;&gt;abdeeeafebabefacdf</title>
<path fill="none" stroke="black" d="M637.02,-326.47C622.64,-309.4 602.92,-289.59 581,-277.77 565.04,-269.17 556.55,-279.09 541,-269.77 494.65,-242.02 458.67,-188.51 440.04,-156.4"/>
<polygon fill="black" stroke="black" points="443.01,-154.54 435.04,-147.56 436.92,-157.98 443.01,-154.54"/>
<text text-anchor="start" x="612.33" y="-285.67" font-family="Arial" font-weight="bold" font-size="12.00"> </text>
</g>
<!-- cbfdfcdafcbfdbd&#45;&gt;bdeaedabecfeeffced -->
<g id="edge1" class="edge">
<title>cbfdfcdafcbfdbd&#45;&gt;bdeaedabecfeeffced</title>
<path fill="none" stroke="black" d="M702.09,-359.23C765.71,-358.23 890.08,-349.26 980,-298.77 1010.5,-281.65 1038.12,-256.13 1061.19,-230.1"/>
<polygon fill="black" stroke="black" points="1063.97,-232.23 1067.89,-222.39 1058.69,-227.64 1063.97,-232.23"/>
<text text-anchor="start" x="1013.99" y="-285.67" font-family="Arial" font-weight="bold" font-size="12.00">push</text>
</g>
<!-- ceebfeddceaeffcedebbbdfd -->
<g id="node9" class="node">
<title>ceebfeddceaeffcedebbbdfd</title>
<ellipse fill="none" stroke="black" cx="857" cy="-129.14" rx="89.61" ry="89.61"/>
<text text-anchor="start" x="805.54" y="-126.94" font-family="Arial" font-weight="bold" font-size="14.00">Fire &#39;n&#39; Stuff .gov</text>
</g>
<!-- cbfdfcdafcbfdbd&#45;&gt;ceebfeddceaeffcedebbbdfd -->
<g id="edge14" class="edge">
<title>cbfdfcdafcbfdbd&#45;&gt;ceebfeddceaeffcedebbbdfd</title>
<path fill="none" stroke="black" d="M701.93,-355.28C767.52,-348.75 891.48,-332.2 918,-298.77 938.52,-272.91 931.58,-239.54 916.4,-209.32"/>
<polygon fill="black" stroke="black" points="919.47,-207.65 911.68,-200.48 913.3,-210.95 919.47,-207.65"/>
<text text-anchor="start" x="931.99" y="-285.67" font-family="Arial" font-weight="bold" font-size="12.00">https</text>
</g>
<!-- fffcaaaaadddccccecebeeff -->
<g id="node7" class="node">
<title>fffcaaaaadddccccecebeeff</title>
<ellipse fill="none" stroke="black" cx="353" cy="-359.77" rx="41.02" ry="41.02"/>
<text text-anchor="start" x="338.6" y="-363.57" font-family="Arial" font-weight="bold" font-size="14.00">Auth</text>
<text text-anchor="start" x="335.89" y="-349.57" font-family="Arial" font-weight="bold" font-size="14.00">API&#45;y</text>
</g>
<!-- fffcaaaaadddccccecebeeff&#45;&gt;abdeeeafebabefacdf -->
<g id="edge8" class="edge">
<title>fffcaaaaadddccccecebeeff&#45;&gt;abdeeeafebabefacdf</title>
<path fill="none" stroke="black" d="M365.22,-320.5C380,-274.2 404.52,-197.41 417.43,-156.97"/>
<polygon fill="black" stroke="black" points="420.82,-157.86 420.53,-147.27 414.15,-155.73 420.82,-157.86"/>
<text text-anchor="start" x="382.32" y="-285.67" font-family="Arial" font-weight="bold" font-size="12.00">auth</text>
</g>
<!-- deaacefbafdecabbebcfddccdeaacaaff -->
<g id="node11" class="node">
<title>deaacefbafdecabbebcfddccdeaacaaff</title>
<ellipse fill="none" stroke="black" cx="430" cy="-541.05" rx="65.52" ry="65.52"/>
<text text-anchor="start" x="395.87" y="-538.85" font-family="Arial" font-weight="bold" font-size="14.00">Mobile App</text>
</g>
<!-- bdeaedabecfeeffced&#45;&gt;deaacefbafdecabbebcfddccdeaacaaff -->
<g id="edge2" class="edge">
<title>bdeaedabecfeeffced&#45;&gt;deaacefbafdecabbebcfddccdeaacaaff</title>
<path fill="none" stroke="black" d="M1102.21,-238.48C1092.23,-260.52 1079.12,-282.05 1062,-298.77 903.71,-453.38 636.11,-511.1 505.82,-530.8"/>
<polygon fill="black" stroke="black" points="504.93,-527.4 495.55,-532.32 505.95,-534.32 504.93,-527.4"/>
<text text-anchor="start" x="1043.33" y="-357.17" font-family="Arial" font-weight="bold" font-size="12.00"> </text>
</g>
<!-- ceebfeddceaeffcedebbbdfd&#45;&gt;cbfdfcdafcbfdbd -->
<g id="edge15" class="edge">
<title>ceebfeddceaeffcedebbbdfd&#45;&gt;cbfdfcdafcbfdbd</title>
<path fill="none" stroke="black" d="M798.89,-197.92C764.68,-237.83 722.64,-286.86 694.04,-320.23"/>
<polygon fill="black" stroke="black" points="691.28,-318.07 687.43,-327.94 696.6,-322.62 691.28,-318.07"/>
<text text-anchor="start" x="733.32" y="-285.67" font-family="Arial" font-weight="bold" font-size="12.00">callback</text>
</g>
<!-- beffadbafbaeeceacefdaac -->
<g id="node10" class="node">
<title>beffadbafbaeeceacefdaac</title>
<polygon fill="none" stroke="black" points="483.5,-770.81 376.5,-770.81 376.5,-663.81 483.5,-663.81 483.5,-770.81"/>
<text text-anchor="start" x="388.87" y="-715.11" font-family="Arial" font-weight="bold" font-size="14.00">App&#45;y&#45;Tenant</text>
</g>
<!-- beffadbafbaeeceacefdaac&#45;&gt;deaacefbafdecabbebcfddccdeaacaaff -->
<g id="edge10" class="edge">
<title>beffadbafbaeeceacefdaac&#45;&gt;deaacefbafdecabbebcfddccdeaacaaff</title>
<path fill="none" stroke="black" d="M430,-663.55C430,-648.92 430,-632.76 430,-617.12"/>
<polygon fill="black" stroke="black" points="433.5,-616.94 430,-606.94 426.5,-616.94 433.5,-616.94"/>
<text text-anchor="start" x="434.33" y="-632.71" font-family="Arial" font-weight="bold" font-size="12.00">use</text>
</g>
<!-- deaacefbafdecabbebcfddccdeaacaaff&#45;&gt;befcfdefafeaaadfd -->
<g id="edge11" class="edge">
<title>deaacefbafdecabbebcfddccdeaacaaff&#45;&gt;befcfdefafeaaadfd</title>
<path fill="none" stroke="black" d="M373.89,-506.38C351.27,-492.07 325.3,-474.69 303,-457.28 279.07,-438.6 254.07,-415.54 234.59,-396.64"/>
<polygon fill="black" stroke="black" points="237,-394.11 227.4,-389.62 232.11,-399.11 237,-394.11"/>
<text text-anchor="start" x="306.99" y="-444.18" font-family="Arial" font-weight="bold" font-size="12.00">https</text>
</g>
<!-- deaacefbafdecabbebcfddccdeaacaaff&#45;&gt;cbacaafdbbdea -->
<g id="edge12" class="edge">
<title>deaacefbafdecabbebcfddccdeaacaaff&#45;&gt;cbacaafdbbdea</title>
<path fill="none" stroke="black" d="M455.64,-480.35C465.9,-456.47 477.53,-429.38 487.13,-407.03"/>
<polygon fill="black" stroke="black" points="490.38,-408.33 491.11,-397.76 483.95,-405.57 490.38,-408.33"/>
<text text-anchor="start" x="476.99" y="-444.18" font-family="Arial" font-weight="bold" font-size="12.00">https</text>
</g>
<!-- deaacefbafdecabbebcfddccdeaacaaff&#45;&gt;fffcaaaaadddccccecebeeff -->
<g id="edge9" class="edge">
<title>deaacefbafdecabbebcfddccdeaacaaff&#45;&gt;fffcaaaaadddccccecebeeff</title>
<path fill="none" stroke="black" d="M384.05,-493.77C375.34,-482.63 367.31,-470.18 362,-457.28 356.12,-443 353.3,-426.54 352.1,-411.32"/>
<polygon fill="black" stroke="black" points="355.58,-410.8 351.51,-401.01 348.59,-411.19 355.58,-410.8"/>
<text text-anchor="start" x="365.99" y="-444.18" font-family="Arial" font-weight="bold" font-size="12.00">https</text>
</g>
<!-- cdaabdfabceaffff -->
<g id="node12" class="node">
<title>cdaabdfabceaffff</title>
<polygon fill="none" stroke="black" points="86,-402.77 0,-402.77 0,-316.77 86,-316.77 86,-402.77"/>
<text text-anchor="start" x="15.38" y="-363.57" font-family="Arial" font-weight="bold" font-size="14.00">Operator</text>
<text text-anchor="start" x="11.87" y="-349.57" font-family="Arial" font-weight="bold" font-size="14.00">Employee</text>
</g>
<!-- cdaabdfabceaffff&#45;&gt;abdeeeafebabefacdf -->
<g id="edge16" class="edge">
<title>cdaabdfabceaffff&#45;&gt;abdeeeafebabefacdf</title>
<path fill="none" stroke="black" d="M84.38,-316.62C101.87,-301.55 123.41,-286.21 146,-277.77 180.39,-264.93 278.19,-286.24 311,-269.77 359.79,-245.28 395.35,-189.66 413.15,-156.49"/>
<polygon fill="black" stroke="black" points="416.38,-157.85 417.89,-147.37 410.17,-154.62 416.38,-157.85"/>
<text text-anchor="start" x="149.66" y="-285.67" font-family="Arial" font-weight="bold" font-size="12.00">admin</text>
</g>
</g>
</svg>
