<?xml version="1.0" encoding="UTF-8" standalone="no"?>
<!DOCTYPE svg PUBLIC "-//W3C//DTD SVG 1.1//EN"
 "http://www.w3.org/Graphics/SVG/1.1/DTD/svg11.dtd">
<!-- Generated by graphviz version 2.38.0 (20140413.2041)
 -->
<!-- Title: tm Pages: 1 -->
<svg width="1014pt" height="1018pt"
 viewBox="0.00 0.00 1014.00 1017.51" xmlns="http://www.w3.org/2000/svg" xmlns:xlink="http://www.w3.org/1999/xlink">
<g id="graph0" class="graph" transform="scale(1 1) rotate(0) translate(4 1013.51)">
<title>tm</title>
<polygon fill="white" stroke="none" points="-4,4 -4,-1013.51 1010,-1013.51 1010,4 -4,4"/>
<g id="clust1" class="cluster"><title>cluster_ebfdeebacddeedccfbbfdceebeddac</title>
<polygon fill="none" stroke="#ee2c2c" stroke-dasharray="5,2" points="8,-560.683 8,-1001.51 428,-1001.51 428,-560.683 8,-560.683"/>
<text text-anchor="start" x="188" y="-990.509" font-family="Arial" font-style="italic" font-size="10.00" fill="#ee2c2c">Inside the car</text>
</g>
<g id="clust2" class="cluster"><title>cluster_deffadbbecbaffaffcdd</title>
<polygon fill="none" stroke="#ee2c2c" stroke-dasharray="5,2" points="890,-151.79 890,-278.714 998,-278.714 998,-151.79 890,-151.79"/>
<text text-anchor="start" x="933.5" y="-267.714" font-family="Arial" font-style="italic" font-size="10.00" fill="#ee2c2c">DMZ</text>
</g>
<g id="clust3" class="cluster"><title>cluster_cacebafcaebeabfbbacecaba</title>
<polygon fill="none" stroke="#ee2c2c" stroke-dasharray="5,2" points="212,-8 212,-518.855 834,-518.855 834,-8 212,-8"/>
<text text-anchor="start" x="521" y="-507.855" font-family="Arial" font-style="italic" font-size="10.00" fill="#ee2c2c"> </text>
</g>
<!-- aaafaecedffadddebbefcdbbbd -->
<g id="node1" class="node"><title>aaafaecedffadddebbefcdbbbd</title>
<polygon fill="none" stroke="black" points="420,-950.292 278,-950.292 278,-808.292 420,-808.292 420,-950.292"/>
<text text-anchor="start" x="290" y="-876.092" font-family="Arial" font-weight="bold" font-size="14.00">Customer Phone</text>
</g>
<!-- cbbaebebaaaddcbbfdfcefdedaacd -->
<g id="node2" class="node"><title>cbbaebebaaaddcbbfdfcefdedaacd</title>
<ellipse fill="none" stroke="black" cx="340" cy="-646.465" rx="77.5641" ry="77.5641"/>
<text text-anchor="start" x="297" y="-643.265" font-family="Arial" font-weight="bold" font-size="14.00">Cadz Mobile</text>
</g>
<!-- aaafaecedffadddebbefcdbbbd&#45;&gt;cbbaebebaaaddcbbfdfcefdedaacd -->
<g id="edge2" class="edge"><title>aaafaecedffadddebbefcdbbbd&#45;&gt;cbbaebebaaaddcbbfdfcefdedaacd</title>
<path fill="none" stroke="black" d="M346.263,-808.096C345.363,-785.001 344.35,-759.036 343.406,-734.824"/>
<polygon fill="black" stroke="black" points="346.893,-734.424 343.006,-724.568 339.899,-734.697 346.893,-734.424"/>
<text text-anchor="start" x="349" y="-752.975" font-family="Arial" font-weight="bold" font-size="12.00">Launch</text>
</g>
<!-- edeefeaeddcfbaeaafbed -->
<g id="node6" class="node"><title>edeefeaeddcfbaeaafbed</title>
<ellipse fill="none" stroke="black" cx="562" cy="-412.659" rx="79.3924" ry="79.3924"/>
<text text-anchor="start" x="518" y="-409.459" font-family="Arial" font-weight="bold" font-size="14.00">API Gateway</text>
</g>
<!-- cbbaebebaaaddcbbfdfcefdedaacd&#45;&gt;edeefeaeddcfbaeaafbed -->
<g id="edge4" class="edge"><title>cbbaebebaaaddcbbfdfcefdedaacd&#45;&gt;edeefeaeddcfbaeaafbed</title>
<path fill="none" stroke="black" d="M393.457,-589.647C425.678,-556.003 466.84,-513.022 500.42,-477.959"/>
<polygon fill="black" stroke="black" points="503.076,-480.246 507.464,-470.603 498.02,-475.405 503.076,-480.246"/>
<text text-anchor="start" x="455.5" y="-534.755" font-family="Arial" font-weight="bold" font-size="12.00">HTTPS</text>
</g>
<!-- dcbcdbadccdabbbcfadee -->
<g id="node3" class="node"><title>dcbcdbadccdabbbcfadee</title>
<ellipse fill="none" stroke="black" cx="111" cy="-879.292" rx="91.4249" ry="91.4249"/>
<ellipse fill="none" stroke="black" cx="111" cy="-879.292" rx="95.434" ry="95.434"/>
<text text-anchor="start" x="59" y="-876.092" font-family="Arial" font-weight="bold" font-size="14.00">Connected Car</text>
</g>
<!-- dcbcdbadccdabbbcfadee&#45;&gt;cbbaebebaaaddcbbfdfcefdedaacd -->
<g id="edge16" class="edge"><title>dcbcdbadccdabbbcfadee&#45;&gt;cbbaebebaaaddcbbfdfcefdedaacd</title>
<path fill="none" stroke="black" d="M177.852,-810.907C209.506,-779 247.075,-741.132 278.075,-709.884"/>
<polygon fill="black" stroke="black" points="280.839,-712.067 285.398,-702.503 275.87,-707.137 280.839,-712.067"/>
<text text-anchor="start" x="244.5" y="-752.975" font-family="Arial" font-weight="bold" font-size="12.00">Bluetooth</text>
</g>
<!-- cbcfcfeebbebeafaaafad -->
<g id="node4" class="node"><title>cbcfcfeebbebeafaaafad</title>
<ellipse fill="none" stroke="black" cx="111" cy="-646.465" rx="38.7821" ry="38.7821"/>
<text text-anchor="start" x="96" y="-643.265" font-family="Arial" font-weight="bold" font-size="14.00">ABC</text>
</g>
<!-- dcbcdbadccdabbbcfadee&#45;&gt;cbcfcfeebbebeafaaafad -->
<g id="edge14" class="edge"><title>dcbcdbadccdabbbcfadee&#45;&gt;cbcfcfeebbebeafaaafad</title>
<path fill="none" stroke="black" d="M108.993,-784.046C108.887,-770.957 108.871,-757.681 109,-745.075 109.165,-728.947 109.484,-711.323 109.819,-695.543"/>
<polygon fill="black" stroke="black" points="113.32,-695.548 110.04,-685.473 106.322,-695.394 113.32,-695.548"/>
<text text-anchor="start" x="113" y="-752.975" font-family="Arial" font-weight="bold" font-size="12.00"> </text>
</g>
<!-- dcdcdbdeedebdddaeebbbcc -->
<g id="node13" class="node"><title>dcdcdbdeedebdddaeebbbcc</title>
<text text-anchor="start" x="269" y="-36.8416" font-family="Arial" font-weight="bold" font-size="14.00">Cars DB</text>
<polyline fill="none" stroke="black" points="264,-27.5416 332,-27.5416 "/>
<polyline fill="none" stroke="black" points="332,-52.5416 264,-52.5416 "/>
</g>
<!-- cbcfcfeebbebeafaaafad&#45;&gt;dcdcdbdeedebdddaeebbbcc -->
<g id="edge15" class="edge"><title>cbcfcfeebbebeafaaafad&#45;&gt;dcdcdbdeedebdddaeebbbcc</title>
<path fill="none" stroke="black" d="M107.532,-607.629C101.184,-518.796 95.5741,-292.513 184,-135.042 201.078,-104.629 232.173,-80.0057 257.579,-63.6007"/>
<polygon fill="black" stroke="black" points="259.676,-66.4172 266.296,-58.1449 255.962,-60.4837 259.676,-66.4172"/>
<text text-anchor="start" x="130" y="-302.363" font-family="Arial" font-weight="bold" font-size="12.00"> </text>
</g>
<!-- caeacffecebffaadaed -->
<g id="node5" class="node"><title>caeacffecebffaadaed</title>
<ellipse fill="none" stroke="black" cx="944" cy="-205.752" rx="45.9239" ry="45.9239"/>
<text text-anchor="start" x="924" y="-202.552" font-family="Arial" font-weight="bold" font-size="14.00">API AI</text>
</g>
<!-- bceeebfabdfbccabedaccde -->
<g id="node16" class="node"><title>bceeebfabdfbccabedaccde</title>
<polygon fill="none" stroke="black" points="982,-78.0416 906,-78.0416 906,-2.04163 982,-2.04163 982,-78.0416"/>
<text text-anchor="start" x="918" y="-36.8416" font-family="Arial" font-weight="bold" font-size="14.00">Watson</text>
</g>
<!-- caeacffecebffaadaed&#45;&gt;bceeebfabdfbccabedaccde -->
<g id="edge11" class="edge"><title>caeacffecebffaadaed&#45;&gt;bceeebfabdfbccabedaccde</title>
<path fill="none" stroke="black" d="M944,-159.584C944,-137.443 944,-110.785 944,-88.3618"/>
<polygon fill="black" stroke="black" points="947.5,-88.0614 944,-78.0615 940.5,-88.0615 947.5,-88.0614"/>
<text text-anchor="start" x="948" y="-103.942" font-family="Arial" font-weight="bold" font-size="12.00"> </text>
</g>
<!-- edeefeaeddcfbaeaafbed&#45;&gt;caeacffecebffaadaed -->
<g id="edge5" class="edge"><title>edeefeaeddcfbaeaafbed&#45;&gt;caeacffecebffaadaed</title>
<path fill="none" stroke="black" d="M635.907,-383.397C695.996,-359.111 781.982,-321.337 852,-278.714 868.953,-268.394 886.391,-255.447 901.465,-243.389"/>
<polygon fill="black" stroke="black" points="904.019,-245.824 909.578,-236.804 899.607,-240.389 904.019,-245.824"/>
<text text-anchor="start" x="827.5" y="-302.363" font-family="Arial" font-weight="bold" font-size="12.00">HTTP</text>
</g>
<!-- defcdafddccbccba -->
<g id="node7" class="node"><title>defcdafddccbccba</title>
<ellipse fill="none" stroke="black" cx="260" cy="-205.752" rx="40.1111" ry="40.1111"/>
<text text-anchor="start" x="244" y="-202.552" font-family="Arial" font-weight="bold" font-size="14.00">Auth</text>
</g>
<!-- edeefeaeddcfbaeaafbed&#45;&gt;defcdafddccbccba -->
<g id="edge12" class="edge"><title>edeefeaeddcfbaeaafbed&#45;&gt;defcdafddccbccba</title>
<path fill="none" stroke="black" d="M491.624,-376.217C445.497,-351.58 384.909,-316.484 336,-278.714 321.946,-267.861 307.548,-254.809 295.116,-242.817"/>
<polygon fill="black" stroke="black" points="297.247,-240.005 287.65,-235.517 292.353,-245.01 297.247,-240.005"/>
<text text-anchor="start" x="387" y="-302.363" font-family="Arial" font-weight="bold" font-size="12.00">Kerberos</text>
</g>
<!-- feddafabacdadcfdfee -->
<g id="node8" class="node"><title>feddafabacdadcfdfee</title>
<ellipse fill="none" stroke="black" cx="406" cy="-205.752" rx="33.8824" ry="33.8824"/>
<text text-anchor="start" x="394" y="-202.552" font-family="Arial" font-weight="bold" font-size="14.00">API</text>
</g>
<!-- edeefeaeddcfbaeaafbed&#45;&gt;feddafabacdadcfdfee -->
<g id="edge8" class="edge"><title>edeefeaeddcfbaeaafbed&#45;&gt;feddafabacdadcfdfee</title>
<path fill="none" stroke="black" d="M514.347,-349.067C487.435,-313.717 454.812,-270.867 432.44,-241.481"/>
<polygon fill="black" stroke="black" points="434.972,-239.029 426.13,-233.193 429.402,-243.269 434.972,-239.029"/>
<text text-anchor="start" x="493.5" y="-302.363" font-family="Arial" font-weight="bold" font-size="12.00">HTTP</text>
</g>
<!-- cebcbadfdcacbfccebb -->
<g id="node9" class="node"><title>cebcbadfdcacbfccebb</title>
<ellipse fill="none" stroke="black" cx="562" cy="-205.752" rx="50.41" ry="50.41"/>
<text text-anchor="start" x="539" y="-202.552" font-family="Arial" font-weight="bold" font-size="14.00">API AR</text>
</g>
<!-- edeefeaeddcfbaeaafbed&#45;&gt;cebcbadfdcacbfccebb -->
<g id="edge7" class="edge"><title>edeefeaeddcfbaeaafbed&#45;&gt;cebcbadfdcacbfccebb</title>
<path fill="none" stroke="black" d="M562,-333.315C562,-310.984 562,-287.033 562,-266.04"/>
<polygon fill="black" stroke="black" points="565.5,-265.992 562,-255.992 558.5,-265.992 565.5,-265.992"/>
<text text-anchor="start" x="566.5" y="-302.363" font-family="Arial" font-weight="bold" font-size="12.00">HTTP/2</text>
</g>
<!-- aaedddcebefbebabd -->
<g id="node10" class="node"><title>aaedddcebefbebabd</title>
<ellipse fill="none" stroke="black" cx="755" cy="-205.752" rx="70.922" ry="70.922"/>
<text text-anchor="start" x="717" y="-202.552" font-family="Arial" font-weight="bold" font-size="14.00">API AM/FM</text>
</g>
<!-- edeefeaeddcfbaeaafbed&#45;&gt;aaedddcebefbebabd -->
<g id="edge6" class="edge"><title>edeefeaeddcfbaeaafbed&#45;&gt;aaedddcebefbebabd</title>
<path fill="none" stroke="black" d="M616.018,-354.309C642.224,-326.486 673.653,-293.118 699.989,-265.157"/>
<polygon fill="black" stroke="black" points="702.611,-267.478 706.92,-257.798 697.516,-262.678 702.611,-267.478"/>
<text text-anchor="start" x="675" y="-302.363" font-family="Arial" font-weight="bold" font-size="12.00">SSH</text>
</g>
<!-- feddafabacdadcfdfee&#45;&gt;dcdcdbdeedebdddaeebbbcc -->
<g id="edge9" class="edge"><title>feddafabacdadcfdfee&#45;&gt;dcdcdbdeedebdddaeebbbcc</title>
<path fill="none" stroke="black" d="M387.679,-176.981C367.391,-146.227 334.939,-97.0357 315.138,-67.0208"/>
<polygon fill="black" stroke="black" points="317.855,-64.783 309.427,-58.3631 312.012,-68.6377 317.855,-64.783"/>
<text text-anchor="start" x="350" y="-103.942" font-family="Arial" font-weight="bold" font-size="12.00"> </text>
</g>
<!-- adadefacfbffbbffbffa -->
<g id="node11" class="node"><title>adadefacfbffbbffbffa</title>
<ellipse fill="none" stroke="black" cx="558" cy="-40.0416" rx="24.0833" ry="24.0833"/>
<text text-anchor="start" x="553" y="-36.8416" font-family="Arial" font-weight="bold" font-size="14.00">?</text>
</g>
<!-- cebcbadfdcacbfccebb&#45;&gt;adadefacfbffbbffbffa -->
<g id="edge13" class="edge"><title>cebcbadfdcacbfccebb&#45;&gt;adadefacfbffbbffbffa</title>
<path fill="none" stroke="black" d="M560.789,-155.189C560.151,-129.074 559.385,-97.7357 558.818,-74.5076"/>
<polygon fill="black" stroke="black" points="562.315,-74.3654 558.572,-64.4539 555.317,-74.5364 562.315,-74.3654"/>
<text text-anchor="start" x="564" y="-103.942" font-family="Arial" font-weight="bold" font-size="12.00"> </text>
</g>
<!-- dddabcdbcaeffdbaafc -->
<g id="node12" class="node"><title>dddabcdbcaeffdbaafc</title>
<text text-anchor="start" x="668" y="-36.8416" font-family="Arial" font-weight="bold" font-size="14.00">Flatfile radio stations</text>
<polyline fill="none" stroke="black" points="662.5,-27.5416 817.5,-27.5416 "/>
<polyline fill="none" stroke="black" points="817.5,-52.5416 662.5,-52.5416 "/>
</g>
<!-- aaedddcebefbebabd&#45;&gt;dddabcdbcaeffdbaafc -->
<g id="edge10" class="edge"><title>aaedddcebefbebabd&#45;&gt;dddabcdbcaeffdbaafc</title>
<path fill="none" stroke="black" d="M748.639,-135.324C746.473,-111.686 744.177,-86.6327 742.497,-68.2975"/>
<polygon fill="black" stroke="black" points="745.959,-67.7204 741.561,-58.0815 738.988,-68.3591 745.959,-67.7204"/>
<text text-anchor="start" x="751" y="-103.942" font-family="Arial" font-weight="bold" font-size="12.00"> </text>
</g>
<!-- abfadfcbbcaaafabcfbdfefeda -->
<g id="node14" class="node"><title>abfadfcbbcaaafabcfbdfefeda</title>
<polygon fill="none" stroke="black" points="629.5,-938.792 510.5,-938.792 510.5,-819.792 629.5,-819.792 629.5,-938.792"/>
<text text-anchor="start" x="523" y="-876.092" font-family="Arial" font-weight="bold" font-size="14.00">Owner Phone</text>
</g>
<!-- cbaffdfcaeeefbada -->
<g id="node15" class="node"><title>cbaffdfcaeeefbada</title>
<ellipse fill="none" stroke="black" cx="570" cy="-646.465" rx="80.7205" ry="80.7205"/>
<text text-anchor="start" x="525" y="-643.265" font-family="Arial" font-weight="bold" font-size="14.00">Ownz Mobile</text>
</g>
<!-- abfadfcbbcaaafabcfbdfefeda&#45;&gt;cbaffdfcaeeefbada -->
<g id="edge1" class="edge"><title>abfadfcbbcaaafabcfbdfefeda&#45;&gt;cbaffdfcaeeefbada</title>
<path fill="none" stroke="black" d="M570,-819.746C570,-794.766 570,-765.046 570,-737.384"/>
<polygon fill="black" stroke="black" points="573.5,-737.298 570,-727.298 566.5,-737.298 573.5,-737.298"/>
<text text-anchor="start" x="574" y="-752.975" font-family="Arial" font-weight="bold" font-size="12.00">Launch</text>
</g>
<!-- cbaffdfcaeeefbada&#45;&gt;edeefeaeddcfbaeaafbed -->
<g id="edge3" class="edge"><title>cbaffdfcaeeefbada&#45;&gt;edeefeaeddcfbaeaafbed</title>
<path fill="none" stroke="black" d="M567.247,-565.691C566.54,-545.207 565.775,-523.051 565.054,-502.155"/>
<polygon fill="black" stroke="black" points="568.547,-501.885 564.704,-492.012 561.551,-502.126 568.547,-501.885"/>
<text text-anchor="start" x="571.5" y="-534.755" font-family="Arial" font-weight="bold" font-size="12.00">HTTPS</text>
</g>
</g>
</svg>
