<?xml version="1.0" encoding="UTF-8" standalone="no"?><svg xmlns="http://www.w3.org/2000/svg" xmlns:xlink="http://www.w3.org/1999/xlink" contentScriptType="application/ecmascript" contentStyleType="text/css" height="552px" preserveAspectRatio="none" style="width:1117px;height:552px;" version="1.1" viewBox="0 0 1117 552" width="1117px" zoomAndPan="magnify"><defs><filter height="300%" id="fkirncpe9z99m" width="300%" x="-1" y="-1"><feGaussianBlur result="blurOut" stdDeviation="2.0"/><feColorMatrix in="blurOut" result="blurOut2" type="matrix" values="0 0 0 0 0 0 0 0 0 0 0 0 0 0 0 0 0 0 .4 0"/><feOffset dx="4.0" dy="4.0" in="blurOut2" result="blurOut3"/><feBlend in="SourceGraphic" in2="blurOut3" mode="normal"/></filter></defs><g><!--entity mine--><rect fill="#F8F8F8" filter="url(#fkirncpe9z99m)" height="36.2969" style="stroke: #383838; stroke-width: 1.5;" width="106" x="82.5" y="104"/><text fill="#000000" font-family="sans-serif" font-size="14" lengthAdjust="spacingAndGlyphs" textLength="86" x="92.5" y="126.9951">Mass mining</text><!--entity scan--><rect fill="#F8F8F8" filter="url(#fkirncpe9z99m)" height="36.2969" style="stroke: #383838; stroke-width: 1.5;" width="93" x="224" y="104"/><text fill="#000000" font-family="sans-serif" font-size="14" lengthAdjust="spacingAndGlyphs" textLength="73" x="234" y="126.9951">Mass scan</text><!--entity ddos--><rect fill="#F8F8F8" filter="url(#fkirncpe9z99m)" height="36.2969" style="stroke: #383838; stroke-width: 1.5;" width="60" x="352.5" y="104"/><text fill="#000000" font-family="sans-serif" font-size="14" lengthAdjust="spacingAndGlyphs" textLength="40" x="362.5" y="126.9951">DDoS</text><!--entity botnet--><rect fill="#F8F8F8" filter="url(#fkirncpe9z99m)" height="52.5938" style="stroke: #383838; stroke-width: 1.5;" width="168" x="186.5" y="200"/><text fill="#000000" font-family="sans-serif" font-size="14" lengthAdjust="spacingAndGlyphs" textLength="148" x="196.5" y="222.9951">Control many devices</text><text fill="#000000" font-family="sans-serif" font-size="14" lengthAdjust="spacingAndGlyphs" textLength="57" x="196.5" y="239.292">(Botnet)</text><!--entity legitcmd--><rect fill="#F8F8F8" filter="url(#fkirncpe9z99m)" height="36.2969" style="stroke: #383838; stroke-width: 1.5;" width="153" x="6" y="313"/><text fill="#000000" font-family="sans-serif" font-size="14" lengthAdjust="spacingAndGlyphs" textLength="133" x="16" y="335.9951">Use legit command</text><!--entity flaws--><rect fill="#F8F8F8" filter="url(#fkirncpe9z99m)" height="36.2969" style="stroke: #383838; stroke-width: 1.5;" width="152" x="194.5" y="313"/><text fill="#000000" font-family="sans-serif" font-size="14" lengthAdjust="spacingAndGlyphs" textLength="132" x="204.5" y="335.9951">Exploit device flaws</text><!--entity access--><rect fill="#F8F8F8" filter="url(#fkirncpe9z99m)" height="36.2969" style="stroke: #383838; stroke-width: 1.5;" width="167" x="382" y="313"/><text fill="#000000" font-family="sans-serif" font-size="14" lengthAdjust="spacingAndGlyphs" textLength="147" x="392" y="335.9951">Obtain device access</text><!--entity wifi--><rect fill="#F8F8F8" filter="url(#fkirncpe9z99m)" height="36.2969" style="stroke: #383838; stroke-width: 1.5;" width="159" x="524" y="505"/><text fill="#000000" font-family="sans-serif" font-size="14" lengthAdjust="spacingAndGlyphs" textLength="139" x="534" y="527.9951">Get WiFi LAN access</text><!--entity phys--><rect fill="#F8F8F8" filter="url(#fkirncpe9z99m)" height="36.2969" style="stroke: #383838; stroke-width: 1.5;" width="157" x="332" y="505"/><text fill="#000000" font-family="sans-serif" font-size="14" lengthAdjust="spacingAndGlyphs" textLength="137" x="342" y="527.9951">Get Physical access</text><!--entity factory--><rect fill="#F8F8F8" filter="url(#fkirncpe9z99m)" height="36.2969" style="stroke: #383838; stroke-width: 1.5;" width="181" x="189" y="409"/><text fill="#000000" font-family="sans-serif" font-size="14" lengthAdjust="spacingAndGlyphs" textLength="161" x="199" y="431.9951">Place Factory Backdoor</text><!--entity cloud--><rect fill="#F8F8F8" filter="url(#fkirncpe9z99m)" height="36.2969" style="stroke: #383838; stroke-width: 1.5;" width="143" x="719" y="505"/><text fill="#000000" font-family="sans-serif" font-size="14" lengthAdjust="spacingAndGlyphs" textLength="123" x="729" y="527.9951">Hack cloud server</text><!--entity life--><rect fill="#F8F8F8" filter="url(#fkirncpe9z99m)" height="36.2969" style="stroke: #383838; stroke-width: 1.5;" width="175" x="771" y="8"/><text fill="#000000" font-family="sans-serif" font-size="14" lengthAdjust="spacingAndGlyphs" textLength="155" x="781" y="30.9951">Make my life miserable</text><!--entity ransomware--><rect fill="#F8F8F8" filter="url(#fkirncpe9z99m)" height="36.2969" style="stroke: #383838; stroke-width: 1.5;" width="111" x="803" y="104"/><text fill="#000000" font-family="sans-serif" font-size="14" lengthAdjust="spacingAndGlyphs" textLength="91" x="813" y="126.9951">Randomware</text><!--entity privacy--><rect fill="#F8F8F8" filter="url(#fkirncpe9z99m)" height="36.2969" style="stroke: #383838; stroke-width: 1.5;" width="140" x="627.5" y="104"/><text fill="#000000" font-family="sans-serif" font-size="14" lengthAdjust="spacingAndGlyphs" textLength="120" x="637.5" y="126.9951">Invade my privacy</text><!--entity mess--><rect fill="#F8F8F8" filter="url(#fkirncpe9z99m)" height="36.2969" style="stroke: #383838; stroke-width: 1.5;" width="157" x="949" y="104"/><text fill="#000000" font-family="sans-serif" font-size="14" lengthAdjust="spacingAndGlyphs" textLength="137" x="959" y="126.9951">Mess with the lights</text><!--entity habits--><rect fill="#F8F8F8" filter="url(#fkirncpe9z99m)" height="36.2969" style="stroke: #383838; stroke-width: 1.5;" width="122" x="708.5" y="208.5"/><text fill="#000000" font-family="sans-serif" font-size="14" lengthAdjust="spacingAndGlyphs" textLength="102" x="718.5" y="231.4951">View my habits</text><!--entity spy--><rect fill="#F8F8F8" filter="url(#fkirncpe9z99m)" height="36.2969" style="stroke: #383838; stroke-width: 1.5;" width="97" x="576" y="208.5"/><text fill="#000000" font-family="sans-serif" font-size="14" lengthAdjust="spacingAndGlyphs" textLength="77" x="586" y="231.4951">Spy me live</text><!--entity data--><rect fill="#F8F8F8" filter="url(#fkirncpe9z99m)" height="36.2969" style="stroke: #383838; stroke-width: 1.5;" width="130" x="726.5" y="313"/><text fill="#000000" font-family="sans-serif" font-size="14" lengthAdjust="spacingAndGlyphs" textLength="110" x="736.5" y="335.9951">Steal cloud data</text><!--entity sniff--><rect fill="#F8F8F8" filter="url(#fkirncpe9z99m)" height="36.2969" style="stroke: #383838; stroke-width: 1.5;" width="109" x="548" y="409"/><text fill="#000000" font-family="sans-serif" font-size="14" lengthAdjust="spacingAndGlyphs" textLength="89" x="558" y="431.9951">Sniff network</text><!--link mine to botnet--><path d="M159.0152,140.2025 C179.1535,155.7911 208.5435,178.5411 232.0919,196.7693 " fill="none" id="mine-botnet" style="stroke: #383838; stroke-width: 1.0;"/><polygon fill="#383838" points="236.1173,199.8852,231.4488,191.2131,232.1634,196.8246,226.5519,197.5393,236.1173,199.8852" style="stroke: #383838; stroke-width: 1.0;"/><!--link scan to botnet--><path d="M270.5,140.2025 C270.5,155.1469 270.5,176.6731 270.5,194.4873 " fill="none" id="scan-botnet" style="stroke: #383838; stroke-width: 1.0;"/><polygon fill="#383838" points="270.5,199.8852,274.5,190.8852,270.5,194.8852,266.5,190.8852,270.5,199.8852" style="stroke: #383838; stroke-width: 1.0;"/><!--link ddos to botnet--><path d="M362.9911,140.2025 C346.4218,155.6622 322.3035,178.1655 302.8498,196.3165 " fill="none" id="ddos-botnet" style="stroke: #383838; stroke-width: 1.0;"/><polygon fill="#383838" points="299.0249,199.8852,308.3342,196.6701,302.6807,196.4742,302.8766,190.8208,299.0249,199.8852" style="stroke: #383838; stroke-width: 1.0;"/><!--link botnet to legitcmd--><path d="M222.5732,253.1401 C190.5614,270.934 149.0784,293.9923 119.5845,310.3865 " fill="none" id="botnet-legitcmd" style="stroke: #383838; stroke-width: 1.0;"/><polygon fill="#383838" points="114.9571,312.9587,124.7669,312.0825,119.3274,310.5296,120.8803,305.09,114.9571,312.9587" style="stroke: #383838; stroke-width: 1.0;"/><!--link botnet to flaws--><path d="M270.5,253.1401 C270.5,269.982 270.5,291.5403 270.5,307.7 " fill="none" id="botnet-flaws" style="stroke: #383838; stroke-width: 1.0;"/><polygon fill="#383838" points="270.5,312.9587,274.5,303.9587,270.5,307.9587,266.5,303.9587,270.5,312.9587" style="stroke: #383838; stroke-width: 1.0;"/><!--link botnet to access--><path d="M319.9588,253.0049 C353.2976,270.871 396.6272,294.0912 427.3136,310.536 " fill="none" id="botnet-access" style="stroke: #383838; stroke-width: 1.0;"/><polygon fill="#383838" points="431.7467,312.9117,425.7033,305.135,427.3396,310.55,421.9246,312.1863,431.7467,312.9117" style="stroke: #383838; stroke-width: 1.0;"/><!--link access to wifi--><path d="M474.1921,349.1751 C485.6504,372.3665 507.1125,413.2746 530.5,445 C545.5156,465.3688 565.2611,486.1817 580.4297,501.1796 " fill="none" id="access-wifi" style="stroke: #383838; stroke-width: 1.0;"/><polygon fill="#383838" points="584.1819,504.8635,580.5622,495.7039,580.6141,501.3605,574.9575,501.4124,584.1819,504.8635" style="stroke: #383838; stroke-width: 1.0;"/><!--link access to phys--><path d="M460.3257,349.0629 C450.2936,384.0841 428.2122,461.1683 417.1253,499.8715 " fill="none" id="access-phys" style="stroke: #383838; stroke-width: 1.0;"/><polygon fill="#383838" points="415.7006,504.8452,422.0245,497.2948,417.0776,500.0385,414.3338,495.0916,415.7006,504.8452" style="stroke: #383838; stroke-width: 1.0;"/><!--link access to factory--><path d="M430.5148,349.0569 C398.92,365.3638 352.4515,389.3476 319.4171,406.3976 " fill="none" id="access-factory" style="stroke: #383838; stroke-width: 1.0;"/><polygon fill="#383838" points="314.644,408.8612,324.4762,408.2878,319.0871,406.5679,320.8069,401.1789,314.644,408.8612" style="stroke: #383838; stroke-width: 1.0;"/><!--link access to cloud--><path d="M535.7157,349.1399 C577.9777,361.9658 631.7025,381.752 674.5,409 C714.5178,434.4783 751.9726,475.6165 772.9919,500.8855 " fill="none" id="access-cloud" style="stroke: #383838; stroke-width: 1.0;"/><polygon fill="#383838" points="776.2221,504.7999,773.579,495.3123,773.0397,500.9434,767.4086,500.4041,776.2221,504.7999" style="stroke: #383838; stroke-width: 1.0;"/><!--link life to ransomware--><path d="M858.5,44.0569 C858.5,59.5126 858.5,81.8647 858.5,98.6731 " fill="none" id="life-ransomware" style="stroke: #383838; stroke-width: 1.0;"/><polygon fill="#383838" points="858.5,103.6977,862.5,94.6977,858.5,98.6977,854.5,94.6977,858.5,103.6977" style="stroke: #383838; stroke-width: 1.0;"/><!--link life to privacy--><path d="M828.2171,44.0569 C800.981,60.297 760.9756,84.1512 732.404,101.1877 " fill="none" id="life-privacy" style="stroke: #383838; stroke-width: 1.0;"/><polygon fill="#383838" points="727.9203,103.8612,737.699,102.6876,732.2148,101.3005,733.6019,95.8164,727.9203,103.8612" style="stroke: #383838; stroke-width: 1.0;"/><!--link life to mess--><path d="M890.2876,44.0569 C918.877,60.297 960.8703,84.1512 990.8616,101.1877 " fill="none" id="life-mess" style="stroke: #383838; stroke-width: 1.0;"/><polygon fill="#383838" points="995.5681,103.8612,989.7183,95.9379,991.2206,101.3916,985.7669,102.8939,995.5681,103.8612" style="stroke: #383838; stroke-width: 1.0;"/><!--link privacy to habits--><path d="M710.0414,140.2025 C722.2525,157.9254 740.8414,184.9052 753.9786,203.9725 " fill="none" id="privacy-habits" style="stroke: #383838; stroke-width: 1.0;"/><polygon fill="#383838" points="756.8607,208.1555,755.0482,198.4749,754.0238,204.0382,748.4605,203.0139,756.8607,208.1555" style="stroke: #383838; stroke-width: 1.0;"/><!--link privacy to spy--><path d="M684.7844,140.2025 C672.4038,157.9254 653.5566,184.9052 640.2369,203.9725 " fill="none" id="privacy-spy" style="stroke: #383838; stroke-width: 1.0;"/><polygon fill="#383838" points="637.3148,208.1555,645.748,203.0681,640.1782,204.0566,639.1897,198.4868,637.3148,208.1555" style="stroke: #383838; stroke-width: 1.0;"/><!--link habits to data--><path d="M773.3321,244.7025 C777.0005,262.1276 782.5528,288.5009 786.5536,307.5045 " fill="none" id="habits-data" style="stroke: #383838; stroke-width: 1.0;"/><polygon fill="#383838" points="787.638,312.6555,789.6982,303.0245,786.608,307.7627,781.8698,304.6725,787.638,312.6555" style="stroke: #383838; stroke-width: 1.0;"/><!--link spy to data--><path d="M653.5892,244.7025 C682.715,262.928 727.4849,290.9427 758.06,310.0749 " fill="none" id="spy-data" style="stroke: #383838; stroke-width: 1.0;"/><polygon fill="#383838" points="762.4645,312.8311,756.9568,304.6662,758.2259,310.1789,752.7132,311.448,762.4645,312.8311" style="stroke: #383838; stroke-width: 1.0;"/><!--link data to cloud--><path d="M791.4059,349.0629 C791.2243,383.9412 790.8253,460.5397 790.6229,499.3957 " fill="none" id="data-cloud" style="stroke: #383838; stroke-width: 1.0;"/><polygon fill="#383838" points="790.5946,504.8452,794.6413,495.8661,790.6206,499.8453,786.6415,495.8245,790.5946,504.8452" style="stroke: #383838; stroke-width: 1.0;"/><!--link habits to sniff--><path d="M754.3853,244.6467 C723.7857,281.3846 654.5847,364.4672 621.2035,404.5446 " fill="none" id="habits-sniff" style="stroke: #383838; stroke-width: 1.0;"/><polygon fill="#383838" points="617.7008,408.7499,626.5343,404.3945,620.9008,404.908,620.3873,399.2745,617.7008,408.7499" style="stroke: #383838; stroke-width: 1.0;"/><!--link spy to sniff--><path d="M622.5088,244.6467 C618.5104,281.0871 609.5087,363.1248 605.0717,403.5626 " fill="none" id="spy-sniff" style="stroke: #383838; stroke-width: 1.0;"/><polygon fill="#383838" points="604.5025,408.7499,609.4604,400.24,605.0479,403.7797,601.5081,399.3673,604.5025,408.7499" style="stroke: #383838; stroke-width: 1.0;"/><!--link access to sniff--><path d="M491.2687,349.0569 C514.2761,365.1788 547.9917,388.8044 572.2668,405.8147 " fill="none" id="access-sniff" style="stroke: #383838; stroke-width: 1.0;"/><polygon fill="#383838" points="576.3811,408.6977,571.306,400.2571,572.2863,405.8284,566.7151,406.8087,576.3811,408.6977" style="stroke: #383838; stroke-width: 1.0;"/><!--link sniff to wifi--><path d="M602.6881,445.0569 C602.8491,460.5126 603.0819,482.8647 603.257,499.6731 " fill="none" id="sniff-wifi" style="stroke: #383838; stroke-width: 1.0;"/><polygon fill="#383838" points="603.3094,504.6977,607.2153,495.6565,603.2573,499.698,599.2158,495.7399,603.3094,504.6977" style="stroke: #383838; stroke-width: 1.0;"/><!--link sniff to phys--><path d="M566.3863,445.0569 C533.6386,461.4307 485.4113,485.5444 451.2862,502.6069 " fill="none" id="sniff-phys" style="stroke: #383838; stroke-width: 1.0;"/><polygon fill="#383838" points="446.7777,504.8612,456.6164,504.4139,451.2498,502.6251,453.0386,497.2585,446.7777,504.8612" style="stroke: #383838; stroke-width: 1.0;"/><!--
@startuml
skinparam monochrome true

agent "Mass mining" as mine
agent "Mass scan" as scan
agent "DDoS" as ddos
agent "Control many devices \n(Botnet)" as botnet
mine - -> botnet
scan - -> botnet
ddos - -> botnet

agent "Use legit command" as legitcmd
agent "Exploit device flaws" as flaws
agent "Obtain device access" as access
botnet - -> legitcmd
botnet - -> flaws
botnet - -> access

agent "Get WiFi LAN access" as wifi
agent "Get Physical access" as phys
agent "Place Factory Backdoor" as factory
agent "Hack cloud server" as cloud
access - -> wifi
access - -> phys
access - -> factory
access - -> cloud

agent "Make my life miserable" as life
agent "Randomware" as ransomware
agent "Invade my privacy" as privacy
agent "Mess with the lights" as mess

life - -> ransomware
life - -> privacy
life - -> mess

agent "View my habits" as habits
agent "Spy me live" as spy
privacy - -> habits
privacy - -> spy

agent "Steal cloud data" as data
habits - -> data
spy - -> data
data - - -> cloud

agent "Sniff network" as sniff
habits - - -> sniff
spy - - -> sniff
access - -> sniff
sniff - -> wifi
sniff - -> phys
@enduml

PlantUML version 1.2019.04(Fri Mar 29 15:44:36 UTC 2019)
(GPL source distribution)
Java Runtime: OpenJDK Runtime Environment
JVM: OpenJDK 64-Bit Server VM
Java Version: 1.8.0_201-heroku-b09
Operating System: Linux
OS Version: 4.4.0-1044-aws
Default Encoding: UTF-8
Language: en
Country: US
--></g></svg>