<?xml version="1.0" encoding="UTF-8" standalone="no"?><svg xmlns="http://www.w3.org/2000/svg" xmlns:xlink="http://www.w3.org/1999/xlink" contentScriptType="application/ecmascript" contentStyleType="text/css" height="535px" preserveAspectRatio="none" style="width:283px;height:535px;" version="1.1" viewBox="0 0 283 535" width="283px" zoomAndPan="magnify"><defs><filter height="300%" id="fc99nk5odmn2k" width="300%" x="-1" y="-1"><feGaussianBlur result="blurOut" stdDeviation="2.0"/><feColorMatrix in="blurOut" result="blurOut2" type="matrix" values="0 0 0 0 0 0 0 0 0 0 0 0 0 0 0 0 0 0 .4 0"/><feOffset dx="4.0" dy="4.0" in="blurOut2" result="blurOut3"/><feBlend in="SourceGraphic" in2="blurOut3" mode="normal"/></filter></defs><g><!--entity cloud--><rect fill="#F8F8F8" filter="url(#fc99nk5odmn2k)" height="36.2969" style="stroke: #383838; stroke-width: 1.5;" width="143" x="71" y="8"/><text fill="#000000" font-family="sans-serif" font-size="14" lengthAdjust="spacingAndGlyphs" textLength="123" x="81" y="30.9951">Hack cloud server</text><!--entity sys--><rect fill="#F8F8F8" filter="url(#fc99nk5odmn2k)" height="36.2969" style="stroke: #383838; stroke-width: 1.5;" width="108" x="15.5" y="104"/><text fill="#000000" font-family="sans-serif" font-size="14" lengthAdjust="spacingAndGlyphs" textLength="88" x="25.5" y="126.9951">Hack system</text><!--entity acc--><rect fill="#F8F8F8" filter="url(#fc99nk5odmn2k)" height="36.2969" style="stroke: #383838; stroke-width: 1.5;" width="114" x="158.5" y="104"/><text fill="#000000" font-family="sans-serif" font-size="14" lengthAdjust="spacingAndGlyphs" textLength="94" x="168.5" y="126.9951">Hack account</text><!--entity api--><rect fill="#F8F8F8" filter="url(#fc99nk5odmn2k)" height="36.2969" style="stroke: #383838; stroke-width: 1.5;" width="79" x="30" y="296"/><text fill="#000000" font-family="sans-serif" font-size="14" lengthAdjust="spacingAndGlyphs" textLength="59" x="40" y="318.9951">Hack API</text><!--entity server--><rect fill="#F8F8F8" filter="url(#fc99nk5odmn2k)" height="36.2969" style="stroke: #383838; stroke-width: 1.5;" width="101" x="71" y="200"/><text fill="#000000" font-family="sans-serif" font-size="14" lengthAdjust="spacingAndGlyphs" textLength="81" x="81" y="222.9951">Hack server</text><!--entity rce--><rect fill="#F8F8F8" filter="url(#fc99nk5odmn2k)" height="36.2969" style="stroke: #383838; stroke-width: 1.5;" width="49" x="6" y="392"/><text fill="#000000" font-family="sans-serif" font-size="14" lengthAdjust="spacingAndGlyphs" textLength="29" x="16" y="414.9951">RCE</text><!--entity sqli--><rect fill="#F8F8F8" filter="url(#fc99nk5odmn2k)" height="36.2969" style="stroke: #383838; stroke-width: 1.5;" width="50" x="44.5" y="488"/><text fill="#000000" font-family="sans-serif" font-size="14" lengthAdjust="spacingAndGlyphs" textLength="30" x="54.5" y="510.9951">SQLi</text><!--link cloud to sys--><path d="M128.7693,44.0569 C116.8138,59.7791 99.4319,82.6375 86.5809,99.5375 " fill="none" id="cloud-sys" style="stroke: #383838; stroke-width: 1.0;"/><polygon fill="#383838" points="83.4174,103.6977,92.0491,98.955,86.4439,99.7177,85.6812,94.1125,83.4174,103.6977" style="stroke: #383838; stroke-width: 1.0;"/><!--link cloud to acc--><path d="M156.2307,44.0569 C168.1862,59.7791 185.5681,82.6375 198.4191,99.5375 " fill="none" id="cloud-acc" style="stroke: #383838; stroke-width: 1.0;"/><polygon fill="#383838" points="201.5826,103.6977,199.3188,94.1125,198.5561,99.7177,192.9509,98.955,201.5826,103.6977" style="stroke: #383838; stroke-width: 1.0;"/><!--link sys to api--><path d="M64.6969,140.1206 C60.7959,155.8272 55.608,179.233 53.5,200 C51.8842,215.9182 51.8842,220.0818 53.5,236 C55.3939,254.6578 59.7739,275.4457 63.4731,290.8663 " fill="none" id="sys-api" style="stroke: #383838; stroke-width: 1.0;"/><polygon fill="#383838" points="64.6969,295.8794,66.448,286.1875,63.5109,291.0221,58.6763,288.085,64.6969,295.8794" style="stroke: #383838; stroke-width: 1.0;"/><!--link sys to server--><path d="M79.2808,140.0569 C87.7249,155.6459 99.9691,178.2506 109.0994,195.1065 " fill="none" id="sys-server" style="stroke: #383838; stroke-width: 1.0;"/><polygon fill="#383838" points="111.5863,199.6977,110.817,189.8789,109.2049,195.3012,103.7826,193.6891,111.5863,199.6977" style="stroke: #383838; stroke-width: 1.0;"/><!--link server to api--><path d="M111.7192,236.0569 C103.2751,251.6459 91.0309,274.2506 81.9006,291.1065 " fill="none" id="server-api" style="stroke: #383838; stroke-width: 1.0;"/><polygon fill="#383838" points="79.4137,295.6977,87.2174,289.6891,81.7951,291.3012,80.183,285.8789,79.4137,295.6977" style="stroke: #383838; stroke-width: 1.0;"/><!--link api to rce--><path d="M62.1644,332.0569 C55.8855,347.5126 46.805,369.8647 39.9766,386.6731 " fill="none" id="api-rce" style="stroke: #383838; stroke-width: 1.0;"/><polygon fill="#383838" points="37.9353,391.6977,45.0285,384.8649,39.8171,387.0653,37.6167,381.854,37.9353,391.6977" style="stroke: #383838; stroke-width: 1.0;"/><!--link api to sqli--><path d="M70.4016,332.2759 C71.1336,348.0796 72.1067,371.5407 72.5,392 C72.8075,407.997 72.8075,412.003 72.5,428 C72.1466,446.3814 71.3253,467.1858 70.6312,482.6831 " fill="none" id="api-sqli" style="stroke: #383838; stroke-width: 1.0;"/><polygon fill="#383838" points="70.4016,487.7241,74.8071,478.9155,70.6292,482.7293,66.8154,478.5514,70.4016,487.7241" style="stroke: #383838; stroke-width: 1.0;"/><!--link rce to sqli--><path d="M37.8356,428.0569 C44.1145,443.5126 53.195,465.8647 60.0234,482.6731 " fill="none" id="rce-sqli" style="stroke: #383838; stroke-width: 1.0;"/><polygon fill="#383838" points="62.0647,487.6977,62.3833,477.854,60.1829,483.0653,54.9715,480.8649,62.0647,487.6977" style="stroke: #383838; stroke-width: 1.0;"/><!--
@startuml
skinparam monochrome true 

agent "Hack cloud server" as cloud

agent "Hack system" as sys
agent "Hack account" as acc

cloud - -> sys
cloud - -> acc

agent "Hack API" as api
agent "Hack server" as server

agent "RCE" as rce
agent "SQLi" as sqli

sys - - -> api
sys - -> server

server - -> api

api - -> rce

api - - -> sqli

rce - -> sqli
@enduml

PlantUML version 1.2019.04(Fri Mar 29 15:44:36 UTC 2019)
(GPL source distribution)
Java Runtime: OpenJDK Runtime Environment
JVM: OpenJDK 64-Bit Server VM
Java Version: 1.8.0_201-heroku-b09
Operating System: Linux
OS Version: 4.4.0-1044-aws
Default Encoding: UTF-8
Language: en
Country: US
--></g></svg>