<?xml version="1.0" encoding="UTF-8" standalone="no"?>
<!DOCTYPE svg PUBLIC "-//W3C//DTD SVG 1.1//EN"
 "http://www.w3.org/Graphics/SVG/1.1/DTD/svg11.dtd">
<!-- Generated by graphviz version 2.38.0 (20140413.2041)
 -->
<!-- Title: tm Pages: 1 -->
<svg width="360pt" height="561pt"
 viewBox="0.00 0.00 360.00 561.42" xmlns="http://www.w3.org/2000/svg" xmlns:xlink="http://www.w3.org/1999/xlink">
<g id="graph0" class="graph" transform="scale(1 1) rotate(0) translate(4 557.416)">
<title>tm</title>
<polygon fill="white" stroke="none" points="-4,4 -4,-557.416 356,-557.416 356,4 -4,4"/>
<g id="clust1" class="cluster"><title>cluster_cacebafcaebeabfbbacecaba</title>
<polygon fill="none" stroke="#ee2c2c" stroke-dasharray="5,2" points="8,-8 8,-441.416 344,-441.416 344,-8 8,-8"/>
<text text-anchor="start" x="174" y="-430.416" font-family="Arial" font-style="italic" font-size="10.00" fill="#ee2c2c"> </text>
</g>
<!-- bfecadfeecdeafdaedadecf -->
<g id="node1" class="node"><title>bfecadfeecdeafdaedadecf</title>
<ellipse fill="none" stroke="black" cx="179" cy="-356.434" rx="57.9655" ry="57.9655"/>
<text text-anchor="start" x="150" y="-353.234" font-family="Arial" font-weight="bold" font-size="14.00">Process</text>
</g>
<!-- fcbdafdbbdcfcbbbefdee -->
<g id="node2" class="node"><title>fcbdafdbbdcfcbbbefdee</title>
<ellipse fill="none" stroke="black" cx="74" cy="-175.225" rx="57.9655" ry="57.9655"/>
<text text-anchor="start" x="46" y="-179.025" font-family="Arial" font-weight="bold" font-size="14.00">Another</text>
<text text-anchor="start" x="45" y="-165.025" font-family="Arial" font-weight="bold" font-size="14.00">Process</text>
</g>
<!-- bfecadfeecdeafdaedadecf&#45;&gt;fcbdafdbbdcfcbbbefdee -->
<g id="edge2" class="edge"><title>bfecadfeecdeafdaedadecf&#45;&gt;fcbdafdbbdcfcbbbefdee</title>
<path fill="none" stroke="black" d="M150.03,-305.99C137.005,-283.758 121.542,-257.368 107.974,-234.21"/>
<polygon fill="black" stroke="black" points="110.95,-232.367 102.875,-225.508 104.911,-235.905 110.95,-232.367"/>
<text text-anchor="start" x="137.5" y="-267.351" font-family="Arial" font-weight="bold" font-size="12.00">HTTP</text>
</g>
<!-- deddbeacafbddfdccbcbccbbf -->
<g id="node4" class="node"><title>deddbeacafbddfdccbcbccbbf</title>
<ellipse fill="none" stroke="black" cx="270" cy="-175.225" rx="62.4379" ry="62.4379"/>
<ellipse fill="none" stroke="black" cx="270" cy="-175.225" rx="66.4516" ry="66.4516"/>
<text text-anchor="start" x="238" y="-179.025" font-family="Arial" font-weight="bold" font-size="14.00">Multiples</text>
<text text-anchor="start" x="241" y="-165.025" font-family="Arial" font-weight="bold" font-size="14.00">Process</text>
</g>
<!-- bfecadfeecdeafdaedadecf&#45;&gt;deddbeacafbddfdccbcbccbbf -->
<g id="edge4" class="edge"><title>bfecadfeecdeafdaedadecf&#45;&gt;deddbeacafbddfdccbcbccbbf</title>
<path fill="none" stroke="black" d="M205.077,-304.08C214.641,-285.244 225.615,-263.633 235.786,-243.603"/>
<polygon fill="black" stroke="black" points="238.988,-245.028 240.395,-234.527 232.747,-241.859 238.988,-245.028"/>
<text text-anchor="start" x="231" y="-267.351" font-family="Arial" font-weight="bold" font-size="12.00">?</text>
</g>
<!-- ffaddaddffcafad -->
<g id="node3" class="node"><title>ffaddaddffcafad</title>
<text text-anchor="start" x="54" y="-30.8" font-family="Arial" font-weight="bold" font-size="14.00">Datastore</text>
<polyline fill="none" stroke="black" points="49,-21.5 127,-21.5 "/>
<polyline fill="none" stroke="black" points="127,-46.5 49,-46.5 "/>
</g>
<!-- fcbdafdbbdcfcbbbefdee&#45;&gt;ffaddaddffcafad -->
<g id="edge3" class="edge"><title>fcbdafdbbdcfcbbbefdee&#45;&gt;ffaddaddffcafad</title>
<path fill="none" stroke="black" d="M79.7347,-117.195C81.649,-98.1586 83.6938,-77.8233 85.2707,-62.1419"/>
<polygon fill="black" stroke="black" points="88.7621,-62.4023 86.2803,-52.1023 81.7972,-61.7019 88.7621,-62.4023"/>
<text text-anchor="start" x="89" y="-77.9" font-family="Arial" font-weight="bold" font-size="12.00"> </text>
</g>
<!-- dcecfdcdcbadffbc -->
<g id="node5" class="node"><title>dcecfdcdcbadffbc</title>
<polygon fill="none" stroke="black" points="211.5,-553.416 146.5,-553.416 146.5,-488.416 211.5,-488.416 211.5,-553.416"/>
<text text-anchor="start" x="160.5" y="-524.716" font-family="Arial" font-weight="bold" font-size="14.00">Actor</text>
<text text-anchor="start" x="159" y="-510.716" font-family="Arial" font-weight="bold" font-size="14.00">(user)</text>
</g>
<!-- dcecfdcdcbadffbc&#45;&gt;bfecadfeecdeafdaedadecf -->
<g id="edge1" class="edge"><title>dcecfdcdcbadffbc&#45;&gt;bfecadfeecdeafdaedadecf</title>
<path fill="none" stroke="black" d="M179,-488.202C179,-470.184 179,-446.909 179,-425.001"/>
<polygon fill="black" stroke="black" points="182.5,-424.721 179,-414.721 175.5,-424.721 182.5,-424.721"/>
<text text-anchor="start" x="183.5" y="-457.316" font-family="Arial" font-weight="bold" font-size="12.00">HTTPS</text>
</g>
</g>
</svg>
